<?xml version="1.0" encoding="UTF-8" standalone="no"?>
<svg
   width="157.00000000749998mm"
   height="119.90000001833334mm"
   viewBox="0 0 445.0393701 339.87401580000005"
   version="1.1"
   id="svg148"
   sodipodi:docname="all.svg"
   inkscape:version="1.4 (e7c3feb1, 2024-10-09)"
   xmlns:inkscape="http://www.inkscape.org/namespaces/inkscape"
   xmlns:sodipodi="http://sodipodi.sourceforge.net/DTD/sodipodi-0.dtd"
   xmlns="http://www.w3.org/2000/svg"
   xmlns:svg="http://www.w3.org/2000/svg"
   xmlns:shaper="http://www.shapertools.com/namespaces/shaper">
  <defs
     id="defs152" />
  <sodipodi:namedview
     id="namedview150"
     pagecolor="#ffffff"
     bordercolor="#000000"
     borderopacity="0.25"
     inkscape:showpageshadow="2"
     inkscape:pageopacity="0.0"
     inkscape:pagecheckerboard="0"
     inkscape:deskcolor="#d1d1d1"
     inkscape:document-units="mm"
     showgrid="false"
     inkscape:zoom="0.32312644"
     inkscape:cx="-196.5175"
     inkscape:cy="63.442658"
     inkscape:window-width="1104"
     inkscape:window-height="432"
     inkscape:window-x="0"
     inkscape:window-y="37"
     inkscape:window-maximized="0"
     inkscape:current-layer="svg148" />
  <g
     id="g78"
     style="fill:none;stroke:#ff0000;stroke-width:0.02834646;stroke-dasharray:none;stroke-opacity:1"
     transform="translate(-7.1283499)" />
  <g
     id="g80"
     style="fill:none;stroke:#ff0000;stroke-width:0.02834646;stroke-dasharray:none;stroke-opacity:1"
     transform="translate(-7.1283499)" />
  <g
     id="g82"
     style="fill:none;stroke:#ff0000;stroke-width:0.02834646;stroke-dasharray:none;stroke-opacity:1"
     transform="translate(-7.1283499)" />
  <g
     id="g84"
     style="fill:none;stroke:#ff0000;stroke-width:0.02834646;stroke-dasharray:none;stroke-opacity:1"
     transform="translate(-7.1283499)" />
  <g
     id="g86"
     style="fill:none;stroke:#ff0000;stroke-width:0.02834646;stroke-dasharray:none;stroke-opacity:1"
     transform="translate(-7.1283499)" />
  <g
     id="g88"
     style="fill:none;stroke:#ff0000;stroke-width:0.02834646;stroke-dasharray:none;stroke-opacity:1"
     transform="translate(-7.1283499)" />
  <g
     id="g90"
     style="fill:none;stroke:#ff0000;stroke-width:0.02834646;stroke-dasharray:none;stroke-opacity:1"
     transform="translate(-7.1283499)" />
  <g
     id="g92"
     style="fill:none;stroke:#ff0000;stroke-width:0.02834646;stroke-dasharray:none;stroke-opacity:1"
     transform="translate(-7.1283499)" />
  <g
     id="g1110"
     style="fill:none;stroke:#ff0000;stroke-opacity:1;stroke-width:0.02834646;stroke-dasharray:none">
    <path
       d="m 206.33984,67.22768 a 4.96063,4.96063 0 1 1 0,-9.92126 4.96063,4.96063 0 1 1 0,9.92126 z"
       fill="none"
       stroke="#000000"
       stroke-width="0.001cm"
       stroke-linecap="round"
       stroke-linejoin="round"
       shaper:cutDepth="0.3cm"
       id="path94"
       style="fill:none;stroke:#ff0000;stroke-width:0.02834646;stroke-dasharray:none;stroke-opacity:1" />
    <path
       d="m 392.20962,58.585779 a 4.96063,4.96063 0 1 1 0,9.92126 4.96063,4.96063 0 1 1 0,-9.92126 z"
       fill="none"
       stroke="#000000"
       stroke-width="0.001cm"
       stroke-linecap="round"
       stroke-linejoin="round"
       shaper:cutDepth="0.3cm"
       id="path96"
       style="fill:none;stroke:#ff0000;stroke-width:0.02834646;stroke-dasharray:none;stroke-opacity:1" />
    <path
       d="M 51.851649,26.833978 H 37.678421 v 0 70.866142 0 h 14.173228 v 0 8.50394 0 h 14.173228 v 0 -8.50394 0 h 70.866143 v 0 8.50394 0 h 14.17323 v 0 -87.874019 0 h -14.17323 v 0 8.503937 0 H 66.024877 v 0 -8.503937 0 H 51.851649 v 0 z"
       fill="none"
       stroke="#000000"
       id="path98"
       style="fill:none;stroke:#ff0000;stroke-width:0.02834646;stroke-dasharray:none;stroke-opacity:1" />
    <path
       d="m 55.536688,83.526892 h -6.519685 v 0 8.220472 0 h 6.519685 v 0 z"
       fill="none"
       stroke="#000000"
       id="path100"
       style="fill:none;stroke:#ff0000;stroke-width:0.02834646;stroke-dasharray:none;stroke-opacity:1" />
    <path
       d="m 145.821,83.810356 h -6.51969 v 0 8.220473 0 h 6.51969 v 0 z"
       fill="none"
       stroke="#000000"
       id="path102"
       style="fill:none;stroke:#ff0000;stroke-width:0.02834646;stroke-dasharray:none;stroke-opacity:1" />
    <path
       d="m 139.30131,32.50327 v 8.220472 0 h 6.51969 v 0 -8.220472 0 z"
       fill="none"
       stroke="#000000"
       id="path104"
       style="fill:none;stroke:#ff0000;stroke-width:0.02834646;stroke-dasharray:none;stroke-opacity:1" />
    <path
       d="m 49.017003,41.007207 h 6.519685 v 0 -8.220473 0 h -6.519685 v 0 z"
       fill="none"
       stroke="#000000"
       id="path106"
       style="fill:none;stroke:#ff0000;stroke-width:0.02834646;stroke-dasharray:none;stroke-opacity:1" />
    <path
       d="m 161.61083,265.47597 -0.30082,0.98341 v 0 l -0.351,0.94434 v 0 l -0.40072,0.90562 v 0 l -0.44884,0.86803 v 0 l -0.4936,0.8329 v 0 l -0.53255,0.80203 v 0 l -0.56374,0.77729 v 0 l -0.58725,0.76 v 0 l -0.60573,0.75078 v 0 l -0.62427,0.74951 v 0 l -0.64997,0.75541 v 0 l -0.68889,0.76716 v 0 l -0.74355,0.78298 v 0 l -0.39696,0.39811 v 0 l -0.41576,0.40258 v 0 l -0.43554,0.40686 v 0 l -0.45577,0.41078 v 0 l -0.47585,0.41411 v 0 l -0.49527,0.41672 v 0 l -1.04388,0.83753 v 0 l -1.10383,0.83567 v 0 l -1.14795,0.82387 v 0 l -1.17586,0.80155 v 0 l -1.18993,0.76873 v 0 l -1.19475,0.7262 v 0 l -1.19534,0.67495 v 0 l -1.19557,0.61612 v 0 l -0.59852,0.28394 v 0 l -0.59959,0.26691 v 0 l -0.60116,0.24927 v 0 l -0.60325,0.23111 v 0 l -0.60584,0.21248 v 0 l -0.60887,0.19351 v 0 l -0.61226,0.17425 v 0 l -0.61596,0.15479 v 0 l -0.61986,0.13519 v 0 l -0.62396,0.11551 v 0 l -0.62818,0.0958 v 0 l -0.63247,0.076 v 0 l -0.63683,0.0563 v 0 l -0.64121,0.0366 v 0 l -0.6456,0.0169 v 0 l -0.64999,-0.003 v 0 l -1.90078,-0.0321 v 0 l -1.84439,-0.0324 v 0 l -1.78802,-0.0327 v 0 l -1.73176,-0.0331 v 0 l -1.6757,-0.0334 v 0 l -1.61992,-0.0337 v 0 l -1.56463,-0.0341 v 0 l -1.50996,-0.0344 v 0 l -1.45617,-0.0348 v 0 l -1.40347,-0.0352 v 0 l -1.35215,-0.0356 v 0 l -1.3025,-0.0361 v 0 l -1.25489,-0.0366 v 0 l -1.20965,-0.0371 v 0 l -1.1672,-0.0377 v 0 l -1.12797,-0.0384 v 0 l -1.09239,-0.0391 v 0 l -1.06098,-0.0399 v 0 l -1.03424,-0.0407 v 0 l -1.01275,-0.0417 v 0 l -3.9567,-0.17847 v 0 l -2.0118,-0.0975 v 0 l -1.03612,-0.051 v 0 l -1.06361,-0.0525 v 0 l -1.09572,-0.0539 v 0 l -1.13163,-0.0552 v 0 l -1.17031,-0.0563 v 0 l -1.210602,-0.0571 v 0 l -1.251116,-0.0576 v 0 l -1.290345,-0.0577 v 0 l -1.326711,-0.0572 v 0 l -1.358645,-0.0562 v 0 l -1.384781,-0.0545 v 0 l -1.404012,-0.052 v 0 l -2.834019,-0.0931 v 0 l -2.810869,-0.0721 v 0 l -1.374423,-0.0255 v 0 l -1.342156,-0.0169 v 0 l -1.301803,-0.007 v 0 l -1.254118,0.004 v 0 l -1.200115,0.0166 v 0 l -1.141039,0.0305 v 0 l -1.078325,0.0458 v 0 l -1.013666,0.0626 v 0 l -0.949045,0.0808 v 0 l -0.886612,0.10066 v 0 l -0.828354,0.12199 v 0 l -0.775948,0.14489 v 0 l -0.730601,0.16933 v 0 l -0.693051,0.19529 v 0 l -0.66354,0.22273 v 0 l -0.641903,0.2516 v 0 l -0.627519,0.2818 v 0 l -0.619254,0.3133 v 0 l -0.615492,0.34596 v 0 l -0.614299,0.37968 v 0 l -0.613593,0.41429 v 0 l -0.611439,0.44964 v 0 l -0.606325,0.48545 v 0 l -0.597164,0.52143 v 0 l -0.5832,0.55726 v 0 l -0.564049,0.5925 v 0 l -0.539657,0.62672 v 0 l -0.510338,0.65943 v 0 l -0.476816,0.69007 v 0 l -0.440206,0.71801 v 0 l -0.401834,0.74266 v 0 l -0.363007,0.76346 v 0 l -0.32493,0.78007 v 0 l -0.288595,0.7923 v 0 l -0.254758,0.8001 v 0 l -0.223971,0.80366 v 0 l -0.196606,0.80331 v 0 l -0.172834,0.79954 v 0 l -0.152637,0.79302 v 0 l -0.135785,0.7846 v 0 l -0.23199,1.54165 v 0 l -0.191744,1.51133 v 0 l -0.160192,1.49676 v 0 l -0.13375,1.49682 v 0 l -0.112884,1.49913 v 0 l -0.102277,1.47941 v 0 l -0.05237,0.71697 v 0 l -0.05677,0.6905 v 0 l -0.06394,0.65514 v 0 l -0.07368,0.6117 v 0 l -0.08561,0.56177 v 0 l -0.09908,0.50779 v 0 l -0.113159,0.45348 v 0 l -0.126678,0.40336 v 0 l -0.138704,0.3617 v 0 l -0.148867,0.33154 v 0 l -0.325693,0.61935 v 0 l -0.181959,0.30299 v 0 l -0.203623,0.29943 v 0 l -0.235582,0.28871 v 0 l -0.278209,0.26669 v 0 l -0.328924,0.23192 v 0 l -0.184601,0.0992 v 0 l -0.197716,0.0864 v 0 l -0.209914,0.0727 v 0 l -0.220683,0.0583 v 0 l -0.465911,0.0723 v 0 l -0.482689,0.0133 v 0 l -0.478293,-0.0434 v 0 l -0.453424,-0.0959 v 0 l -0.412021,-0.14361 v 0 l -0.360562,-0.18675 v 0 l -0.307213,-0.22624 v 0 l -0.259322,-0.26332 v 0 L 44.219,316.93118 v 0 l -0.19576,-0.33499 v 0 l -0.181284,-0.37196 v 0 l -0.175561,-0.41127 v 0 l -0.175643,-0.45381 v 0 l -0.178719,-0.50013 v 0 l -0.182483,-0.54981 v 0 l -0.185309,-0.60455 v 0 l -0.186157,-0.66189 v 0 l -0.184544,-0.72148 v 0 l -0.180442,-0.78202 v 0 l -0.174206,-0.84196 v 0 l -0.166403,-0.89978 v 0 l -0.157575,-0.95409 v 0 l -0.148113,-1.00379 v 0 l -0.138342,-1.04798 v 0 l -0.128548,-1.08596 v 0 l -0.118959,-1.11725 v 0 l -0.109738,-1.14155 v 0 l -0.193592,-2.32789 v 0 l -0.161918,-2.34345 v 0 l -0.131921,-2.31445 v 0 l -0.05426,-1.13645 v 0 l -0.04565,-1.11959 v 0 l -0.03611,-1.10176 v 0 l -0.02543,-1.08382 v 0 l -0.01345,-1.06651 v 0 l -7.7e-5,-1.05037 v 0 l 0.01477,-1.03587 v 0 l 0.03112,-1.02328 v 0 l 0.04894,-1.01274 v 0 l 0.06816,-1.00426 v 0 l 0.08867,-0.99769 v 0 l 0.110315,-0.99277 v 0 l 0.132883,-0.98903 v 0 l 0.156129,-0.98592 v 0 l 0.179762,-0.98275 v 0 l 0.203505,-0.97881 v 0 l 0.227092,-0.97355 v 0 l 0.250316,-0.96653 v 0 l 0.272988,-0.95738 v 0 l 0.294962,-0.94593 v 0 l 0.316128,-0.93204 v 0 l 0.336405,-0.91581 v 0 l 0.355762,-0.89734 v 0 l 0.374182,-0.87692 v 0 l 0.391702,-0.85493 v 0 l 0.408388,-0.83193 v 0 l 0.424343,-0.80851 v 0 l 0.439691,-0.78543 v 0 l 0.454555,-0.76337 v 0 l 0.469026,-0.74292 v 0 l 0.483146,-0.72449 v 0 l 0.496919,-0.70833 v 0 l 0.510301,-0.69455 v 0 l 0.523219,-0.68311 v 0 l 1.082701,-1.34019 v 0 l 1.125032,-1.31495 v 0 l 1.156663,-1.29164 v 0 l 1.173514,-1.25757 v 0 l 1.174133,-1.20356 v 0 l 0.582804,-0.5744 v 0 l 0.578213,-0.55257 v 0 l 0.572928,-0.52854 v 0 l 0.567606,-0.50296 v 0 l 0.563032,-0.4767 v 0 l 0.560092,-0.4508 v 0 l 0.559723,-0.42639 v 0 l 0.562799,-0.40457 v 0 l 0.569991,-0.38623 v 0 l 0.581751,-0.37199 v 0 l 0.598337,-0.3623 v 0 l 0.619815,-0.35736 v 0 l 0.646062,-0.35718 v 0 l 0.67674,-0.36153 v 0 l 0.711326,-0.36999 v 0 l 0.749092,-0.3819 v 0 l 0.789199,-0.39651 v 0 l 0.830835,-0.41305 v 0 l 0.873224,-0.43088 v 0 l 0.915673,-0.44938 v 0 l 0.957534,-0.46803 v 0 l 0.998227,-0.4864 v 0 l 1.037216,-0.50411 v 0 l 1.07405,-0.52084 v 0 l 1.108304,-0.53638 v 0 l 1.139647,-0.55059 v 0 l 1.167775,-0.56336 v 0 l 1.192464,-0.57471 v 0 l 1.213543,-0.5847 v 0 l 1.230903,-0.59346 v 0 l 2.498768,-1.2095 v 0 l 2.522971,-1.2359 v 0 l 2.517729,-1.26116 v 0 l 2.48436,-1.28831 v 0 l 1.221392,-0.6556 v 0 l 1.203427,-0.66412 v 0 l 1.182594,-0.67343 v 0 l 1.159113,-0.68358 v 0 l 1.13318,-0.69461 v 0 l 1.10508,-0.70651 v 0 l 1.07503,-0.7193 v 0 l 1.04334,-0.73294 v 0 l 1.0103,-0.74736 v 0 l 0.97625,-0.76251 v 0 l 0.941523,-0.77826 v 0 l 0.90646,-0.79453 v 0 l 0.87137,-0.8112 v 0 l 0.8366,-0.82818 v 0 l 0.80233,-0.84539 v 0 l 0.76884,-0.86277 v 0 l 0.73627,-0.88025 v 0 l 0.7048,-0.8978 v 0 l 0.67451,-0.9154 v 0 l 0.64552,-0.93303 v 0 l 0.61783,-0.95068 v 0 l 0.59149,-0.96838 v 0 l 0.56644,-0.98614 v 0 l 0.54262,-1.00399 v 0 l 0.51996,-1.022 v 0 l 0.49831,-1.04022 v 0 l 0.4775,-1.05874 v 0 l 0.45737,-1.07759 v 0 l 0.4378,-1.09681 v 0 l 0.41859,-1.11639 v 0 l 0.39966,-1.13631 v 0 l 0.38089,-1.15648 v 0 l 0.36218,-1.17681 v 0 l 0.34344,-1.19718 v 0 l 0.32459,-1.21742 v 0 l 0.30561,-1.23735 v 0 l 0.28641,-1.25673 v 0 l 0.26699,-1.27533 v 0 l 0.24732,-1.29284 v 0 l 0.22742,-1.30898 v 0 l 0.20727,-1.32337 v 0 l 0.18692,-1.33564 v 0 l 0.16639,-1.34541 v 0 l 0.14573,-1.35223 v 0 l 0.12498,-1.35581 v 0 l 0.10415,-1.3558 v 0 l 0.0833,-1.35206 v 0 l 0.0623,-1.34444 v 0 l 0.0412,-1.33289 v 0 l 0.02,-1.31743 v 0 l -0.001,-1.29815 v 0 l -0.023,-1.27524 v 0 l -0.045,-1.24893 v 0 l -0.0674,-1.21954 v 0 l -0.0903,-1.18747 v 0 l -0.11387,-1.15319 v 0 l -0.13822,-1.11724 v 0 l -0.1635,-1.08023 v 0 l -0.18989,-1.04286 v 0 l -0.21754,-1.00589 v 0 l -0.24663,-0.97008 v 0 l -0.27725,-0.93609 v 0 l -0.30945,-0.90447 v 0 l -0.34321,-0.87564 v 0 l -0.37843,-0.84993 v 0 l -0.41499,-0.82751 v 0 l -0.45265,-0.80844 v 0 l -0.49114,-0.7927 v 0 l -0.53013,-0.78011 v 0 l -0.56923,-0.7704 v 0 l -0.60795,-0.76314 v 0 l -0.64576,-0.75781 v 0 l -0.6821,-0.7538 v 0 l -0.71641,-0.75048 v 0 l -0.74819,-0.74728 v 0 l -0.77703,-0.74369 v 0 l -0.80266,-0.73929 v 0 l -0.82483,-0.73378 v 0 l -0.84341,-0.72688 v 0 l -0.85835,-0.71843 v 0 l -1.74721,-1.40482 v 0 l -1.76583,-1.35122 v 0 l -0.88272,-0.65195 v 0 l -0.879623,-0.63475 v 0 l -0.87493,-0.61693 v 0 l -0.86928,-0.5989 v 0 l -0.86318,-0.58107 v 0 l -0.85711,-0.5638 v 0 l -1.69778,-1.07974 v 0 l -1.681051,-1.02532 v 0 l -1.671645,-0.9854 v 0 l -3.334943,-1.92174 v 0 L 85.6742,147.9485 v 0 l -1.641209,-1.00975 v 0 l -0.80801,-0.52362 v 0 l -0.79621,-0.5389 v 0 l -0.78169,-0.55605 v 0 l -0.764411,-0.57489 v 0 l -0.744412,-0.59517 v 0 l -0.721797,-0.61667 v 0 l -0.696756,-0.6391 v 0 l -0.66956,-0.66214 v 0 l -0.640562,-0.68546 v 0 l -0.610137,-0.70873 v 0 l -0.578688,-0.73158 v 0 l -0.546568,-0.75375 v 0 l -0.514099,-0.77497 v 0 l -0.481564,-0.79505 v 0 l -0.449198,-0.8138 v 0 l -0.417217,-0.8311 v 0 l -0.385784,-0.84686 v 0 l -0.35504,-0.86101 v 0 l -0.325071,-0.87357 v 0 l -0.295937,-0.88455 v 0 l -0.267667,-0.89403 v 0 l -0.240239,-0.9021 v 0 l -0.213622,-0.90888 v 0 l -0.187784,-0.91445 v 0 l -0.16268,-0.91883 v 0 l -0.138274,-0.92205 v 0 l -0.114528,-0.92405 v 0 l -0.0914,-0.92481 v 0 l -0.06883,-0.92418 v 0 l -0.04679,-0.92206 v 0 l -0.02523,-0.91827 v 0 l -0.0041,-0.9126 v 0 l 0.01667,-0.90483 v 0 l 0.0371,-0.89465 v 0 l 0.05727,-0.88181 v 0 l 0.07722,-0.86603 v 0 l 0.09702,-0.8471 v 0 l 0.116734,-0.82484 v 0 l 0.136414,-0.79908 v 0 l 0.156138,-0.76976 v 0 l 0.175972,-0.7368 v 0 l 0.195985,-0.70015 v 0 l 0.216252,-0.65988 v 0 l 0.236854,-0.61598 v 0 l 0.257865,-0.56861 v 0 l 0.279363,-0.51786 v 0 l 0.301408,-0.46393 v 0 l 0.324054,-0.40707 v 0 l 0.347326,-0.34753 v 0 l 0.371256,-0.28568 v 0 l 0.194806,-0.11902 v 0 l 0.201036,-0.10285 v 0 l 0.207351,-0.0865 v 0 l 0.213744,-0.07 v 0 l 0.220209,-0.0534 v 0 l 0.226749,-0.0367 v 0 l 0.23334,-0.0201 v 0 l 0.239981,-0.003 v 0 l 0.246648,0.0132 v 0 l 0.253335,0.0297 v 0 l 0.260014,0.046 v 0 l 0.266666,0.0621 v 0 l 0.553048,0.17089 v 0 l 0.578631,0.23027 v 0 l 0.602895,0.28487 v 0 l 0.625342,0.33349 v 0 l 0.645543,0.37502 v 0 l 0.663179,0.40867 v 0 l 0.678059,0.43384 v 0 l 0.690117,0.45023 v 0 l 1.405446,0.91427 v 0 l 0.710379,0.44704 v 0 l 0.712769,0.4299 v 0 l 0.713747,0.40604 v 0 l 0.713899,0.37652 v 0 l 0.713829,0.3425 v 0 l 0.714036,0.30504 v 0 l 0.714938,0.26515 v 0 l 0.716847,0.22373 v 0 l 0.72,0.18161 v 0 l 0.724547,0.13959 v 0 l 0.730548,0.0983 v 0 l 0.737966,0.0585 v 0 l 0.746668,0.0205 v 0 l 0.756464,-0.015 v 0 l 0.76712,-0.0478 v 0 l 0.77846,-0.0775 v 0 l 0.79029,-0.104 v 0 l 0.80246,-0.12714 v 0 l 0.81487,-0.14698 v 0 l 0.82747,-0.16361 v 0 l 1.693127,-0.36542 v 0 l 1.74477,-0.40041 v 0 l 1.79788,-0.42338 v 0 l 1.85298,-0.44281 v 0 l 1.90911,-0.46485 v 0 l 1.96358,-0.49242 v 0 l 2.01188,-0.52533 v 0 l 2.04773,-0.56019 v 0 l 2.06307,-0.59051 v 0 l 2.04873,-0.60726 v 0 l 1.00782,-0.3034 v 0 l 0.99052,-0.29914 v 0 l 0.96867,-0.29161 v 0 l 0.94261,-0.28086 v 0 l 0.91289,-0.26707 v 0 l 0.88026,-0.25052 v 0 l 0.84561,-0.23166 v 0 l 0.81006,-0.21104 v 0 l 0.77495,-0.1894 v 0 l 0.74181,-0.16761 v 0 l 0.71224,-0.14658 v 0 l 0.68787,-0.12729 v 0 l 0.66993,-0.1105 v 0 l 0.65915,-0.0967 v 0 l 1.31537,-0.16509 v 0 l 1.35568,-0.14758 v 0 l 0.70519,-0.073 v 0 l 0.72633,-0.0739 v 0 l 0.74684,-0.0745 v 0 l 0.7646,-0.0738 v 0 l 1.56369,-0.1368 v 0 l 1.56973,-0.10338 v 0 l 0.77125,-0.0316 v 0 l 0.75447,-0.0146 v 0 l 0.73326,0.004 v 0 l 0.70929,0.0248 v 0 l 0.68449,0.0455 v 0 l 0.66069,0.0658 v 0 l 0.63948,0.0848 v 0 l 0.62207,0.10212 v 0 l 1.21036,0.24855 v 0 l 1.19753,0.29584 v 0 l 1.21687,0.3353 v 0 l 1.25327,0.37787 v 0 l 0.64121,0.2085 v 0 l 0.64965,0.22423 v 0 l 0.6562,0.24226 v 0 l 0.6602,0.2626 v 0 l 0.66107,0.28517 v 0 l 0.65834,0.30976 v 0 l 0.65159,0.33601 v 0 l 0.64059,0.36354 v 0 l 0.62524,0.39193 v 0 l 0.6056,0.42076 v 0 l 0.58194,0.44956 v 0 l 0.55458,0.47785 v 0 l 0.52412,0.50516 v 0 l 0.49122,0.53097 v 0 l 0.45679,0.55472 v 0 l 0.42184,0.57588 v 0 l 0.38745,0.5939 v 0 l 0.35454,0.60838 v 0 l 0.32393,0.61899 v 0 l 0.29619,0.62558 v 0 l 0.27165,0.62809 v 0 l 0.25054,0.62665 v 0 l 0.45117,1.23433 v 0 l 0.40374,1.18902 v 0 l 0.18938,0.57208 v 0 l 0.18286,0.55529 v 0 l 0.17712,0.53768 v 0 l 0.17189,0.51954 v 0 l 0.16694,0.50114 v 0 l 0.16207,0.48264 v 0 z"
       fill="none"
       stroke="#000000"
       id="path108"
       style="fill:none;stroke:#ff0000;stroke-width:0.02834646;stroke-dasharray:none;stroke-opacity:1" />
    <path
       d="m 148.85492,145.287 v 13.88976 0 h 8.22047 v 0 -13.88976 0 z"
       fill="none"
       stroke="#000000"
       id="path110"
       style="fill:none;stroke:#ff0000;stroke-width:0.02834646;stroke-dasharray:none;stroke-opacity:1" />
    <path
       d="M 85.358859,134.7988 H 99.24862 v 0 -8.22047 0 H 85.358859 v 0 z"
       fill="none"
       stroke="#000000"
       id="path112"
       style="fill:none;stroke:#ff0000;stroke-width:0.02834646;stroke-dasharray:none;stroke-opacity:1" />
    <path
       d="m 134.39823,276.81455 v -8.22047 0 h -13.88976 v 0 8.22047 0 z"
       fill="none"
       stroke="#000000"
       id="path114"
       style="fill:none;stroke:#ff0000;stroke-width:0.02834646;stroke-dasharray:none;stroke-opacity:1" />
    <path
       d="m 99.24862,276.81455 v -8.22047 0 H 85.358859 v 0 8.22047 0 z"
       fill="none"
       stroke="#000000"
       id="path116"
       style="fill:none;stroke:#ff0000;stroke-width:0.02834646;stroke-dasharray:none;stroke-opacity:1" />
    <path
       d="m 155.65807,126.57833 h -13.88976 v 0 8.22047 0 h 13.88976 v 0 z"
       fill="none"
       stroke="#000000"
       id="path118"
       style="fill:none;stroke:#ff0000;stroke-width:0.02834646;stroke-dasharray:none;stroke-opacity:1" />
    <path
       d="m 148.85492,243.93266 h 8.22047 v 0 -13.88976 0 h -8.22047 v 0 z"
       fill="none"
       stroke="#000000"
       id="path120"
       style="fill:none;stroke:#ff0000;stroke-width:0.02834646;stroke-dasharray:none;stroke-opacity:1" />
    <path
       d="m 278.64963,268.70622 -0.30082,0.98341 v 0 l -0.351,0.94435 v 0 l -0.40072,0.90561 v 0 l -0.44884,0.86803 v 0 l -0.4936,0.8329 v 0 l -0.53255,0.80203 v 0 l -0.56373,0.77729 v 0 l -0.58726,0.76 v 0 l -0.60573,0.75078 v 0 l -0.62427,0.74951 v 0 l -0.64997,0.75541 v 0 l -0.68889,0.76716 v 0 l -0.74355,0.78298 v 0 l -0.39696,0.39811 v 0 l -0.41575,0.40258 v 0 l -0.43555,0.40687 v 0 l -0.45577,0.41077 v 0 l -0.47585,0.41412 v 0 l -0.49527,0.41671 v 0 l -1.04388,0.83754 v 0 l -1.10383,0.83566 v 0 l -1.14795,0.82388 v 0 l -1.17586,0.80154 v 0 l -1.18993,0.76874 v 0 l -1.19475,0.72619 v 0 l -1.19534,0.67496 v 0 l -1.19557,0.61611 v 0 l -0.59852,0.28394 v 0 l -0.59959,0.26691 v 0 l -0.60116,0.24928 v 0 l -0.60325,0.2311 v 0 l -0.60584,0.21248 v 0 l -0.60887,0.19351 v 0 l -0.61226,0.17425 v 0 l -0.61596,0.15479 v 0 l -0.61986,0.1352 v 0 l -0.62396,0.1155 v 0 l -0.62817,0.0958 v 0 l -0.63248,0.076 v 0 l -0.63683,0.0563 v 0 l -0.64121,0.0366 v 0 l -0.6456,0.0169 v 0 l -0.64999,-0.003 v 0 l -1.90078,-0.032 v 0 l -1.84439,-0.0324 v 0 l -1.78802,-0.0327 v 0 l -1.73176,-0.0331 v 0 l -1.6757,-0.0334 v 0 l -1.61992,-0.0337 v 0 l -1.56462,-0.0341 v 0 l -1.50997,-0.0345 v 0 l -1.45617,-0.0348 v 0 l -1.40347,-0.0352 v 0 l -1.35214,-0.0357 v 0 l -1.30251,-0.0361 v 0 l -1.25489,-0.0366 v 0 l -1.20965,-0.0371 v 0 l -1.1672,-0.0377 v 0 l -1.12796,-0.0384 v 0 l -1.0924,-0.0391 v 0 l -1.06098,-0.0399 v 0 l -1.03424,-0.0407 v 0 l -1.01275,-0.0417 v 0 l -3.9567,-0.17848 v 0 l -2.01179,-0.0975 v 0 l -1.03613,-0.051 v 0 l -1.0636,-0.0525 v 0 l -1.09573,-0.0539 v 0 l -1.13163,-0.0552 v 0 l -1.17031,-0.0562 v 0 l -1.2106,-0.0571 v 0 l -1.25112,-0.0576 v 0 l -1.29034,-0.0577 v 0 l -1.32671,-0.0572 v 0 l -1.35865,-0.0562 v 0 l -1.38478,-0.0545 v 0 l -1.40401,-0.052 v 0 l -2.83402,-0.0931 v 0 l -2.81087,-0.0721 v 0 l -1.37442,-0.0255 v 0 l -1.34216,-0.0169 v 0 l -1.3018,-0.007 v 0 l -1.25412,0.004 v 0 l -1.20011,0.0166 v 0 l -1.14104,0.0305 v 0 l -1.07833,0.0458 v 0 l -1.01366,0.0626 v 0 l -0.94905,0.0809 v 0 l -0.88661,0.10065 v 0 l -0.82836,0.12199 v 0 l -0.77594,0.14489 v 0 l -0.7306,0.16934 v 0 l -0.69306,0.19529 v 0 l -0.66353,0.22273 v 0 l -0.64191,0.25159 v 0 l -0.62752,0.28181 v 0 l -0.61925,0.3133 v 0 l -0.61549,0.34596 v 0 l -0.6143,0.37967 v 0 l -0.6136,0.4143 v 0 l -0.61143,0.44963 v 0 l -0.60633,0.48545 v 0 l -0.59716,0.52144 v 0 l -0.5832,0.55725 v 0 l -0.56405,0.5925 v 0 l -0.53966,0.62672 v 0 l -0.51034,0.65943 v 0 l -0.47681,0.69007 v 0 l -0.44021,0.71802 v 0 l -0.40183,0.74265 v 0 l -0.36301,0.76346 v 0 l -0.32493,0.78008 v 0 l -0.2886,0.79229 v 0 l -0.25475,0.80011 v 0 l -0.22397,0.80366 v 0 l -0.19661,0.8033 v 0 l -0.17283,0.79954 v 0 l -0.15264,0.79302 v 0 l -0.13579,0.7846 v 0 l -0.23199,1.54165 v 0 l -0.19174,1.51133 v 0 l -0.16019,1.49676 v 0 l -0.13375,1.49682 v 0 l -0.11289,1.49913 v 0 l -0.10227,1.47942 v 0 l -0.0524,0.71696 v 0 l -0.0568,0.6905 v 0 l -0.0639,0.65515 v 0 l -0.0737,0.6117 v 0 l -0.0856,0.56176 v 0 l -0.0991,0.5078 v 0 l -0.11316,0.45347 v 0 l -0.12668,0.40336 v 0 l -0.1387,0.36171 v 0 l -0.14887,0.33153 v 0 l -0.32569,0.61935 v 0 l -0.18196,0.303 v 0 l -0.20362,0.29942 v 0 l -0.23559,0.28872 v 0 l -0.2782,0.26668 v 0 l -0.32893,0.23193 v 0 l -0.1846,0.0992 v 0 l -0.19772,0.0864 v 0 l -0.20991,0.0727 v 0 l -0.22068,0.0583 v 0 l -0.46591,0.0723 v 0 l -0.48269,0.0133 v 0 l -0.47829,-0.0434 v 0 l -0.45343,-0.0959 v 0 l -0.41202,-0.14362 v 0 l -0.36056,-0.18674 v 0 l -0.30721,-0.22625 v 0 l -0.25933,-0.26332 v 0 l -0.22154,-0.29918 v 0 l -0.19576,-0.33499 v 0 l -0.18128,-0.37197 v 0 l -0.17556,-0.41127 v 0 l -0.17564,-0.4538 v 0 l -0.17872,-0.50013 v 0 l -0.18249,-0.55044 v 0 l -0.18531,-0.60454 v 0 l -0.18616,-0.6619 v 0 l -0.18454,-0.72148 v 0 l -0.18044,-0.78201 v 0 l -0.17421,-0.84197 v 0 l -0.1664,-0.89978 v 0 l -0.15757,-0.95409 v 0 l -0.14812,-1.00378 v 0 l -0.13834,-1.04798 v 0 l -0.12855,-1.08597 v 0 l -0.11896,-1.11725 v 0 l -0.10973,-1.14154 v 0 l -0.1936,-2.32789 v 0 l -0.16191,-2.34346 v 0 l -0.13193,-2.31444 v 0 l -0.0543,-1.13646 v 0 l -0.0456,-1.11958 v 0 l -0.0361,-1.10176 v 0 l -0.0254,-1.08383 v 0 l -0.0134,-1.06651 v 0 l -8e-5,-1.05037 v 0 l 0.0148,-1.03587 v 0 l 0.0311,-1.02327 v 0 l 0.0489,-1.01274 v 0 l 0.0682,-1.00427 v 0 l 0.0887,-0.99769 v 0 l 0.11032,-0.99277 v 0 l 0.13288,-0.98903 v 0 l 0.15613,-0.98592 v 0 l 0.17976,-0.98274 v 0 l 0.2035,-0.97881 v 0 l 0.2271,-0.97356 v 0 l 0.25031,-0.96653 v 0 l 0.27299,-0.95738 v 0 l 0.29496,-0.94592 v 0 l 0.31613,-0.93205 v 0 l 0.3364,-0.91581 v 0 l 0.35577,-0.89734 v 0 l 0.37418,-0.87692 v 0 l 0.3917,-0.85493 v 0 l 0.40839,-0.83192 v 0 l 0.42434,-0.80852 v 0 l 0.43969,-0.78543 v 0 l 0.45456,-0.76337 v 0 l 0.46902,-0.74292 v 0 l 0.48315,-0.72449 v 0 l 0.49692,-0.70833 v 0 l 0.5103,-0.69454 v 0 l 0.52322,-0.68311 v 0 l 1.0827,-1.3402 v 0 l 1.12503,-1.31494 v 0 l 1.15666,-1.29165 v 0 l 1.17352,-1.25757 v 0 l 1.17413,-1.20356 v 0 l 0.58281,-0.57439 v 0 l 0.57821,-0.55257 v 0 l 0.57293,-0.52854 v 0 l 0.5676,-0.50297 v 0 l 0.56303,-0.4767 v 0 l 0.5601,-0.4508 v 0 l 0.55972,-0.42639 v 0 l 0.5628,-0.40457 v 0 l 0.56999,-0.38622 v 0 l 0.58175,-0.372 v 0 l 0.59834,-0.3623 v 0 l 0.61981,-0.35736 v 0 l 0.64606,-0.35717 v 0 l 0.67674,-0.36153 v 0 l 0.71133,-0.36999 v 0 l 0.74909,-0.38191 v 0 l 0.7892,-0.39651 v 0 l 0.83084,-0.41305 v 0 l 0.87322,-0.43087 v 0 l 0.91567,-0.44938 v 0 l 0.95754,-0.46804 v 0 l 0.99822,-0.4864 v 0 l 1.03722,-0.5041 v 0 l 1.07405,-0.52084 v 0 l 1.10831,-0.53639 v 0 l 1.13964,-0.55059 v 0 l 1.16778,-0.56336 v 0 l 1.19246,-0.57471 v 0 l 1.21354,-0.58469 v 0 l 1.23091,-0.59347 v 0 l 2.49877,-1.2095 v 0 l 2.52297,-1.2359 v 0 l 2.51773,-1.26116 v 0 l 2.48436,-1.28831 v 0 l 1.22139,-0.65559 v 0 l 1.20342,-0.66413 v 0 l 1.1826,-0.67343 v 0 l 1.15911,-0.68358 v 0 l 1.13318,-0.6946 v 0 l 1.10508,-0.70652 v 0 l 1.07503,-0.7193 v 0 l 1.04334,-0.73293 v 0 l 1.0103,-0.74737 v 0 l 0.97625,-0.7625 v 0 l 0.94152,-0.77827 v 0 l 0.90646,-0.79453 v 0 l 0.87138,-0.8112 v 0 l 0.83659,-0.82818 v 0 l 0.80233,-0.84539 v 0 l 0.76884,-0.86276 v 0 l 0.73627,-0.88025 v 0 l 0.7048,-0.89781 v 0 l 0.67451,-0.9154 v 0 l 0.64552,-0.93303 v 0 l 0.61783,-0.95068 v 0 l 0.59149,-0.96838 v 0 l 0.56644,-0.98613 v 0 l 0.54262,-1.004 v 0 l 0.51996,-1.02199 v 0 l 0.49831,-1.04023 v 0 l 0.4775,-1.05874 v 0 l 0.45738,-1.07759 v 0 l 0.43779,-1.09681 v 0 l 0.41859,-1.11639 v 0 l 0.39966,-1.13631 v 0 l 0.3809,-1.15648 v 0 l 0.36217,-1.17681 v 0 l 0.34344,-1.19718 v 0 l 0.32459,-1.21742 v 0 l 0.30561,-1.23734 v 0 l 0.28641,-1.25674 v 0 l 0.26699,-1.27533 v 0 l 0.24732,-1.29284 v 0 l 0.22742,-1.30897 v 0 l 0.20727,-1.32338 v 0 l 0.18692,-1.33564 v 0 l 0.16639,-1.3454 v 0 l 0.14573,-1.35224 v 0 l 0.12498,-1.3558 v 0 l 0.10416,-1.35581 v 0 l 0.0833,-1.35206 v 0 l 0.0623,-1.34444 v 0 l 0.0412,-1.33289 v 0 l 0.02,-1.31742 v 0 l -0.001,-1.29816 v 0 l -0.023,-1.27523 v 0 l -0.045,-1.24894 v 0 l -0.0674,-1.21954 v 0 l -0.0903,-1.18747 v 0 l -0.11387,-1.15319 v 0 l -0.13822,-1.11724 v 0 l -0.1635,-1.08023 v 0 l -0.18989,-1.04286 v 0 l -0.21754,-1.00589 v 0 l -0.24707,-0.96953 v 0 l -0.27725,-0.93609 v 0 l -0.30945,-0.90447 v 0 l -0.34321,-0.87565 v 0 l -0.37843,-0.84993 v 0 l -0.41499,-0.8275 v 0 l -0.45264,-0.80845 v 0 l -0.49115,-0.7927 v 0 l -0.53013,-0.78011 v 0 l -0.56923,-0.77039 v 0 l -0.60795,-0.76314 v 0 l -0.64576,-0.75781 v 0 l -0.6821,-0.75381 v 0 l -0.71641,-0.75048 v 0 l -0.74819,-0.74728 v 0 l -0.77703,-0.74368 v 0 l -0.80266,-0.7393 v 0 l -0.82483,-0.73377 v 0 l -0.84341,-0.72689 v 0 l -0.85835,-0.71843 v 0 l -1.74721,-1.40481 v 0 l -1.76583,-1.35123 v 0 l -0.88272,-0.65194 v 0 l -0.87962,-0.63475 v 0 l -0.87493,-0.61693 v 0 l -0.86928,-0.59891 v 0 l -0.86318,-0.58106 v 0 l -0.85711,-0.56381 v 0 l -1.69777,-1.07974 v 0 l -1.68106,-1.02532 v 0 l -1.67164,-0.9854 v 0 l -3.33495,-1.92174 v 0 l -1.66018,-0.97479 v 0 l -1.64121,-1.00974 v 0 l -0.80801,-0.52363 v 0 l -0.79621,-0.5389 v 0 l -0.78169,-0.55605 v 0 l -0.76441,-0.57488 v 0 l -0.74441,-0.59518 v 0 l -0.7218,-0.61667 v 0 l -0.69675,-0.63909 v 0 l -0.66956,-0.66215 v 0 l -0.64057,-0.68546 v 0 l -0.61013,-0.70872 v 0 l -0.57869,-0.73158 v 0 l -0.54657,-0.75375 v 0 l -0.5141,-0.77498 v 0 l -0.48156,-0.79505 v 0 l -0.4492,-0.8138 v 0 l -0.41722,-0.8311 v 0 l -0.38578,-0.84685 v 0 l -0.35504,-0.86102 v 0 l -0.32507,-0.87357 v 0 l -0.29594,-0.88455 v 0 l -0.26767,-0.89403 v 0 l -0.24024,-0.9021 v 0 l -0.21362,-0.90888 v 0 l -0.18778,-0.91444 v 0 l -0.16268,-0.91884 v 0 l -0.13828,-0.92204 v 0 l -0.11452,-0.92406 v 0 l -0.0914,-0.9248 v 0 l -0.0688,-0.92419 v 0 l -0.0468,-0.92206 v 0 l -0.0252,-0.91826 v 0 l -0.004,-0.91261 v 0 l 0.0167,-0.90482 v 0 l 0.0371,-0.89466 v 0 l 0.0573,-0.88181 v 0 l 0.0772,-0.86603 v 0 l 0.097,-0.8471 v 0 l 0.11674,-0.82484 v 0 l 0.13641,-0.79908 v 0 l 0.15614,-0.76976 v 0 l 0.17597,-0.7368 v 0 l 0.19599,-0.70015 v 0 l 0.21625,-0.65987 v 0 l 0.23685,-0.61599 v 0 l 0.25787,-0.56861 v 0 l 0.27936,-0.51785 v 0 l 0.30141,-0.46394 v 0 l 0.32405,-0.40706 v 0 l 0.34733,-0.34754 v 0 l 0.37126,-0.28568 v 0 l 0.1948,-0.11902 v 0 l 0.20104,-0.10285 v 0 l 0.20735,-0.0865 v 0 l 0.21374,-0.07 v 0 l 0.22021,-0.0534 v 0 l 0.22675,-0.0368 v 0 l 0.23334,-0.0201 v 0 l 0.23998,-0.003 v 0 l 0.24665,0.0132 v 0 l 0.25333,0.0297 v 0 l 0.26002,0.046 v 0 l 0.26666,0.062 v 0 l 0.55305,0.17089 v 0 l 0.57863,0.23027 v 0 l 0.6029,0.28488 v 0 l 0.62534,0.33348 v 0 l 0.64554,0.37502 v 0 l 0.66318,0.40868 v 0 l 0.67806,0.43384 v 0 l 0.69012,0.45022 v 0 l 1.40544,0.91427 v 0 l 0.71038,0.44704 v 0 l 0.71277,0.42991 v 0 l 0.71375,0.40603 v 0 l 0.7139,0.37652 v 0 l 0.71383,0.3425 v 0 l 0.71403,0.30505 v 0 l 0.71494,0.26515 v 0 l 0.71685,0.22372 v 0 l 0.72,0.18162 v 0 l 0.72455,0.13958 v 0 l 0.73054,0.0983 v 0 l 0.73797,0.0584 v 0 l 0.74667,0.0205 v 0 l 0.75646,-0.015 v 0 l 0.76713,-0.0478 v 0 l 0.77845,-0.0775 v 0 l 0.79029,-0.10399 v 0 l 0.80246,-0.12715 v 0 l 0.81487,-0.14698 v 0 l 0.82747,-0.16361 v 0 l 1.69313,-0.36542 v 0 l 1.74477,-0.4004 v 0 l 1.79789,-0.42339 v 0 l 1.85297,-0.44281 v 0 l 1.90911,-0.46485 v 0 l 1.96358,-0.49242 v 0 l 2.01188,-0.52532 v 0 l 2.04773,-0.56019 v 0 l 2.06307,-0.59052 v 0 l 2.04873,-0.60725 v 0 l 1.00782,-0.30341 v 0 l 0.99052,-0.29913 v 0 l 0.96867,-0.29161 v 0 l 0.94261,-0.28087 v 0 l 0.91289,-0.26707 v 0 l 0.88026,-0.25052 v 0 l 0.84561,-0.23165 v 0 l 0.81006,-0.21104 v 0 l 0.77495,-0.18941 v 0 l 0.74181,-0.1676 v 0 l 0.71225,-0.14659 v 0 l 0.68786,-0.12729 v 0 l 0.66993,-0.1105 v 0 l 0.65915,-0.0967 v 0 l 1.31537,-0.16509 v 0 l 1.35569,-0.14758 v 0 l 0.70518,-0.073 v 0 l 0.72633,-0.0739 v 0 l 0.74684,-0.0745 v 0 l 0.7646,-0.0738 v 0 l 1.56369,-0.13681 v 0 l 1.56973,-0.10338 v 0 l 0.77125,-0.0316 v 0 l 0.75447,-0.0146 v 0 l 0.73326,0.004 v 0 l 0.70929,0.0248 v 0 l 0.68449,0.0456 v 0 l 0.66069,0.0658 v 0 l 0.63948,0.0848 v 0 l 0.62208,0.10213 v 0 l 1.21035,0.24854 v 0 l 1.19753,0.29584 v 0 l 1.21688,0.33531 v 0 l 1.25326,0.37787 v 0 l 0.64121,0.20849 v 0 l 0.64965,0.22424 v 0 l 0.6562,0.24225 v 0 l 0.6602,0.2626 v 0 l 0.66108,0.28517 v 0 l 0.65833,0.30976 v 0 l 0.65159,0.33601 v 0 l 0.64059,0.36354 v 0 l 0.62524,0.39193 v 0 l 0.60561,0.42076 v 0 l 0.58193,0.44956 v 0 l 0.55459,0.47785 v 0 l 0.52411,0.50516 v 0 l 0.49122,0.53097 v 0 l 0.45679,0.55472 v 0 l 0.42184,0.57588 v 0 l 0.38745,0.5939 v 0 l 0.35454,0.60838 v 0 l 0.32393,0.61899 v 0 l 0.29619,0.62558 v 0 l 0.27165,0.6281 v 0 l 0.25054,0.62665 v 0 l 0.45117,1.23432 v 0 l 0.40374,1.18903 v 0 l 0.18939,0.57207 v 0 l 0.18285,0.5553 v 0 l 0.17712,0.53767 v 0 l 0.17189,0.51954 v 0 l 0.16694,0.50114 v 0 l 0.16207,0.48264 v 0 z"
       fill="none"
       stroke="#000000"
       id="path122"
       style="fill:none;stroke:#ff0000;stroke-width:0.02834646;stroke-dasharray:none;stroke-opacity:1" />
    <path
       d="m 265.89372,148.51725 v 13.88976 0 h 8.22048 v 0 -13.88976 0 z"
       fill="none"
       stroke="#000000"
       id="path124"
       style="fill:none;stroke:#ff0000;stroke-width:0.02834646;stroke-dasharray:none;stroke-opacity:1" />
    <path
       d="m 202.39766,138.02906 h 13.88976 v 0 -8.22048 0 h -13.88976 v 0 z"
       fill="none"
       stroke="#000000"
       id="path126"
       style="fill:none;stroke:#ff0000;stroke-width:0.02834646;stroke-dasharray:none;stroke-opacity:1" />
    <path
       d="m 251.43703,280.04481 v -8.22047 0 h -13.88976 v 0 8.22047 0 z"
       fill="none"
       stroke="#000000"
       id="path128"
       style="fill:none;stroke:#ff0000;stroke-width:0.02834646;stroke-dasharray:none;stroke-opacity:1" />
    <path
       d="m 216.28742,280.0448 v -8.22047 0 h -13.88976 v 0 8.22047 0 z"
       fill="none"
       stroke="#000000"
       id="path130"
       style="fill:none;stroke:#ff0000;stroke-width:0.02834646;stroke-dasharray:none;stroke-opacity:1" />
    <path
       d="m 272.69687,129.80858 h -13.88976 v 0 8.22048 0 h 13.88976 v 0 z"
       fill="none"
       stroke="#000000"
       id="path132"
       style="fill:none;stroke:#ff0000;stroke-width:0.02834646;stroke-dasharray:none;stroke-opacity:1" />
    <path
       d="m 265.89372,247.16292 h 8.22048 v 0 -13.88977 0 h -8.22048 v 0 z"
       fill="none"
       stroke="#000000"
       id="path134"
       style="fill:none;stroke:#ff0000;stroke-width:0.02834646;stroke-dasharray:none;stroke-opacity:1" />
    <path
       d="m 297.94624,232.01576 h 14.17323 v 0 65.19685 0 l 0.0975,0.35629 v 0 l 0.12063,0.33081 v 0 l 0.1438,0.3052 v 0 l 0.16699,0.27942 v 0 l 0.19006,0.25346 v 0 l 0.21278,0.22738 v 0 l 0.23484,0.20127 v 0 l 0.25584,0.17529 v 0 l 0.27524,0.14965 v 0 l 0.29249,0.12457 v 0 l 0.30712,0.10023 v 0 l 0.31872,0.0767 v 0 l 0.32702,0.054 v 0 l 0.33188,0.0321 v 0 l 0.33323,0.0107 v 0 l 0.33112,-0.0103 v 0 l 0.32571,-0.0314 v 0 l 0.31722,-0.0528 v 0 l 0.30594,-0.0749 v 0 l 0.29212,-0.0979 v 0 l 0.27604,-0.12192 v 0 l 0.258,-0.14705 v 0 l 0.2383,-0.17323 v 0 l 0.21726,-0.20032 v 0 l 0.19523,-0.22808 v 0 l 0.17253,-0.25622 v 0 l 0.14946,-0.28453 v 0 l 0.12623,-0.31281 v 0 l 0.10297,-0.34098 v 0 l 0.0798,-0.36895 v 0 l 0.0568,-0.39675 v 0 l 0.0338,-0.42439 v 0 -248.056794 0 l -0.38793,-0.969267 v 0 l -0.43452,-0.985037 v 0 l -0.48098,-1.000653 v 0 l -0.52716,-1.015689 v 0 l -0.57261,-1.030249 v 0 l -0.61705,-1.043334 v 0 l -0.6599,-1.054468 v 0 L 314.8254,40.14878 v 0 l -0.73833,-1.067661 v 0 l -0.77233,-1.067799 v 0 l -0.80175,-1.062278 v 0 l -0.826,-1.050347 v 0 l -0.84477,-1.031638 v 0 l -0.85805,-1.006166 v 0 l -0.86616,-0.974293 v 0 l -0.86968,-0.936783 v 0 l -0.86952,-0.894761 v 0 l -0.86689,-0.84973 v 0 l -0.86329,-0.803555 v 0 l -0.86049,-0.758468 v 0 l -0.86032,-0.71665 v 0 l -0.86419,-0.679711 v 0 l -0.87313,-0.648587 v 0 l -0.88769,-0.623511 v 0 l -0.90796,-0.604018 v 0 l -0.93363,-0.588971 v 0 l -0.96395,-0.576547 v 0 l -0.99766,-0.564169 v 0 l -1.03323,-0.548932 v 0 l -1.06913,-0.528185 v 0 l -1.10393,-0.500102 v 0 l -1.13648,-0.46368 v 0 l -1.16579,-0.418714 v 0 l -1.19103,-0.365831 v 0 l -1.21162,-0.306454 v 0 l -1.2271,-0.242795 v 0 l -1.23726,-0.177974 v 0 l -1.24205,-0.11565 v 0 l -1.24148,-0.05936 v 0 l -1.23573,-0.01186 v 0 l -1.22489,0.02502 v 0 l -1.20925,0.05033 v 0 l -1.18903,0.06397 v 0 l -1.16456,0.06676 v 0 l -1.13624,0.06035 v 0 l -1.10447,0.04731 v 0 l -1.06977,0.03103 v 0 l -1.03282,0.01496 v 0 l -0.99465,0.0021 v 0 l -0.9566,-0.0051 v 0 l -0.92041,-0.0049 v 0 l -0.88809,0.004 v 0 l -0.86203,0.02204 v 0 l -0.84499,0.04929 v 0 l -0.8396,0.08523 v 0 l -0.84761,0.129099 v 0 l -0.86956,0.179954 v 0 l -0.44717,0.110937 v 0 l -0.45746,0.125756 v 0 l -0.46907,0.141117 v 0 l -0.48181,0.156915 v 0 l -0.4954,0.173061 v 0 l -0.50959,0.189448 v 0 l -0.52402,0.205976 v 0 l -0.5384,0.222531 v 0 l -0.55238,0.239009 v 0 l -0.56564,0.255314 v 0 l -0.57791,0.271338 v 0 l -0.58897,0.287008 v 0 l -1.20521,0.619183 v 0 l -1.23019,0.675626 v 0 l -1.23994,0.726664 v 0 l -1.23357,0.771489 v 0 l -1.2112,0.809487 v 0 l -1.17395,0.840237 v 0 l -1.12381,0.863524 v 0 l -1.06393,0.879324 v 0 l -0.99812,0.887822 v 0 l -0.93023,0.889487 v 0 l -0.86357,0.885089 v 0 l -0.80078,0.875739 v 0 l -0.74385,0.862846 v 0 l -0.69419,0.848168 v 0 l -0.65258,0.833775 v 0 l -0.6191,0.822035 v 0 l -0.59328,0.815684 v 0 l -0.57404,0.817602 v 0 l -0.56009,0.830228 v 0 l -0.55004,0.855165 v 0 l -0.54245,0.893095 v 0 l -0.53591,0.943815 v 0 l -0.26542,0.494643 v 0 l -0.26349,0.511568 v 0 l -0.26127,0.52964 v 0 l -0.25866,0.548676 v 0 l -0.25554,0.568457 v 0 l -0.25185,0.588745 v 0 l -0.24744,0.609299 v 0 l -0.24228,0.629875 v 0 l -0.23623,0.650231 v 0 l -0.22926,0.67015 v 0 l -0.22129,0.689428 v 0 l -0.21227,0.70787 v 0 l -0.20217,0.725315 v 0 l -0.19095,0.741598 v 0 l -0.17858,0.756575 v 0 l -0.16507,0.770114 v 0 l -0.15041,0.782104 v 0 l -0.13459,0.792439 v 0 l -0.11767,0.801037 v 0 l -0.0996,0.807829 v 0 l -0.0806,0.812758 v 0 l -0.0605,0.815777 v 0 l -0.0394,0.816866 v 0 l -0.0175,0.816009 v 0 l 0.005,0.813214 v 0 l 0.0287,0.80849 v 0 l 0.0528,0.801873 v 0 l 0.0773,0.793417 v 0 l 0.10232,0.783173 v 0 l 0.12754,0.771219 v 0 l 0.15293,0.75763 v 0 l 0.17832,0.742493 v 0 l 0.20363,0.725896 v 0 l 0.22872,0.70793 v 0 l 0.25349,0.688686 v 0 l 0.27785,0.668267 v 0 l 0.30167,0.646779 v 0 l 0.32486,0.624319 v 0 l 0.34731,0.601016 v 0 l 0.36896,0.576969 v 0 l 0.38966,0.552305 v 0 l 0.40938,0.527151 v 0 l 0.42801,0.501633 v 0 l 0.44545,0.47588 v 0 l 0.46165,0.450034 v 0 l 0.47652,0.424231 v 0 l 0.48999,0.39861 v 0 l 0.50199,0.373332 v 0 l 0.51246,0.348548 v 0 l 0.52131,0.324414 v 0 l 0.52853,0.301059 v 0 l 0.53406,0.278623 v 0 l 0.53789,0.257201 v 0 l 0.54002,0.236872 v 0 l 0.54048,0.217698 v 0 l 0.53929,0.199701 v 0 l 1.06877,0.350155 v 0 l 1.04614,0.292133 v 0 l 1.01363,0.242385 v 0 l 0.97363,0.199236 v 0 l 0.92908,0.160239 v 0 l 0.8834,0.122332 v 0 l 0.83959,0.08221 v 0 l 0.79893,0.03699 v 0 l 0.38505,-6.83e-4 v 0 l 0.37564,-0.01488 v 0 l 0.36612,-0.03025 v 0 l 0.35617,-0.04687 v 0 l 0.34546,-0.0648 v 0 l 0.33353,-0.08405 v 0 l 0.32,-0.104641 v 0 l 0.3044,-0.126521 v 0 l 0.28638,-0.149568 v 0 l 0.26572,-0.173559 v 0 l 0.2424,-0.198176 v 0 l 0.21648,-0.222982 v 0 l 0.18817,-0.247462 v 0 l 0.15781,-0.270989 v 0 l 0.1259,-0.29285 v 0 l 0.093,-0.312253 v 0 l 0.0598,-0.328309 v 0 l 0.0271,-0.340217 v 0 l -0.005,-0.347377 v 0 l -0.0347,-0.349407 v 0 l -0.0632,-0.346167 v 0 l -0.0897,-0.337688 v 0 l -0.11417,-0.324207 v 0 l -0.13671,-0.306176 v 0 l -0.15755,-0.284298 v 0 l -0.17705,-0.259526 v 0 l -0.19574,-0.23298 v 0 l -0.21404,-0.205767 v 0 l -0.23237,-0.178934 v 0 l -0.25108,-0.153419 v 0 l -0.27034,-0.130025 v 0 l -0.29025,-0.109367 v 0 l -0.31077,-0.09189 v 0 l -0.33171,-0.07787 v 0 l -0.35273,-0.06742 v 0 l -0.37343,-0.06051 v 0 l -0.39329,-0.057 v 0 l -0.41182,-0.05668 v 0 l -0.87151,-0.123772 v 0 l -0.91866,-0.153836 v 0 l -0.94257,-0.199636 v 0 l -0.94175,-0.256912 v 0 l -0.46301,-0.152309 v 0 l -0.45406,-0.168919 v 0 l -0.44266,-0.185715 v 0 l -0.42919,-0.202413 v 0 l -0.41409,-0.218727 v 0 l -0.39779,-0.234391 v 0 l -0.38072,-0.24916 v 0 l -0.36326,-0.262837 v 0 l -0.34567,-0.275247 v 0 l -0.32824,-0.286265 v 0 l -0.31114,-0.295792 v 0 l -0.2945,-0.303761 v 0 l -0.54133,-0.62513 v 0 l -0.48144,-0.638379 v 0 l -0.42458,-0.640585 v 0 l -0.36786,-0.634085 v 0 l -0.30884,-0.621924 v 0 l -0.24661,-0.607532 v 0 l -0.18218,-0.594655 v 0 l -0.11865,-0.587497 v 0 l -0.0607,-0.590412 v 0 l -0.0131,-0.606963 v 0 l 0.0211,-0.638611 v 0 l 0.0419,-0.684077 v 0 l 0.0517,-0.739505 v 0 l 0.0555,-0.798653 v 0 l 0.0593,-0.854121 v 0 l 0.0681,-0.899816 v 0 l 0.085,-0.931683 v 0 l 0.11127,-0.94761 v 0 l 0.14655,-0.947373 v 0 l 0.18847,-0.932822 v 0 l 0.23303,-0.907708 v 0 l 0.27572,-0.876569 v 0 l 0.3129,-0.843661 v 0 l 0.34251,-0.812313 v 0 l 0.36398,-0.784982 v 0 l 0.37816,-0.763358 v 0 l 0.78286,-1.487923 v 0 l 0.8291,-1.477165 v 0 l 0.44746,-0.747499 v 0 l 0.48079,-0.758744 v 0 l 0.52267,-0.772758 v 0 l 0.57175,-0.788462 v 0 l 0.62575,-0.804674 v 0 l 0.68213,-0.820202 v 0 l 0.73864,-0.833876 v 0 l 0.79339,-0.844577 v 0 l 0.84485,-0.851213 v 0 l 0.8918,-0.852747 v 0 l 0.93342,-0.848171 v 0 l 0.9692,-0.836512 v 0 l 0.99899,-0.816846 v 0 l 1.02291,-0.788375 v 0 l 1.04124,-0.750639 v 0 l 1.05425,-0.70367 v 0 l 1.06227,-0.64798 v 0 l 1.06561,-0.584555 v 0 l 0.53271,-0.266471 v 0 l 0.53197,-0.248414 v 0 l 0.53075,-0.229881 v 0 l 0.52909,-0.211025 v 0 l 0.52701,-0.192022 v 0 l 0.52453,-0.17305 v 0 l 0.52169,-0.154309 v 0 l 0.51853,-0.136009 v 0 l 0.51505,-0.118347 v 0 l 0.51132,-0.101526 v 0 l 1.01062,-0.156713 v 0 l 0.99378,-0.102974 v 0 l 0.97681,-0.05991 v 0 l 0.96091,-0.02796 v 0 l 0.94743,-0.0067 v 0 l 1.87205,0.01506 v 0 l 1.88718,0.01787 v 0 l 0.96999,0.0062 v 0 l 0.99839,0.0063 v 0 l 1.03328,0.01 v 0 l 1.07244,0.0182 v 0 l 1.11274,0.03174 v 0 l 1.15039,0.05101 v 0 l 1.18167,0.07617 v 0 l 1.20362,0.107175 v 0 l 1.21433,0.143858 v 0 l 1.21286,0.185893 v 0 l 1.19924,0.232793 v 0 l 1.17451,0.283921 v 0 l 1.14062,0.338487 v 0 l 0.55553,0.190531 v 0 l 0.54505,0.205022 v 0 l 0.53441,0.219659 v 0 l 0.52387,0.23436 v 0 l 0.51365,0.249058 v 0 l 0.50395,0.263679 v 0 l 0.98172,0.57056 v 0 l 0.95269,0.626383 v 0 l 0.93152,0.679144 v 0 l 0.91824,0.727807 v 0 l 0.91182,0.771363 v 0 l 0.9102,0.808864 v 0 l 0.91029,0.839372 v 0 l 0.90811,0.862025 v 0 l 0.89988,0.876214 v 0 l 0.88269,0.881731 v 0 l 0.85479,0.878785 v 0 l 0.8155,0.868037 v 0 l 0.76519,0.850549 v 0 l 0.36066,0.417011 v 0 l 0.34468,0.410814 v 0 l 0.32791,0.404266 v 0 l 0.3106,0.397516 v 0 l 0.29299,0.390725 v 0 l 0.27537,0.384063 v 0 l 0.25805,0.377697 v 0 l 0.24131,0.371789 v 0 l 0.43575,0.728325 v 0 l 0.38071,0.713044 v 0 l 0.33605,0.704651 v 0 l 0.30253,0.703454 v 0 l 0.27954,0.709016 v 0 l 0.26543,0.720209 v 0 l 0.25781,0.735537 v 0 l 0.25455,0.753636 v 0 l 0.25397,0.773427 v 0 l 0.25478,0.794098 v 0 l 0.2561,0.815108 v 0 82.062154 0 h -14.17323 v 0 -4.25197 0 h -7.08661 v 0 4.25197 0 h -8.50394 v 0 7.08661 0 h 8.50394 v 0 83.76462 0 h -8.50394 v 0 7.08662 0 h 8.50394 v 0 4.25197 0 h 7.08661 v 0 z"
       fill="none"
       stroke="#000000"
       id="path136"
       style="fill:none;stroke:#ff0000;stroke-width:0.02834646;stroke-dasharray:none;stroke-opacity:1" />
    <path
       d="m 297.94624,224.92914 h 14.17323 v 0 -83.76462 0 h -14.17323 v 0 z"
       fill="none"
       stroke="#000000"
       id="path138"
       style="fill:none;stroke:#ff0000;stroke-width:0.02834646;stroke-dasharray:none;stroke-opacity:1" />
    <path
       d="m 329.84742,48.423855 -0.0975,-0.356289 v 0 l -0.12063,-0.330812 v 0 l -0.14379,-0.305203 v 0 l -0.167,-0.27942 v 0 l -0.19005,-0.25346 v 0 l -0.21279,-0.227381 v 0 l -0.23484,-0.201271 v 0 l -0.25583,-0.175289 v 0 l -0.27524,-0.149646 v 0 l -0.2925,-0.124566 v 0 l -0.30712,-0.100233 v 0 l -0.31871,-0.07673 v 0 l -0.32703,-0.05404 v 0 l -0.33188,-0.0321 v 0 l -0.33323,-0.01073 v 0 l -0.33112,0.01032 v 0 l -0.32571,0.03137 v 0 l -0.31722,0.05279 v 0 l -0.30594,0.07488 v 0 l -0.29212,0.09788 v 0 l -0.27604,0.121918 v 0 l -0.258,0.14705 v 0 l -0.2383,0.173234 v 0 l -0.21726,0.200321 v 0 l -0.19523,0.228076 v 0 l -0.17253,0.256223 v 0 l -0.14946,0.284528 v 0 l -0.12623,0.312814 v 0 l -0.10297,0.340974 v 0 l -0.0798,0.368955 v 0 l -0.0567,0.396745 v 0 l -0.0338,0.424389 v 0 248.056798 0 l 0.38793,0.96926 v 0 l 0.43451,0.98504 v 0 l 0.48098,1.00065 v 0 l 0.52712,1.01585 v 0 l 0.5726,1.03025 v 0 l 0.61705,1.04334 v 0 l 0.65991,1.05446 v 0 l 0.70058,1.06288 v 0 l 0.73833,1.06766 v 0 l 0.77233,1.0678 v 0 l 0.80176,1.06228 v 0 l 0.826,1.05035 v 0 l 0.84476,1.03164 v 0 l 0.85806,1.00616 v 0 l 0.86615,0.9743 v 0 l 0.86968,0.93678 v 0 l 0.86952,0.89476 v 0 l 0.8669,0.84973 v 0 l 0.86328,0.80355 v 0 l 0.86049,0.75847 v 0 l 0.86032,0.71665 v 0 l 0.86419,0.67971 v 0 l 0.87314,0.64859 v 0 l 0.88768,0.62351 v 0 l 0.90796,0.60402 v 0 l 0.93364,0.58897 v 0 l 0.96394,0.57655 v 0 l 0.99766,0.56417 v 0 l 1.03324,0.54893 v 0 l 1.06912,0.52818 v 0 l 1.10393,0.50011 v 0 l 1.13648,0.46368 v 0 l 1.16579,0.41871 v 0 l 1.19104,0.36583 v 0 l 1.21161,0.30645 v 0 l 1.2271,0.2428 v 0 l 1.23727,0.17797 v 0 l 1.24204,0.11565 v 0 l 1.24149,0.0594 v 0 l 1.23572,0.0119 v 0 l 1.2249,-0.025 v 0 l 1.20924,-0.0503 v 0 l 1.18903,-0.064 v 0 l 1.16456,-0.0668 v 0 l 1.13624,-0.0603 v 0 l 1.10447,-0.0473 v 0 l 1.06977,-0.031 v 0 l 1.03282,-0.015 v 0 l 0.99465,-0.002 v 0 l 0.95661,0.005 v 0 l 0.9204,0.005 v 0 l 0.88809,-0.004 v 0 l 0.86203,-0.022 v 0 l 0.84499,-0.0493 v 0 l 0.8396,-0.0852 v 0 l 0.84762,-0.1291 v 0 l 0.86955,-0.17995 v 0 l 0.44717,-0.11094 v 0 l 0.45746,-0.12575 v 0 l 0.46908,-0.14112 v 0 l 0.4818,-0.15691 v 0 l 0.4954,-0.17307 v 0 l 0.50959,-0.18944 v 0 l 0.52402,-0.20598 v 0 l 0.5384,-0.22253 v 0 l 0.55238,-0.23901 v 0 l 0.56564,-0.25531 v 0 l 0.57791,-0.27134 v 0 l 0.58897,-0.28701 v 0 l 1.20521,-0.61918 v 0 l 1.23019,-0.67563 v 0 l 1.23994,-0.72666 v 0 l 1.23357,-0.77149 v 0 l 1.21121,-0.80949 v 0 l 1.17394,-0.84024 v 0 l 1.12382,-0.86352 v 0 l 1.06392,-0.87932 v 0 l 0.99812,-0.88783 v 0 l 0.93023,-0.88948 v 0 l 0.86357,-0.88509 v 0 l 0.80078,-0.87574 v 0 l 0.74385,-0.86285 v 0 l 0.6942,-0.84816 v 0 l 0.65257,-0.83378 v 0 l 0.6191,-0.82203 v 0 l 0.59328,-0.81569 v 0 l 0.57404,-0.8176 v 0 l 0.5601,-0.83023 v 0 l 0.55003,-0.85516 v 0 l 0.54246,-0.8931 v 0 l 0.53591,-0.94381 v 0 l 0.26541,-0.49465 v 0 l 0.26349,-0.51156 v 0 l 0.26127,-0.52964 v 0 l 0.25866,-0.54868 v 0 l 0.25555,-0.56846 v 0 l 0.25184,-0.58874 v 0 l 0.24745,-0.6093 v 0 l 0.24227,-0.62988 v 0 l 0.23623,-0.65023 v 0 l 0.22926,-0.67015 v 0 l 0.22129,-0.68943 v 0 l 0.21227,-0.70787 v 0 l 0.20217,-0.72531 v 0 l 0.19095,-0.7416 v 0 l 0.17858,-0.75657 v 0 l 0.16507,-0.77012 v 0 l 0.15041,-0.7821 v 0 l 0.1346,-0.79244 v 0 l 0.11766,-0.80104 v 0 l 0.0996,-0.80783 v 0 l 0.0805,-0.81275 v 0 l 0.0605,-0.81578 v 0 l 0.0394,-0.81687 v 0 l 0.0175,-0.81601 v 0 l -0.005,-0.81321 v 0 l -0.0287,-0.80849 v 0 l -0.0528,-0.80187 v 0 l -0.0773,-0.79342 v 0 l -0.10231,-0.78317 v 0 l -0.12755,-0.77122 v 0 l -0.15293,-0.75763 v 0 l -0.17832,-0.7425 v 0 l -0.20362,-0.72589 v 0 l -0.22872,-0.70793 v 0 l -0.2535,-0.68869 v 0 l -0.27785,-0.66826 v 0 l -0.30167,-0.64678 v 0 l -0.32486,-0.62432 v 0 l -0.34731,-0.60102 v 0 l -0.36895,-0.57697 v 0 l -0.38967,-0.5523 v 0 l -0.40938,-0.52715 v 0 l -0.428,-0.50164 v 0 l -0.44545,-0.47588 v 0 l -0.46165,-0.45003 v 0 l -0.47652,-0.42423 v 0 l -0.49,-0.39861 v 0 l -0.50199,-0.37333 v 0 l -0.51245,-0.34855 v 0 l -0.52132,-0.32442 v 0 l -0.52852,-0.30105 v 0 L 396.7161,271.183 v 0 l -0.53789,-0.2572 v 0 l -0.54002,-0.23687 v 0 l -0.54048,-0.2177 v 0 l -0.53928,-0.1997 v 0 l -1.06878,-0.35015 v 0 l -1.04614,-0.29214 v 0 l -1.01363,-0.24238 v 0 l -0.97363,-0.19924 v 0 l -0.92908,-0.16024 v 0 l -0.8834,-0.12233 v 0 l -0.83959,-0.0822 v 0 l -0.79892,-0.037 v 0 l -0.38505,6.9e-4 v 0 l -0.37565,0.0149 v 0 l -0.36611,0.0302 v 0 l -0.35618,0.0469 v 0 l -0.34545,0.0648 v 0 l -0.33354,0.0841 v 0 l -0.32,0.10464 v 0 l -0.3044,0.12652 v 0 l -0.28637,0.14957 v 0 l -0.26573,0.17356 v 0 l -0.2424,0.19817 v 0 l -0.21648,0.22298 v 0 l -0.18816,0.24747 v 0 l -0.15782,0.27098 v 0 l -0.1259,0.29285 v 0 l -0.093,0.31226 v 0 l -0.0598,0.32831 v 0 l -0.0272,0.34021 v 0 l 0.005,0.34738 v 0 l 0.0347,0.34941 v 0 l 0.0632,0.34616 v 0 l 0.0897,0.33769 v 0 l 0.11416,0.32421 v 0 l 0.13671,0.30618 v 0 l 0.15755,0.28429 v 0 l 0.17706,0.25953 v 0 l 0.19573,0.23298 v 0 l 0.21404,0.20577 v 0 l 0.23237,0.17893 v 0 l 0.25108,0.15342 v 0 l 0.27034,0.13002 v 0 l 0.29025,0.10937 v 0 l 0.31078,0.0919 v 0 l 0.3317,0.0779 v 0 l 0.35274,0.0674 v 0 l 0.37343,0.0605 v 0 l 0.39329,0.057 v 0 l 0.41182,0.0567 v 0 l 0.8715,0.12378 v 0 l 0.91866,0.15383 v 0 l 0.94257,0.19964 v 0 l 0.94176,0.25691 v 0 l 0.46301,0.15231 v 0 l 0.45405,0.16892 v 0 l 0.44266,0.18571 v 0 l 0.4292,0.20242 v 0 l 0.41408,0.21872 v 0 l 0.39779,0.23439 v 0 l 0.38072,0.24916 v 0 l 0.36326,0.26284 v 0 l 0.34567,0.27525 v 0 l 0.32824,0.28626 v 0 l 0.31114,0.29579 v 0 l 0.2945,0.30377 v 0 l 0.54133,0.62513 v 0 l 0.48144,0.63837 v 0 l 0.42458,0.64059 v 0 l 0.36786,0.63408 v 0 l 0.30885,0.62193 v 0 l 0.24661,0.60753 v 0 l 0.18217,0.59466 v 0 l 0.11866,0.58749 v 0 l 0.0607,0.59041 v 0 l 0.0131,0.60697 v 0 l -0.0211,0.63861 v 0 l -0.0419,0.68408 v 0 l -0.0517,0.7395 v 0 l -0.0555,0.79865 v 0 l -0.0593,0.85412 v 0 l -0.0681,0.89982 v 0 l -0.085,0.93168 v 0 l -0.11127,0.94761 v 0 l -0.14654,0.94738 v 0 l -0.18848,0.93282 v 0 l -0.23303,0.90771 v 0 l -0.27572,0.87657 v 0 l -0.31289,0.84366 v 0 l -0.34252,0.81231 v 0 l -0.36398,0.78498 v 0 l -0.37816,0.76336 v 0 l -0.78285,1.48792 v 0 l -0.82911,1.47717 v 0 l -0.44746,0.7475 v 0 l -0.48078,0.75874 v 0 l -0.52267,0.77276 v 0 l -0.57176,0.78846 v 0 l -0.62575,0.80467 v 0 l -0.68213,0.82021 v 0 l -0.73864,0.83387 v 0 l -0.79339,0.84458 v 0 l -0.84484,0.85121 v 0 l -0.89181,0.85275 v 0 l -0.93342,0.84817 v 0 l -0.9692,0.83651 v 0 l -0.99898,0.81685 v 0 l -1.02292,0.78837 v 0 l -1.04123,0.75064 v 0 l -1.05426,0.70367 v 0 l -1.06226,0.64798 v 0 l -1.06562,0.58456 v 0 l -0.53271,0.26647 v 0 l -0.53197,0.24841 v 0 l -0.53075,0.22988 v 0 l -0.52909,0.21103 v 0 l -0.52701,0.19202 v 0 l -0.52453,0.17305 v 0 l -0.52169,0.15431 v 0 l -0.51852,0.13601 v 0 l -0.51506,0.11835 v 0 l -0.51131,0.10152 v 0 l -1.01063,0.15671 v 0 l -0.99377,0.10298 v 0 l -0.97682,0.0599 v 0 l -0.96091,0.0279 v 0 l -0.94743,0.007 v 0 l -1.87205,-0.0151 v 0 l -1.88717,-0.0179 v 0 l -0.97,-0.006 v 0 l -0.99838,-0.006 v 0 l -1.03329,-0.01 v 0 l -1.07244,-0.0182 v 0 l -1.11274,-0.0317 v 0 l -1.15039,-0.051 v 0 l -1.18167,-0.0762 v 0 l -1.20362,-0.10717 v 0 l -1.21432,-0.14386 v 0 l -1.21286,-0.18589 v 0 l -1.19925,-0.23279 v 0 l -1.17451,-0.28393 v 0 l -1.14062,-0.33848 v 0 l -0.55553,-0.19053 v 0 l -0.54505,-0.20503 v 0 l -0.53441,-0.21965 v 0 l -0.52387,-0.23436 v 0 l -0.51364,-0.24906 v 0 l -0.50396,-0.26368 v 0 l -0.98172,-0.57056 v 0 l -0.95269,-0.62638 v 0 l -0.93152,-0.67915 v 0 l -0.91824,-0.72781 v 0 l -0.91182,-0.77136 v 0 l -0.9102,-0.80886 v 0 l -0.91028,-0.83937 v 0 l -0.90812,-0.86203 v 0 l -0.89988,-0.87621 v 0 l -0.88269,-0.88173 v 0 l -0.85479,-0.87879 v 0 l -0.81549,-0.86804 v 0 l -0.76519,-0.85055 v 0 l -0.36066,-0.41701 v 0 l -0.34468,-0.41081 v 0 l -0.32792,-0.40427 v 0 l -0.3106,-0.39751 v 0 l -0.29299,-0.39073 v 0 l -0.27537,-0.38406 v 0 l -0.25805,-0.3777 v 0 l -0.2413,-0.37179 v 0 l -0.43576,-0.72832 v 0 l -0.3807,-0.71305 v 0 l -0.33606,-0.70465 v 0 l -0.30252,-0.70345 v 0 l -0.27955,-0.70902 v 0 l -0.26543,-0.72021 v 0 l -0.2578,-0.73553 v 0 l -0.25456,-0.75364 v 0 l -0.25397,-0.77343 v 0 l -0.25477,-0.79409 v 0 l -0.25611,-0.81511 v 0 -82.06215 0 h 14.17254 v 0 4.25197 0 h 7.08661 v 0 -4.25197 0 h 8.50394 v 0 -7.08662 0 h -8.50394 v 0 -83.76462 0 h 8.50394 v 0 -7.08661 0 h -8.50394 v 0 -4.25197 0 h -7.08661 v 0 4.25197 0 h -14.17323 v 0 -94.011306"
       fill="none"
       stroke="#000000"
       id="path140"
       style="fill:none;stroke:#ff0000;stroke-width:0.02834646;stroke-dasharray:none;stroke-opacity:1" />
    <path
       d="m 344.02065,120.70732 h -14.17323 v 0 83.76462 0 h 14.17323 v 0 z"
       fill="none"
       stroke="#000000"
       id="path142"
       style="fill:none;stroke:#ff0000;stroke-width:0.02834646;stroke-dasharray:none;stroke-opacity:1" />
    <path
       d="m 151.06425,97.700121 h 7.08661 v 0 8.503939 0 h 14.17323 v 0 -8.503939 0 h 21.25984 v 0 8.503939 0 h 14.17323 v 0 -8.503939 0 h 7.08661 v 0 -70.866142 0 h -7.08661 v 0 -8.503937 0 h -14.17323 v 0 8.503937 0 h -21.25984 v 0 -8.503937 0 h -14.17323 v 0 8.503937 0 h -7.08661"
       fill="none"
       stroke="#000000"
       id="path144"
       style="fill:none;stroke:#ff0000;stroke-width:0.02834646;stroke-dasharray:none;stroke-opacity:1" />
    <path
       d="m 329.84742,107.48342 h 14.17323 v 0 -8.50394 0 h 42.51968 v 0 8.50394 0 h 14.17323 v 0 -87.874019 0 h -14.17323 v 0 8.503937 0 h -42.51968 v 0 -8.503937 0 h -14.17323"
       fill="none"
       stroke="#000000"
       id="path146"
       style="fill:none;stroke:#ff0000;stroke-width:0.02834646;stroke-dasharray:none;stroke-opacity:1" />
    <rect
       style="fill:none;stroke:#ff0000;stroke-width:0.02834646;stroke-dasharray:none;stroke-opacity:1"
       id="rect364"
       width="380.85767"
       height="317.72092"
       x="29.531664"
       y="12.219958" />
  </g>
</svg>
