<?xml version="1.0" encoding="UTF-8" standalone="no"?>
<svg xmlns="http://www.w3.org/2000/svg" xmlns:xlink="http://www.w3.org/1999/xlink" width="134.358mm" height="112.085mm" viewBox="151.820938 -169.042435 134.358139 112.084869">
    <path transform="matrix(1,0,0,-1,92.674675,-4.042435)" style="stroke:#ff0000;stroke-width:0.050000mm;fill:none" d="M187.090988,148.643173L187.322922,148.62793L187.547852,148.58287L187.763245,148.509445L187.966537,148.409149L188.155182,148.283432L188.326614,148.133789L188.478271,147.96167L188.607635,147.768555L188.710297,147.560028L188.78363,147.342651L188.827652,147.119385L188.842316,146.893158L188.827652,146.666931L188.78363,146.44368L188.710297,146.226318L188.607635,146.017792L188.478271,145.824677L188.326614,145.652557L188.155182,145.502914L187.966537,145.377197L187.763245,145.276901L187.547852,145.203476L187.322922,145.158417L187.090988,145.143173L186.859177,145.158539L186.634354,145.203705L186.419067,145.277222L186.215912,145.377563L186.027405,145.503311L185.85611,145.652954L185.704559,145.825058L185.575302,146.018112L185.472702,146.226547L185.399429,146.443848L185.355469,146.667023L185.34082,146.893158L185.355469,147.119293L185.399429,147.342468L185.472702,147.559769L185.575302,147.768219L185.704559,147.961288L185.85611,148.133392L186.027405,148.283035L186.215912,148.408783L186.419067,148.509125L186.634354,148.582642L186.859177,148.627808L187.090988,148.643173z"/>
    <path transform="matrix(1,0,0,-1,92.674675,-4.042435)" style="stroke:#ff0000;stroke-width:0.050000mm;fill:none" d="M165.090988,162.393158L170.090973,162.393158L170.090973,159.393158L177.799728,159.393158M178.299728,159.393158L185.090988,159.393158L185.090988,162.393158L190.090973,162.393158L190.090973,147.352814M190.090973,146.852814L190.090973,131.393158L185.090988,131.393158L185.090988,134.393158L178.543701,134.393158M178.043701,134.393158L170.090973,134.393158L170.090973,131.393158L165.090988,131.393158"/>
    <path transform="matrix(1,0,0,-1,92.674675,-4.042435)" style="stroke:#ff0000;stroke-width:0.050000mm;fill:none" d="M170.091003,126.728073L165.091003,126.728073L165.091003,97.177773L170.091003,97.177773L170.091003,126.728073z"/>
    <path transform="matrix(1,0,0,-1,92.674675,-4.042435)" style="stroke:#ff0000;stroke-width:0.050000mm;fill:none" d="M144.929535,123.517349L140.029541,123.517349L140.029541,120.61734L144.929535,120.61734L144.929535,123.517349z"/>
    <path transform="matrix(1,0,0,-1,92.674675,-4.042435)" style="stroke:#ff0000;stroke-width:0.050000mm;fill:none" d="M142.529541,116.917343L142.529541,112.017349L145.42955,112.017349L145.42955,116.917343L142.529541,116.917343z"/>
    <path transform="matrix(1,0,0,-1,92.674675,-4.042435)" style="stroke:#ff0000;stroke-width:0.050000mm;fill:none" d="M120.129547,120.61734L125.029541,120.61734L125.029541,123.517349L120.129547,123.517349L120.129547,120.61734z"/>
    <path transform="matrix(1,0,0,-1,92.674675,-4.042435)" style="stroke:#ff0000;stroke-width:0.050000mm;fill:none" d="M103.640854,124.656906L98.74086,124.656906L98.74086,121.756912L103.640854,121.756912L103.640854,124.656906z"/>
    <path transform="matrix(1,0,0,-1,92.674675,-4.042435)" style="stroke:#ff0000;stroke-width:0.050000mm;fill:none" d="M101.24086,118.0569L101.24086,113.156906L104.140854,113.156906L104.140854,118.0569L101.24086,118.0569z"/>
    <path transform="matrix(1,0,0,-1,92.674675,-4.042435)" style="stroke:#ff0000;stroke-width:0.050000mm;fill:none" d="M78.840858,121.756912L83.74086,121.756912L83.74086,124.656906L78.840858,124.656906L78.840858,121.756912z"/>
    <path transform="matrix(1,0,0,-1,92.674675,-4.042435)" style="stroke:#ff0000;stroke-width:0.050000mm;fill:none" d="M68.320259,139.844498L66.020264,139.844498L66.020264,136.944489L68.320259,136.944489L68.320259,139.844498z"/>
    <path transform="matrix(1,0,0,-1,92.674675,-4.042435)" style="stroke:#ff0000;stroke-width:0.050000mm;fill:none" d="M66.020256,154.844498L68.320259,154.844498L68.320259,157.744492L66.020256,157.744492L66.020256,154.844498z"/>
    <path transform="matrix(1,0,0,-1,92.674675,-4.042435)" style="stroke:#ff0000;stroke-width:0.050000mm;fill:none" d="M97.87056,157.844498L97.87056,154.944504L100.170563,154.944504L100.170563,157.844498L97.87056,157.844498z"/>
    <path transform="matrix(1,0,0,-1,92.674675,-4.042435)" style="stroke:#ff0000;stroke-width:0.050000mm;fill:none" d="M100.170563,139.744492L97.87056,139.744492L97.87056,136.844498L100.170563,136.844498L100.170563,139.744492z"/>
    <path transform="matrix(1,0,0,-1,92.674675,-4.042435)" style="stroke:#ff0000;stroke-width:0.050000mm;fill:none" d="M121.520264,145.594498L121.288445,145.609863L121.063622,145.655029L120.848351,145.728546L120.645187,145.828888L120.456673,145.954636L120.285362,146.104279L120.133812,146.276382L120.004562,146.469452L119.901978,146.677902L119.828697,146.895203L119.784729,147.118378L119.770073,147.344513L119.784729,147.570648L119.828697,147.793823L119.901978,148.011124L120.004562,148.219559L120.133812,148.412613L120.285362,148.584717L120.456673,148.73436L120.64518,148.860107L120.848343,148.960449L121.063614,149.033966L121.288437,149.079132L121.520264,149.094498L121.752083,149.079132L121.976906,149.033966L122.192177,148.960449L122.39534,148.860107L122.583855,148.73436L122.755165,148.584717L122.906715,148.412613L123.035965,148.219559L123.13855,148.011124L123.211823,147.793823L123.255798,147.570648L123.270447,147.344513L123.255798,147.118378L123.211823,146.895203L123.13855,146.677902L123.035965,146.469452L122.906715,146.276382L122.755165,146.104279L122.583855,145.954636L122.39534,145.828888L122.192177,145.728546L121.976906,145.655029L121.752083,145.609863L121.520264,145.594498z"/>
    <path transform="matrix(1,0,0,-1,92.674675,-4.042435)" style="stroke:#ff0000;stroke-width:0.050000mm;fill:none" d="M102.020264,134.844498L104.520264,134.844498L104.520264,131.844498L106.333237,131.844498M106.833237,131.844498L109.520264,131.844498L109.520264,134.844498L112.111588,134.844498M112.611588,134.844498L117.020264,134.844498L117.020264,131.844498L122.020264,131.844498L122.020264,134.844498L124.520264,134.844498L124.520264,147.8647M124.520264,148.3647L124.520264,159.844498L122.020264,159.844498L122.020264,162.844498L117.020264,162.844498L117.020264,159.844498L112.983734,159.844498M112.483734,159.844498L109.520264,159.844498L109.520264,162.844498L104.520264,162.844498L104.520264,159.844498L102.020264,159.844498"/>
    <path transform="matrix(1,0,0,-1,92.674675,-4.042435)" style="stroke:#ff0000;stroke-width:0.050000mm;fill:none" d="M67.020264,159.844498L62.02026,159.844498L62.02026,148.016815M62.02026,147.516815L62.02026,134.844498L67.020264,134.844498L67.020264,131.844498L72.020264,131.844498L72.020264,134.844498L84.270264,134.844498M84.770264,134.844498L97.020264,134.844498L97.020264,131.844498L102.020264,131.844498L102.020264,162.844498L97.020264,162.844498L97.020264,159.844498L81.190338,159.844498M80.690338,159.844498L72.020264,159.844498L72.020264,162.844498L67.020264,162.844498L67.020264,159.844498"/>
    <path transform="matrix(1,0,0,-1,92.674675,-4.042435)" style="stroke:#ff0000;stroke-width:0.050000mm;fill:none" d="M165.091003,162.392838L165.091003,156.623352M165.091003,156.123352L165.091003,129.227737L170.091003,129.227737L170.091003,130.727737L172.591003,130.727737L172.591003,129.227737L175.591003,129.227737L175.591003,126.727737L172.591003,126.727737L172.591003,113.767723M172.591003,113.267723L172.591003,97.177444L175.591003,97.177444L175.591003,94.677437L172.591003,94.677437L172.591003,93.177437L170.091003,93.177437L170.091003,94.677437L165.091232,94.677437L165.091232,79.53138M165.091232,79.03138L165.091232,65.727737L165.271454,65.160042L165.361053,64.887184L165.450851,64.621323L165.541809,64.361839L165.635437,64.107765L165.734055,63.857643L165.84079,63.609474L165.959335,63.360893L166.093628,63.109344L166.247375,62.852409L166.332489,62.721245L166.423523,62.588005L166.52066,62.452515L166.624023,62.314682L166.733612,62.174446L166.849289,62.03183L166.970886,61.886909L167.098114,61.739792L167.368057,61.439735L167.655731,61.133507L167.957306,60.823494L168.268692,60.512436L168.586151,60.203323L168.906494,59.899216L169.227631,59.603111L169.548737,59.317757L169.870392,59.045639L170.194336,58.788887L170.522949,58.549301L170.859039,58.328331L171.205383,58.127052L171.383163,58.034035L171.564362,57.946175L171.749176,57.863487L171.937714,57.786003L172.129974,57.713684L172.325958,57.646469L172.728363,57.527061L173.1427,57.426895L173.565765,57.344772L173.993622,57.279198L174.422028,57.228447L174.846619,57.190643L175.263489,57.163757L175.669327,57.145767L176.061874,57.134583L176.440216,57.128166L178.825302,57.108742L179.159531,57.111206L179.49852,57.121048L179.843109,57.142181L180.193695,57.178505L180.550217,57.233788L180.730606,57.269608L180.912292,57.311356L181.095215,57.359344L181.279266,57.413773L181.46431,57.474831L181.650223,57.542564L181.836868,57.617012L182.024109,57.698112L182.211792,57.785751L182.399719,57.879753L182.775635,58.085976L183.150375,58.314568L183.522308,58.562813L183.889618,58.827621L184.250488,59.105736L184.602905,59.393906L184.944824,59.689011L185.274109,59.988228L185.58873,60.289063L185.886765,60.589348L186.166656,60.887291L186.427246,61.181458L186.667877,61.470818L186.888626,61.754684L187.090332,62.032829L187.274719,62.305443L187.444321,62.573105L187.602173,62.836807L187.894669,63.357918L188.170837,63.882828L188.304245,64.152122L188.432648,64.429047L188.553482,64.715614L188.663864,65.013237L188.761139,65.322464L188.843353,65.642685L188.909836,65.971771L188.961533,66.305984L189.000793,66.640282L189.030777,66.968948L189.089096,67.787209M189.123077,68.286049L189.128326,68.371651L189.135757,68.596939L189.131149,68.811066L189.109726,69.019356L189.067871,69.226608L189.003616,69.436394L188.916611,69.650719L188.807663,69.870117L188.677887,70.093811L188.528107,70.319801L188.358261,70.545006L188.167297,70.765533L188.0634,70.872696L187.953644,70.977043L187.837845,71.078026L187.715897,71.175125L187.587753,71.267853L187.453445,71.355743L187.31311,71.438423L187.167023,71.515587L187.015625,71.58699L186.859451,71.652504L186.69928,71.712097L186.535934,71.765823L186.203705,71.856453L185.871185,71.926888L185.547104,71.981155L184.955627,72.064934L184.823898,72.086273L184.699448,72.110054L184.582428,72.137543L184.472794,72.16996L184.370392,72.208542L184.275024,72.25441L184.186447,72.308525L184.104477,72.371651L184.028961,72.444244L183.959915,72.526428L183.897446,72.617981L183.841873,72.718277L183.79364,72.826294L183.753357,72.940666L183.721725,73.059792L183.699417,73.181915L183.68718,73.305168L183.68541,73.427719L183.695007,73.547737L183.71611,73.663559L183.748917,73.773712L183.79332,73.877022L183.848999,73.972618L183.915375,74.059914L183.991745,74.13858L184.077271,74.208496L184.171005,74.269722L184.272034,74.322487L184.379425,74.367119L184.49231,74.404037L184.60997,74.433708L184.731842,74.456566L184.857498,74.473114L184.986649,74.483772L185.119171,74.489021L185.255005,74.489273L185.53685,74.476227L185.833038,74.44722L186.144669,74.40406L186.472427,74.347527L186.815903,74.277237L187.173492,74.191734L187.542557,74.088669L187.919601,73.965141L188.109848,73.894691L188.300507,73.817886L188.491013,73.734322L188.680771,73.643585L188.869141,73.545319L189.055603,73.43911L189.239517,73.324654L189.420288,73.201698L189.597382,73.07L189.770233,72.929375L189.938354,72.779716L190.101212,72.620956L190.258362,72.453072L190.409348,72.2761L190.553772,72.090126L190.691238,71.895287L190.821411,71.69175L190.943924,71.479721L191.058533,71.259476L191.164963,71.031303L191.262985,70.795547L191.352417,70.552597L191.433105,70.302856L191.504929,70.046776L191.567841,69.784843L191.62178,69.51757L191.666794,69.245506L191.702881,68.969215L191.730148,68.689316L191.748764,68.406425L191.758896,68.121208L191.760651,67.834328L191.754486,67.546455L191.740585,67.258286L191.719254,66.970505L191.690842,66.683784L191.655716,66.398796L191.614212,66.116219L191.566711,65.836655L191.513657,65.560745L191.455414,65.28907L191.39241,65.022171L191.325058,64.760551L191.253738,64.504677L191.178848,64.254959L191.100784,64.011749L191.019913,63.775337L190.936569,63.545944L190.851089,63.323738L190.763809,63.108788L190.674973,62.901093L190.584808,62.700554L190.493561,62.506996L190.401398,62.320152L190.308441,62.139679L190.214813,61.965179L190.025742,61.632217L189.834381,61.317154L189.64035,61.015472L189.442764,60.722588L189.24025,60.434151L189.03096,60.146393L188.812546,59.8564L188.582336,59.562263L188.337433,59.263046L188.075027,58.958649L187.792526,58.649712L187.487885,58.337471L187.159714,58.023689L186.807602,57.71048L186.432281,57.400276L186.035828,57.095642L185.621674,56.799225L185.194397,56.513657L184.759216,56.241493L184.321793,55.985146L183.887802,55.746803L183.462631,55.528374L183.254868,55.427116L183.050995,55.331398L182.85144,55.241333L182.656586,55.157013L182.466644,55.078506L182.281784,55.005836L182.10202,54.939003L181.927261,54.877945L181.757278,54.822586L181.591797,54.772804L181.43042,54.728439L181.272659,54.689308L180.965912,54.625816L180.666885,54.580276L180.370697,54.550224L180.072601,54.532837L179.768494,54.52507L179.4552,54.523659L178.79303,54.527191L178.442139,54.526482L178.077774,54.521187L177.700394,54.510246L177.31076,54.493561L176.079636,54.426147L175.653046,54.408401L175.369812,54.402622M174.869858,54.402966L174.784988,54.403786L174.347015,54.424736L173.908859,54.465538L173.472382,54.52832L173.03949,54.613976L172.612061,54.722092L172.191879,54.851151L171.780609,54.998856L171.379684,55.162437L170.990234,55.338867L170.613068,55.525192L170.248566,55.718842L169.896637,55.91787L169.55658,56.121262L169.227203,56.329033L168.906891,56.542122L168.59375,56.762077L168.285721,56.990891L167.98085,57.230675L167.677353,57.483498L167.373779,57.751068L167.069244,58.034546L166.763397,58.334312L166.456665,58.649963L166.149857,58.980431L165.844299,59.324142L165.541595,59.6791L165.243591,60.043037L164.952194,60.413582L164.669342,60.78833L164.396881,61.165031L164.136414,61.541679L163.889252,61.916634L163.656464,62.288628L163.438782,62.656693L163.236786,63.020142L163.050812,63.378502L162.881134,63.731506L162.727859,64.07901L162.591003,64.420944L162.591003,151.929871L162.602936,152.07959L162.622925,152.219543L162.651093,152.349701L162.687408,152.469986L162.731934,152.580353L162.784668,152.680725L162.84552,152.771118L162.914398,152.851563L162.991043,152.922241L163.075104,152.983353L163.166122,153.035233L163.263504,153.078232L163.366547,153.112762L163.474487,153.139191L163.586395,153.157806L163.701294,153.168869L163.818115,153.172516L163.935669,153.168732L164.052734,153.15741L164.168121,153.138336L164.280548,153.111267L164.388885,153.075912L164.492081,153.031967L164.589172,152.979172L164.679428,152.917343L164.762268,152.846329L164.837341,152.766113L164.904388,152.676697L164.963303,152.578125L165.014038,152.470459L165.05658,152.35376L165.090988,152.228073"/>
    <path transform="matrix(1,0,0,-1,92.674675,-4.042435)" style="stroke:#ff0000;stroke-width:0.050000mm;fill:none" d="M153.83696,89.96093L158.836945,89.96093L158.836945,119.511223L153.83696,119.511223L153.83696,89.96093z"/>
    <path transform="matrix(1,0,0,-1,92.674675,-4.042435)" style="stroke:#ff0000;stroke-width:0.050000mm;fill:none" d="M153.83696,87.460922L156.331085,87.460922M156.831085,87.460922L158.836945,87.460922L158.836945,64.460922L158.871353,64.335228L158.91391,64.218529L158.96463,64.110855L159.02356,64.012283L159.090607,63.922874L159.165649,63.842659L159.248505,63.771652L159.338745,63.709816L159.435852,63.657021L159.539032,63.613075L159.647369,63.577721L159.759827,63.550659L159.875183,63.531616L159.992264,63.520294L160.109818,63.51651L160.226624,63.520149L160.341537,63.531227L160.453445,63.549858L160.561371,63.576279L160.664429,63.610809L160.76181,63.653824L160.852814,63.705704L160.93689,63.766808L161.013535,63.837479L161.082397,63.917946L161.143265,64.008331L161.195984,64.108704L161.240524,64.219055L161.276855,64.33934L161.304993,64.469505L161.325043,64.609467L161.33696,64.759178L161.33696,94.644943M161.33696,95.144943L161.33696,127.335831M161.33696,127.835831L161.33696,152.268097L161.200104,152.610046L161.046814,152.95755L160.877136,153.310547L160.691162,153.668869L160.489166,154.032318L160.271484,154.400375L160.038696,154.772369L159.791565,155.147324L159.531097,155.523972L159.258621,155.900681L158.975784,156.275421L158.684387,156.645966L158.386383,157.009903L158.083679,157.364853L157.778107,157.708557L157.471313,158.039032L157.164566,158.354691L156.858749,158.654449L156.554199,158.937927L156.250641,159.205505L155.947144,159.458313L155.642273,159.698105L155.334229,159.92691L155.021088,160.146881L154.700775,160.359955L154.371414,160.567734L154.031342,160.771133L153.679398,160.970154L153.314896,161.163803L152.937744,161.350128L152.548279,161.526566L152.147369,161.69014L151.736099,161.837845L151.315918,161.966904L150.888489,162.075012L150.455597,162.160675L150.019104,162.22345L149.580948,162.264252L149.142975,162.285202L148.707047,162.289383L148.274933,162.280548L147.848328,162.262802L146.617218,162.195389L146.227585,162.178696L145.850189,162.167755L145.48584,162.162476L145.134949,162.161728L144.472778,162.165268L144.159485,162.163849L143.855377,162.156082L143.557281,162.138687L143.261078,162.108612L142.962067,162.06308L142.655304,161.999588L142.497559,161.960449L142.336182,161.916092L142.1707,161.866302L142.000732,161.810959L141.825958,161.749908L141.646194,161.683075L141.461334,161.610397L141.271393,161.531906L141.076538,161.447586L140.876984,161.357513L140.673126,161.261795L140.465347,161.160538L140.040176,160.942108L139.606201,160.703766L139.168777,160.447418L138.733597,160.175247L138.30632,159.889679L137.892181,159.593262L137.495728,159.288635L137.120392,158.978424L136.76828,158.665222L136.440094,158.351425L136.135452,158.039185L135.852966,157.730255L135.590546,157.425858L135.345642,157.126648L135.115448,156.832504L134.897034,156.542511L134.687744,156.254745L134.485229,155.966324L134.287643,155.673431L134.093597,155.37175L133.902252,155.056686L133.713196,154.723724L133.619553,154.549225L133.526596,154.368759L133.434418,154.181915L133.34317,153.988358L133.253021,153.787811L133.164185,153.580124L133.076889,153.365173L132.991425,153.142975L132.908081,152.913574L132.827209,152.67717L132.749146,152.43396L132.674255,152.184235L132.602936,151.92836L132.535568,151.666733L132.472565,151.399841L132.414337,151.128159L132.361282,150.852249L132.313812,150.572693L132.272293,150.2901L132.237152,150.005112L132.208725,149.718399L132.187378,149.430603L132.173492,149.142426L132.167297,148.854568L132.169067,148.567688L132.179199,148.282471L132.197815,147.999573L132.225098,147.719681L132.2612,147.44339L132.306183,147.171326L132.360138,146.904053L132.423035,146.64212L132.494873,146.386032L132.575562,146.136292L132.664978,145.893341L132.763,145.657593L132.869415,145.429413L132.984024,145.209167L133.106537,144.997147L133.23671,144.79361L133.374176,144.59877L133.518585,144.412796L133.669586,144.23584L133.826721,144.067963L133.989594,143.909195L134.157684,143.759537L134.330551,143.618912L134.507645,143.487213L134.688431,143.364243L134.872345,143.249802L135.058792,143.1436L135.247192,143.045303L135.436951,142.954559L135.627457,142.871002L135.81813,142.794205L136.008377,142.723755L136.385406,142.60022L136.754471,142.497177L137.112061,142.411667L137.455536,142.34137L137.783295,142.284851L138.09494,142.241699L138.391129,142.212692L138.672974,142.199646L138.808807,142.19989L138.94133,142.205139L139.070496,142.215805L139.196136,142.232346L139.318008,142.255203L139.435669,142.284851L139.548553,142.321762L139.655945,142.366394L139.756989,142.419159L139.850723,142.480392L139.936234,142.550308L140.012604,142.628967L140.078979,142.716263L140.134659,142.811859L140.179077,142.915176L140.211884,143.02533L140.232971,143.141144L140.242538,143.261169L140.240768,143.383713L140.228531,143.506989L140.206238,143.629105L140.174591,143.74823L140.134308,143.862595L140.08609,143.970612L140.030502,144.070908L139.968048,144.16246L139.898987,144.244659L139.823471,144.317245L139.741501,144.380371L139.652924,144.434494L139.557556,144.480362L139.45517,144.518936L139.34552,144.551361L139.228516,144.578827L139.10408,144.602615L138.972351,144.623962L138.380859,144.707733L138.056793,144.761993L137.724274,144.832428L137.392044,144.923065L137.228699,144.976791L137.068512,145.036377L136.912354,145.101898L136.760956,145.173309L136.614868,145.250473L136.474548,145.33316L136.340225,145.421051L136.212067,145.513779L136.090134,145.61087L135.974335,145.711868L135.864563,145.816208L135.760681,145.92337L135.569702,146.143906L135.399872,146.36911L135.250092,146.595093L135.1203,146.818787L135.011353,147.038193L134.924347,147.252518L134.860092,147.462296L134.818237,147.669556L134.796814,147.877838L134.792206,148.091965L134.799637,148.317245L134.814423,148.558578L134.897186,149.719955L134.92717,150.04863L134.966431,150.382935L135.018127,150.717133L135.08461,151.046219L135.166809,151.36644L135.264084,151.675674L135.374481,151.973297L135.4953,152.259857L135.623718,152.536789L135.757111,152.806076L135.833221,152.950729M136.067703,153.392303L136.325775,153.852097L136.483643,154.115799L136.653244,154.383469L136.837631,154.656082L137.039337,154.934235L137.260086,155.218109L137.500732,155.507446L137.761292,155.80162L138.041199,156.099579L138.339233,156.399857L138.653839,156.700699L138.983139,156.999908L139.325043,157.295013L139.677475,157.583176L140.03833,157.861298L140.40567,158.126099L140.777588,158.374344L141.152313,158.602936L141.528244,158.809158L141.716187,158.903168L141.903839,158.990799L142.091095,159.071899L142.27774,159.146332L142.463654,159.214081L142.648697,159.275131L142.832733,159.329559L143.015656,159.377548L143.197357,159.419296L143.377747,159.455109L143.734268,159.510391L144.084854,159.546722L144.429443,159.567856L144.768433,159.577728L145.102661,159.580078L147.487762,159.560532L147.866089,159.554108L148.258636,159.542908L148.664459,159.524918L149.081329,159.498047L149.505951,159.460236L149.934326,159.409485L150.362213,159.343903L150.785278,159.26178L151.199615,159.161621L151.60199,159.042206L151.797974,158.974991L151.990265,158.902664L152.178787,158.82518L152.363602,158.742508L152.5448,158.654633L152.72258,158.561615L152.758026,158.541016M153.186249,158.283188L153.404999,158.139359L153.733612,157.89978L154.057556,157.643021L154.379227,157.370911L154.700317,157.085556L155.021454,156.789444L155.341797,156.485336L155.659271,156.176239L155.970657,155.865173L156.272217,155.555161L156.559906,155.248932L156.829834,154.948883L156.957077,154.801773L157.078674,154.656845L157.194336,154.514221L157.303925,154.373993L157.407288,154.23616L157.504425,154.100662L157.595459,153.967422L157.680588,153.836258L157.83432,153.57933L157.968628,153.327789L158.087173,153.079193L158.193893,152.831039L158.292511,152.580902L158.386154,152.326843L158.477112,152.067352L158.566895,151.801483L158.656494,151.528641L158.836731,150.960953L158.836731,122.011246L156.343124,122.011246M155.843124,122.011246L153.836731,122.011246L153.836731,123.511246L151.336731,123.511246L151.336731,122.011246L148.336731,122.011246L148.336731,119.511246L151.336731,119.511246L151.336731,106.367157M151.336731,105.867157L151.336731,89.960945L148.336731,89.960945L148.336731,87.460945L151.336731,87.460945L151.336731,85.960945L153.836731,85.960945L153.83696,87.460922"/>
    <path transform="matrix(1,0,0,-1,92.674675,-4.042435)" style="stroke:#ff0000;stroke-width:0.050000mm;fill:none" d="M142.529541,82.11734L145.42955,82.11734L145.42955,87.017342L142.529541,87.017342L142.529541,82.11734z"/>
    <path transform="matrix(1,0,0,-1,92.674675,-4.042435)" style="stroke:#ff0000;stroke-width:0.050000mm;fill:none" d="M137.429535,70.517349L137.429535,73.417343L132.529541,73.417343L132.529541,70.517349L137.429535,70.517349z"/>
    <path transform="matrix(1,0,0,-1,92.674675,-4.042435)" style="stroke:#ff0000;stroke-width:0.050000mm;fill:none" d="M125.029541,70.517349L125.029541,73.417343L120.129547,73.417343L120.129547,70.517349L125.029541,70.517349z"/>
    <path transform="matrix(1,0,0,-1,92.674675,-4.042435)" style="stroke:#ff0000;stroke-width:0.050000mm;fill:none" d="M147.029541,74.517349L146.923431,74.170425L146.799591,73.837288L146.658234,73.517807L146.499878,73.211586L146.32576,72.917763L146.137878,72.634819L145.939011,72.360611L145.731842,72.092499L145.518158,71.827637L145.297913,71.563225L145.068634,71.296738L144.825592,71.0261L144.563293,70.749878L144.423248,70.609436L144.276581,70.467415L144.122925,70.323883L143.962143,70.17897L143.794266,70.032883L143.619537,69.885872L143.251282,69.590401L142.861877,69.295593L142.456909,69.004951L142.042084,68.722183L141.622314,68.450989L141.200821,68.194801L140.779129,67.956696L140.357361,67.739342L140.146225,67.639175L139.934708,67.545013L139.722626,67.457077L139.509827,67.375549L139.296082,67.300583L139.081299,67.232315L138.865311,67.170845L138.64801,67.116241L138.429337,67.06855L138.209229,67.027802L137.98761,66.994003L137.764496,66.967194L137.539825,66.947334L137.313629,66.934425L137.085876,66.928459L136.856567,66.929512L135.535355,66.95224L133.131027,66.99913L132.046387,67.023315L131.037567,67.048004L130.101074,67.073341L129.231628,67.099335L128.421936,67.126175L127.662277,67.154037L126.940147,67.183105L125.544312,67.246063L123.30809,67.355461L121.571594,67.436104L120.62426,67.476112L119.640442,67.513687L118.640663,67.546532L117.649048,67.571976L117.164185,67.580971L116.690697,67.586937L116.231453,67.589401L115.789024,67.58799L115.365654,67.582138L114.963127,67.571381L114.582718,67.555222L114.225121,67.533142L113.89032,67.504601L113.577538,67.469093L113.285316,67.426064L113.011581,67.374947L112.753838,67.315208L112.509346,67.246315L112.275269,67.167747L112.048813,67.078987L111.827438,66.979576L111.608986,66.869057L111.391853,66.747009L111.17514,66.613075L110.958679,66.466911L110.742973,66.308304L110.529076,66.137047L110.31842,65.953087L110.112671,65.7565L109.913681,65.547485L109.723312,65.326393L109.543274,65.093765L109.375061,64.850327L109.219765,64.597023L109.078003,64.335037L108.949951,64.065704L108.835312,63.790504L108.733505,63.511002L108.643631,63.228737L108.564621,62.945229L108.49527,62.661842L108.434296,62.379784L108.380447,62.100021L108.332542,61.823227L108.250702,61.279366L108.18306,60.746208L108.126549,60.218178L108.079361,59.690132L108.039543,59.161278L107.984985,58.386444L107.964951,58.142853L107.942398,57.911728L107.916397,57.695938L107.8862,57.497757L107.851242,57.318611L107.811325,57.158646L107.766632,57.01635L107.717697,56.888741L107.665184,56.771782L107.550293,56.553284L107.486099,56.446388L107.414268,56.340767L107.331161,56.238907L107.233017,56.144829L107.116974,56.063004L107.051849,56.028008L106.982101,55.997528L106.908043,55.971886L106.8302,55.951317L106.665833,55.925819L106.495544,55.92112L106.32682,55.936432L106.166855,55.970261L106.021507,56.02092L105.89431,56.0868L105.785934,56.166618L105.69445,56.259506L105.616295,56.365051L105.547241,56.483231L105.483292,56.614456L105.421356,56.759537L105.35939,56.919632L105.296341,57.096062L105.231956,57.290245L105.166588,57.503517L105.100914,57.737022L105.035812,57.991539L104.97216,58.267418L104.910706,58.564445L104.852005,58.881866L104.79641,59.218452L104.744156,59.572571L104.695358,59.942268L104.650009,60.325378L104.60804,60.719513L104.569336,61.122223L104.501038,61.943451L104.443909,62.770164L104.397369,63.586655L104.37822,63.987579L104.362129,64.382538L104.349396,64.77121L104.345024,64.957733M104.336617,65.457657L104.335709,65.529793L104.335678,65.900345L104.340897,66.265778L104.351868,66.62677L104.369125,66.984032L104.393188,67.338318L104.424477,67.690277L104.463394,68.040504L104.510269,68.38942L104.565346,68.737236L104.628769,69.083916L104.700562,69.429222L104.78067,69.772675L104.868973,70.113647L104.965279,70.451385L105.069336,70.78508L105.180862,71.113884L105.29953,71.436958L105.425034,71.753525L105.557037,72.062881L105.695221,72.364479L105.839294,72.657959L105.988991,72.943192L106.144104,73.220268L106.304459,73.489571L106.469925,73.751656L106.640373,74.00724L106.815674,74.257126L106.995697,74.502151L107.180283,74.743134L107.562225,75.215927L107.959122,75.67981L108.367157,76.135475L108.781158,76.579117L109.195358,77.003708L109.400963,77.206345L109.60495,77.401283L109.807068,77.587738L110.007301,77.765167L110.205933,77.933342L110.403519,78.092377L110.600983,78.242798L110.799522,78.385521L111.000603,78.521774L111.205833,78.653015L111.416916,78.78083L111.635574,78.906898L111.863487,79.032898L112.102226,79.160431L112.353165,79.290962L112.895844,79.565575L113.496994,79.863289L114.87587,80.536362L118.624298,82.347359L119.514343,82.783363L120.402542,83.228271L121.278969,83.682755L121.709846,83.914032L122.134384,84.148323L122.551582,84.385895L122.960487,84.627045L123.360252,84.872086L123.750099,85.121323L124.129349,85.375076L124.497414,85.633636L124.853821,85.897293L125.198227,86.16629L125.530365,86.440849L125.850151,86.721138L126.157555,87.007309L126.452682,87.299477L126.547348,87.399223M126.886322,87.766701L127.006958,87.902069L127.266693,88.212608L127.515335,88.529335L127.753288,88.852264L127.981018,89.181419L128.198975,89.5168L128.407639,89.858421L128.607452,90.206306L128.798889,90.560493L128.982315,90.921028L129.158112,91.288002L129.326553,91.661507L129.487915,92.041656L129.642365,92.428589L129.790024,92.822426L129.931015,93.223289L130.065399,93.631271L130.193146,94.046425L130.314316,94.468758L130.428818,94.898239L130.536621,95.33474L130.637665,95.778091L130.731857,96.228004L130.819092,96.68409L130.899323,97.145866L130.972443,97.612724L131.038391,98.083916L131.097092,98.55854L131.148499,99.035576L131.192596,99.513878L131.22934,99.992172L131.258728,100.469154L131.280701,100.943436L131.295242,101.413651L131.302307,101.878403L131.301941,102.336365L131.293823,102.78624L131.277954,103.226837L131.254181,103.657066L131.222321,104.075981L131.182159,104.482796L131.133392,104.87693L131.075714,105.258011L131.008728,105.625916L130.931976,105.980766L130.844818,106.322792L130.747009,106.65303L130.637848,106.972107L130.516754,107.281013L130.38327,107.580856L130.236862,107.872772L130.077179,108.157982L129.903915,108.437622L129.716888,108.71283L129.516083,108.984604L129.301605,109.253822L129.073792,109.521164L128.83316,109.787094L128.580429,110.051842L128.316498,110.31546L128.042374,110.57782L127.759209,110.838631L127.468231,111.097488L127.170692,111.353912L126.867882,111.607361L126.251511,112.102951L125.628563,112.579636L125.317162,112.809624L125.006851,113.033554L124.698196,113.25119L124.391533,113.462463L124.087021,113.66745L123.784653,113.866348L123.185715,114.247261L122.592674,114.608971L122.00296,114.956596L120.826462,115.634544L120.240784,115.978424L119.661804,116.334641L119.376755,116.519363L119.095871,116.709473L118.820107,116.90564L118.550446,117.108444L118.287834,117.318405L118.033195,117.53595L117.787399,117.761414L117.551193,117.995003L117.325218,118.236816L117.109978,118.486839L116.90583,118.744926L116.713013,119.010834L116.531647,119.284225L116.361763,119.564697L116.203293,119.851791L116.056107,120.144989L115.920013,120.443733L115.794769,120.747482L115.680084,121.055664L115.575684,121.367706L115.481255,121.683105L115.396507,122.001343L115.321144,122.321976L115.254906,122.644569L115.197517,122.968719L115.148735,123.293991L115.108337,123.61998L115.076088,123.946228L115.051819,124.272263L115.035309,124.597542L115.026421,124.921478L115.025009,125.243439L115.030899,125.562637L115.043983,125.87825L115.064194,126.189331L115.091431,126.49485L115.125648,126.793686L115.166832,127.084671L115.214958,127.36657L115.270042,127.638123L115.332115,127.898056L115.401253,128.14505L115.477539,128.377838L115.561096,128.595139L115.652069,128.795731L115.750618,128.978424L115.856949,129.14209L115.971268,129.28569L116.093803,129.408295L116.22477,129.509079L116.293495,129.551071L116.36441,129.587357L116.437561,129.617859L116.512962,129.642563L116.590652,129.661407L116.670647,129.674377L116.75296,129.681473L116.837616,129.682526L116.924629,129.677872L117.013992,129.667389L117.105728,129.651169L117.199799,129.629303L117.394905,129.569016L117.59903,129.487778L117.811722,129.387283L118.032326,129.269638L118.260063,129.137329L118.494011,128.993164L118.733215,128.840118L119.472488,128.358749L119.723091,128.20105L119.974541,128.049377L120.226334,127.906143L120.47818,127.773315L120.730003,127.652496L120.981903,127.544876L121.234116,127.45134L121.487,127.372414L121.740997,127.308342L121.996605,127.259102L122.254326,127.224426L122.514664,127.203827L122.778076,127.196594L123.044937,127.201881L123.315567,127.218742L123.590179,127.246078L123.86898,127.282768L124.152069,127.327621L124.439529,127.379471L124.731445,127.437195L125.328743,127.566101L125.94426,127.707359L126.578514,127.85672L127.232201,128.012939L127.905693,128.176926L128.598389,128.350647L129.308136,128.535965L129.491898,128.586227M129.974182,128.718155L130.030548,128.733582L130.758347,128.94191L131.481094,129.156128L132.527786,129.471558L133.182373,129.664871L133.492905,129.753235L133.791214,129.834961L134.076996,129.909409L134.350372,129.976227L134.612061,130.035355L134.863342,130.087067L135.105988,130.131973L135.342331,130.170959L135.57486,130.205078L136.03891,130.263306L136.517151,130.315384L137.022171,130.367203L137.555374,130.419525L138.10701,130.467773L138.660767,130.504242L138.932861,130.515396L139.199005,130.520554L139.457687,130.519135L139.707916,130.510391L139.949371,130.494293L140.182449,130.471085L140.408051,130.441177L140.627502,130.405151L141.054474,130.317459L141.476944,130.213104L141.906235,130.094818L142.348358,129.961502L142.574554,129.887955L142.803741,129.808838L143.035248,129.723389L143.268127,129.630737L143.501343,129.530151L143.733582,129.420868L143.963455,129.302338L144.189453,129.174072L144.410004,129.035812L144.623657,128.88739L144.828949,128.72879L145.024597,128.560211L145.209503,128.382004L145.382782,128.194687L145.543945,127.998993L145.692749,127.795837L145.829437,127.586319L145.954514,127.371696L146.068787,127.153336L146.173279,126.93264L146.269119,126.71106L146.357513,126.48999L146.516663,126.05455L146.659103,125.635086L147.029602,124.517365L147.029572,101.588081M147.029572,101.088081L147.029541,75.576294M147.029541,75.076294L147.029541,74.517349"/>
    <path transform="matrix(1,0,0,-1,92.674675,-4.042435)" style="stroke:#ff0000;stroke-width:0.050000mm;fill:none" d="M101.24086,83.256905L104.140854,83.256905L104.140854,88.156898L101.24086,88.156898L101.24086,83.256905z"/>
    <path transform="matrix(1,0,0,-1,92.674675,-4.042435)" style="stroke:#ff0000;stroke-width:0.050000mm;fill:none" d="M96.140854,71.656906L96.140854,74.5569L91.24086,74.5569L91.24086,71.656906L96.140854,71.656906z"/>
    <path transform="matrix(1,0,0,-1,92.674675,-4.042435)" style="stroke:#ff0000;stroke-width:0.050000mm;fill:none" d="M83.74086,71.656906L83.74086,74.5569L78.840858,74.5569L78.840858,71.656906L83.74086,71.656906z"/>
    <path transform="matrix(1,0,0,-1,92.674675,-4.042435)" style="stroke:#ff0000;stroke-width:0.050000mm;fill:none" d="M105.74086,75.656898L105.634735,75.309982L105.51091,74.976837L105.369537,74.657364L105.211197,74.351135L105.037064,74.057312L104.849197,73.774368L104.650322,73.50016L104.443153,73.232048L104.229462,72.967186L104.009239,72.702774L103.779945,72.436287L103.536926,72.165649L103.274612,71.889427L103.134583,71.748985L102.987907,71.606964L102.834259,71.463432L102.673477,71.318527L102.5056,71.172432L102.330887,71.025421L101.962631,70.729965L101.573219,70.435158L101.168243,70.144508L100.753433,69.861748L100.333649,69.590553L99.91217,69.334366L99.490479,69.096252L99.06871,68.878899L98.857559,68.778732L98.646042,68.684578L98.43396,68.596642L98.221146,68.515114L98.007416,68.440147L97.792625,68.37188L97.57663,68.31041L97.359329,68.255798L97.140656,68.208107L96.92054,68.167358L96.698936,68.133568L96.475815,68.106758L96.251152,68.086899L96.024948,68.07399L95.797195,68.068024L95.567894,68.069077L94.246674,68.091835L91.842361,68.138725L90.757713,68.16288L89.748901,68.187569L88.812393,68.212868L87.942963,68.238869L87.133278,68.265709L86.960861,68.272034M86.461197,68.290359L86.373611,68.293571L85.651482,68.322639L84.255646,68.385597L82.019432,68.494987L80.282928,68.575668L79.335594,68.615677L78.351768,68.653244L77.35199,68.686096L76.360382,68.711533L75.875511,68.720535L75.402031,68.726501L74.94278,68.728966L74.500359,68.727554L74.076981,68.721695L73.674454,68.710945L73.294044,68.694786L72.936447,68.672699L72.601646,68.644196L72.288864,68.608688L71.996643,68.565659L71.7229,68.514542L71.465164,68.454796L71.220673,68.38591L70.986588,68.307335L70.760139,68.218582L70.538765,68.119171L70.320313,68.008652L70.10318,67.886604L69.886467,67.75267L69.669998,67.606522L69.4543,67.447891L69.240402,67.276642L69.029739,67.092697L68.823997,66.896111L68.625015,66.687088L68.434631,66.466003L68.254601,66.233368L68.086388,65.989929L67.931091,65.736633L67.789337,65.47464L67.661278,65.205307L67.546646,64.930122L67.444839,64.65062L67.354965,64.368355L67.275955,64.084846L67.206596,63.801453L67.145622,63.519402L67.091782,63.239632L67.043877,62.962845L66.962036,62.418983L66.894394,61.885818L66.837875,61.357796L66.790695,60.82975L66.75087,60.300896L66.69632,59.526062L66.676285,59.282471L66.653732,59.051346L66.627739,58.835556L66.597542,58.637375L66.562584,58.458244L66.522667,58.298256L66.477982,58.155968L66.429047,58.028366L66.376526,57.911407L66.261627,57.692917L66.197441,57.586029L66.12561,57.480392L66.042496,57.378548L65.944351,57.284462L65.828316,57.202644L65.763191,57.167641L65.693443,57.137169L65.619392,57.111519L65.541534,57.090958L65.377174,57.065453L65.206894,57.06076L65.038162,57.076073L64.878204,57.109894L64.732849,57.160561L64.605652,57.226433L64.497276,57.306244L64.405792,57.399132L64.327629,57.504646L64.258575,57.622826L64.194618,57.754044L64.132683,57.899124L64.070724,58.059212L64.007675,58.235641L63.943298,58.429604L63.877922,58.642876L63.812252,58.876381L63.747147,59.130898L63.683491,59.406776L63.622036,59.703796L63.563332,60.021217L63.507744,60.357803L63.455494,60.711914L63.406689,61.081619L63.36134,61.464722L63.319374,61.858864L63.280663,62.261574L63.212364,63.082794L63.155243,63.909515L63.108707,64.725998L63.089565,65.126915L63.07346,65.521881L63.060722,65.910553L63.05175,66.292908L63.047005,66.669144L63.046978,67.039696L63.052189,67.405121L63.063168,67.766113L63.080433,68.123383L63.104477,68.477669L63.135757,68.829628L63.174675,69.179855L63.22155,69.528763L63.27663,69.876579L63.340046,70.223274L63.411839,70.568581L63.491951,70.912025L63.580261,71.252991L63.676563,71.590729L63.780621,71.924431L63.892143,72.253235L64.010818,72.576309L64.136322,72.892868L64.268326,73.202225L64.406509,73.503822L64.550583,73.79731L64.700279,74.082535L64.855392,74.359619L65.015747,74.628914L65.181213,74.890999L65.351654,75.146584L65.526955,75.396477L65.706978,75.641495L65.891556,75.882477L66.251953,76.328575M66.576256,76.709114L66.670395,76.819145L67.078445,77.274803L67.492432,77.718445L67.906639,78.143036L68.112244,78.345665L68.316223,78.540604L68.518341,78.727058L68.718575,78.904495L68.917206,79.072662L69.114792,79.231697L69.312248,79.382118L69.510788,79.524841L69.711868,79.661095L69.917099,79.792328L70.128181,79.920143L70.346832,80.046211L70.574753,80.172218L70.813492,80.299751L71.06443,80.430283L71.607109,80.704887L72.20826,81.002609L73.587143,81.675682L77.335579,83.486679L78.225624,83.922676L79.113823,84.367584L79.99025,84.822075L80.421127,85.053352L80.845673,85.287636L81.262863,85.525208L81.671776,85.766365L82.071533,86.011406L82.46138,86.260643L82.84063,86.514397L83.208694,86.772964L83.565109,87.036613L83.909508,87.305611L84.241653,87.58017L84.561432,87.860458L84.868835,88.146629L85.163971,88.438797L85.447014,88.73703L85.718246,89.041389L85.977982,89.351929L86.226624,89.668648L86.464569,89.991585L86.692299,90.320732L86.910248,90.656113L87.118919,90.997742L87.318741,91.345627L87.51017,91.699814L87.693604,92.060349L87.869385,92.427322L88.037842,92.800819L88.199188,93.180969L88.353638,93.567902L88.501305,93.961746L88.642288,94.36261L88.776665,94.770584L88.904434,95.185738L89.025589,95.60807L89.140099,96.037552L89.24791,96.47406L89.348953,96.917412L89.443138,97.367317L89.530388,97.823402L89.610611,98.285179L89.683731,98.752037L89.74968,99.223213L89.80838,99.697845L89.859787,100.174889L89.90387,100.653183L89.940613,101.131485L89.970001,101.608459L89.991982,102.082748L90.006516,102.552963L90.013565,103.017723L90.013214,103.475677L90.005096,103.92556L89.989227,104.36615L89.965454,104.796379L89.933594,105.215294L89.893425,105.622108L89.844666,106.016251L89.786987,106.397324L89.719994,106.765228L89.714958,106.788506M89.603638,107.275887L89.556244,107.462303L89.458435,107.792542L89.349274,108.11161L89.228195,108.420517L89.094696,108.720352L88.948288,109.012283L88.788605,109.297485L88.615341,109.577133L88.428329,109.852333L88.227516,110.124115L88.013046,110.393326L87.785233,110.660675L87.544601,110.92659L87.29187,111.191345L87.027924,111.454971L86.753807,111.717323L86.47065,111.978127L86.179672,112.236984L85.882133,112.493416L85.579323,112.746864L84.962952,113.242447L84.339996,113.719131L84.028595,113.949127L83.718285,114.17305L83.40963,114.390686L83.102966,114.601974L82.798462,114.806961L82.496086,115.005859L81.897148,115.386765L81.304108,115.748474L80.714394,116.0961L79.537895,116.774048L78.952103,117.117981L78.373123,117.474197L78.088074,117.65892L77.80719,117.84903L77.531425,118.045197L77.261757,118.248001L76.999146,118.457962L76.744507,118.675507L76.498711,118.90097L76.262505,119.13456L76.03653,119.376373L75.821289,119.626396L75.617134,119.884483L75.424316,120.150391L75.242958,120.423782L75.073067,120.704254L74.914604,120.991348L74.767418,121.284538L74.631325,121.58329L74.506073,121.887039L74.391396,122.195206L74.286995,122.507263L74.192566,122.822655L74.107819,123.1409L74.032455,123.461525L73.966209,123.784119L73.908813,124.108261L73.860039,124.43354L73.819633,124.759521L73.787392,125.085777L73.763107,125.411804L73.746605,125.737091L73.737701,126.061035L73.736252,126.38298L73.742142,126.702179L73.755226,127.017792L73.775429,127.32888L73.802673,127.634399L73.836899,127.933228L73.878082,128.224213L73.926201,128.506119L73.981285,128.777664L74.043365,129.037598L74.112503,129.284592L74.188789,129.51738L74.272346,129.73468L74.363319,129.935287L74.461868,130.117981L74.568199,130.281631L74.682518,130.425232L74.805046,130.547836L74.93602,130.648621L75.004745,130.690613L75.075668,130.726898L75.148811,130.757416L75.224213,130.782104L75.301903,130.800934L75.381897,130.813889L75.464211,130.820984L75.548874,130.822037L75.63588,130.817383L75.72525,130.8069L75.816978,130.79068L75.911057,130.768768L76.106155,130.708481L76.310287,130.627243L76.522972,130.526749L76.743576,130.409103L76.971313,130.27681L77.205269,130.132629L77.444473,129.979584L78.183746,129.49823L78.434349,129.340515L78.685799,129.188858L78.937592,129.045624L79.189438,128.912781L79.441261,128.791962L79.693161,128.684357L79.945374,128.59082L80.198257,128.511887L80.452263,128.447815L80.707863,128.398575L80.965584,128.363892L81.225922,128.343262L81.489334,128.336029L81.756195,128.341309L82.026817,128.358185L82.301437,128.385529L82.580238,128.422211L82.863327,128.467056L83.150795,128.518906L83.442703,128.57663L84.040009,128.705536L84.655518,128.846802L85.28978,128.996155L85.943466,129.152374L86.616959,129.31636L87.309662,129.490067L88.019409,129.6754L88.741806,129.873016L89.469604,130.081329L90.192352,130.295563L91.239052,130.610992L91.893631,130.804291L92.204163,130.89267L92.502472,130.974396L92.788254,131.048843L93.06163,131.115662L93.323334,131.174789L93.574593,131.226501L93.817261,131.271408L94.053596,131.310394L94.286133,131.344513L94.750168,131.40274L95.228416,131.454803L95.733429,131.506622L96.266632,131.558945L96.818268,131.607208L97.372032,131.643677L97.644112,131.654831L97.910278,131.659973L98.168953,131.658569L98.419174,131.649811L98.660645,131.633759L98.893723,131.61055L99.119324,131.580627L99.338776,131.544617L99.765762,131.456924L100.188217,131.35257L100.617508,131.234283L101.059631,131.100983L101.285828,131.02742L101.515015,130.948318L101.746506,130.862854L101.979416,130.770203L102.212624,130.669601L102.44487,130.560333L102.674744,130.441788L102.900726,130.313538L103.1213,130.175278L103.334946,130.02684L103.540237,129.868256L103.735886,129.699677L103.920776,129.521469L104.09407,129.334152L104.255219,129.138458L104.404037,128.935303L104.540726,128.725784L104.665794,128.511169L104.780067,128.292786L104.884552,128.072113L104.980392,127.850525L105.068771,127.629456L105.227936,127.194016L105.370369,126.774559L105.740875,125.65683L105.740868,102.032227M105.740868,101.532227L105.74086,75.656921"/>
    <path transform="matrix(1,0,0,-1,92.674675,-4.042435)" style="stroke:#ff0000;stroke-width:0.050000mm;fill:none" d="M193.504395,165L59.146263,165L59.146263,52.915127L193.504395,52.915127L193.504395,165z"/>
</svg>
