<?xml version="1.0" encoding="UTF-8" standalone="no"?>
<svg xmlns="http://www.w3.org/2000/svg" xmlns:xlink="http://www.w3.org/1999/xlink" width="134.358mm" height="112.085mm" viewBox="25.820938 -161.042435 134.358124 112.084869">
    <path transform="matrix(1,0,0,-1,-57,-5)" style="stroke:#ff0000;stroke-width:0.050000mm;fill:none" d="M210.765656,139.685608L210.997589,139.67038L211.222519,139.62532L211.437927,139.551895L211.641205,139.451599L211.829865,139.325882L212.001297,139.176224L212.152954,139.004105L212.282318,138.810989L212.384979,138.602463L212.458313,138.385086L212.502335,138.161835L212.516998,137.935608L212.502335,137.709381L212.458313,137.48613L212.384979,137.268753L212.282318,137.060226L212.152954,136.867111L212.001297,136.694992L211.829865,136.545334L211.641205,136.419617L211.437927,136.319321L211.222519,136.245895L210.997589,136.200836L210.765656,136.185608L210.533829,136.200989L210.309021,136.246155L210.09375,136.319672L209.890594,136.420013L209.702087,136.545746L209.530762,136.695389L209.379211,136.867477L209.249969,137.060547L209.147385,137.268997L209.074097,137.486298L209.030121,137.709473L209.015472,137.935608L209.030121,138.161743L209.074097,138.384918L209.147385,138.602219L209.249969,138.810654L209.379211,139.003708L209.530762,139.175812L209.702087,139.325455L209.890594,139.451202L210.09375,139.551544L210.309021,139.625061L210.533829,139.670227L210.765656,139.685608z"/>
    <path transform="matrix(1,0,0,-1,-57,-5)" style="stroke:#ff0000;stroke-width:0.050000mm;fill:none" d="M188.765656,153.435608L193.765656,153.435608L193.765656,150.435608L208.765656,150.435608L208.765656,153.435608L213.765656,153.435608L213.765656,138.707413M213.765656,138.207413L213.765656,122.4356L208.765656,122.4356L208.765656,125.4356L193.765656,125.4356L193.765656,122.4356L188.765656,122.4356"/>
    <path transform="matrix(1,0,0,-1,-57,-5)" style="stroke:#ff0000;stroke-width:0.050000mm;fill:none" d="M193.765671,117.770508L188.765671,117.770508L188.765671,88.220207L193.765671,88.220207L193.765671,117.770508z"/>
    <path transform="matrix(1,0,0,-1,-57,-5)" style="stroke:#ff0000;stroke-width:0.050000mm;fill:none" d="M168.604218,114.559784L163.704224,114.559784L163.704224,111.659775L168.604218,111.659775L168.604218,114.559784z"/>
    <path transform="matrix(1,0,0,-1,-57,-5)" style="stroke:#ff0000;stroke-width:0.050000mm;fill:none" d="M166.204224,107.959778L166.204224,103.059784L169.104218,103.059784L169.104218,107.959778L166.204224,107.959778z"/>
    <path transform="matrix(1,0,0,-1,-57,-5)" style="stroke:#ff0000;stroke-width:0.050000mm;fill:none" d="M143.80423,111.659775L148.704224,111.659775L148.704224,114.559784L143.80423,114.559784L143.80423,111.659775z"/>
    <path transform="matrix(1,0,0,-1,-57,-5)" style="stroke:#ff0000;stroke-width:0.050000mm;fill:none" d="M127.315536,115.699341L122.415535,115.699341L122.415535,112.799347L127.315536,112.799347L127.315536,115.699341z"/>
    <path transform="matrix(1,0,0,-1,-57,-5)" style="stroke:#ff0000;stroke-width:0.050000mm;fill:none" d="M124.915527,109.099335L124.915527,104.199341L127.815536,104.199341L127.815536,109.099335L124.915527,109.099335z"/>
    <path transform="matrix(1,0,0,-1,-57,-5)" style="stroke:#ff0000;stroke-width:0.050000mm;fill:none" d="M102.515533,112.799347L107.415527,112.799347L107.415527,115.699341L102.515533,115.699341L102.515533,112.799347z"/>
    <path transform="matrix(1,0,0,-1,-57,-5)" style="stroke:#ff0000;stroke-width:0.050000mm;fill:none" d="M91.994934,130.886932L89.694931,130.886932L89.694931,127.986931L91.994934,127.986931L91.994934,130.886932z"/>
    <path transform="matrix(1,0,0,-1,-57,-5)" style="stroke:#ff0000;stroke-width:0.050000mm;fill:none" d="M89.694931,145.886932L91.994934,145.886932L91.994934,148.786926L89.694931,148.786926L89.694931,145.886932z"/>
    <path transform="matrix(1,0,0,-1,-57,-5)" style="stroke:#ff0000;stroke-width:0.050000mm;fill:none" d="M121.545235,148.886932L121.545235,145.986938L123.84523,145.986938L123.84523,148.886932L121.545235,148.886932z"/>
    <path transform="matrix(1,0,0,-1,-57,-5)" style="stroke:#ff0000;stroke-width:0.050000mm;fill:none" d="M123.84523,130.786926L121.545235,130.786926L121.545235,127.886932L123.84523,127.886932L123.84523,130.786926z"/>
    <path transform="matrix(1,0,0,-1,-57,-5)" style="stroke:#ff0000;stroke-width:0.050000mm;fill:none" d="M145.194946,136.636932L144.96312,136.652313L144.738297,136.697479L144.52301,136.770996L144.319855,136.871338L144.131348,136.99707L143.960022,137.146713L143.808472,137.318802L143.67923,137.511871L143.576645,137.720322L143.503357,137.937622L143.459381,138.160797L143.444733,138.386932L143.459381,138.613068L143.503357,138.836243L143.576645,139.053543L143.67923,139.261993L143.808472,139.455063L143.960022,139.627151L144.131348,139.776794L144.319855,139.902527L144.52301,140.002869L144.738297,140.076385L144.96312,140.121552L145.194946,140.136932L145.426773,140.121552L145.651581,140.076385L145.866852,140.002869L146.070007,139.902527L146.258514,139.776794L146.42984,139.627151L146.58139,139.455063L146.710632,139.261993L146.813217,139.053543L146.886505,138.836243L146.930481,138.613068L146.945129,138.386932L146.930481,138.160797L146.886505,137.937622L146.813217,137.720322L146.710632,137.511871L146.58139,137.318802L146.42984,137.146713L146.258514,136.99707L146.070007,136.871338L145.866852,136.770996L145.651581,136.697479L145.426773,136.652313L145.194946,136.636932z"/>
    <path transform="matrix(1,0,0,-1,-57,-5)" style="stroke:#ff0000;stroke-width:0.050000mm;fill:none" d="M125.694931,125.886932L128.194931,125.886932L128.194931,122.886932L133.194931,122.886932L133.194931,125.886932L140.694946,125.886932L140.694946,122.886932L145.694946,122.886932L145.694946,125.886932L148.194946,125.886932L148.194946,138.867752M148.194946,139.367752L148.194946,150.886932L145.694946,150.886932L145.694946,153.886932L140.694946,153.886932L140.694946,150.886932L133.194931,150.886932L133.194931,153.886932L128.194931,153.886932L128.194931,150.886932L125.694931,150.886932"/>
    <path transform="matrix(1,0,0,-1,-57,-5)" style="stroke:#ff0000;stroke-width:0.050000mm;fill:none" d="M90.694931,150.886932L85.694931,150.886932L85.694931,139.281021M85.694931,138.781021L85.694931,125.886932L90.694931,125.886932L90.694931,122.886932L95.694931,122.886932L95.694931,125.886932L120.694931,125.886932L120.694931,122.886932L125.694931,122.886932L125.694931,153.886932L120.694931,153.886932L120.694931,150.886932L95.694931,150.886932L95.694931,153.886932L90.694931,153.886932L90.694931,150.886932"/>
    <path transform="matrix(1,0,0,-1,-57,-5)" style="stroke:#ff0000;stroke-width:0.050000mm;fill:none" d="M188.765671,153.435272L188.765671,120.270172L193.765671,120.270172L193.765671,121.770172L196.265671,121.770172L196.265671,120.270172L199.265671,120.270172L199.265671,117.770172L196.265671,117.770172L196.265671,106.165497M196.265671,105.665497L196.265671,88.219879L199.265671,88.219879L199.265671,85.719872L196.265671,85.719872L196.265671,84.219872L193.765671,84.219872L193.765671,85.719872L188.7659,85.719872L188.7659,56.770172L188.946136,56.202477L189.035736,55.929619L189.125519,55.663757L189.216476,55.404274L189.31012,55.1502L189.408722,54.900078L189.515457,54.651909L189.634003,54.403328L189.768311,54.151779L189.922043,53.894844L190.007172,53.76368L190.098206,53.63044L190.195343,53.494949L190.298706,53.357117L190.408295,53.216881L190.523956,53.074265L190.645554,52.929344L190.772797,52.782227L191.042725,52.48217L191.330414,52.175941L191.631973,51.865929L191.943359,51.554871L192.260818,51.245758L192.581177,50.94165L192.902313,50.645546L193.223404,50.360191L193.545074,50.088074L193.869019,49.831322L194.197632,49.591736L194.533722,49.370766L194.880051,49.169487L195.057831,49.076469L195.239044,48.988609L195.423859,48.905922L195.612381,48.828438L195.804657,48.756119L196.000641,48.688904L196.40303,48.569496L196.817368,48.46933L197.240433,48.387207L197.668304,48.321632L198.096695,48.270882L198.521301,48.233078L198.938171,48.206192L199.343994,48.188202L199.736542,48.177017L200.114883,48.170601L202.499969,48.151176L202.834198,48.153641L203.173187,48.163483L203.517792,48.184616L203.868378,48.22094L204.224884,48.276222L204.405273,48.312042L204.586975,48.35379L204.769897,48.401779L204.953949,48.456207L205.138977,48.517265L205.32489,48.584999L205.511536,48.659447L205.698792,48.740547L205.886475,48.828186L206.074402,48.922188L206.450317,49.12841L206.825043,49.357002L207.196991,49.605247L207.564301,49.870056L207.925171,50.14817L208.277588,50.43634L208.619507,50.731445L208.948792,51.030663L209.263397,51.331497L209.561432,51.631783L209.841339,51.929726L210.101929,52.223892L210.34256,52.513252L210.563293,52.797119L210.765015,53.075264L210.949402,53.347878L211.118988,53.61554L211.276855,53.879242L211.569336,54.400352L211.84552,54.925262L211.978912,55.194557L212.10733,55.471481L212.228149,55.758049L212.338531,56.055672L212.435822,56.364899L212.518036,56.68512L212.584503,57.014206L212.6362,57.348419L212.675476,57.682716L212.705444,58.011383L212.788208,59.17276L212.803009,59.414085L212.810425,59.639374L212.805817,59.8535L212.784393,60.06179L212.742554,60.269043L212.678284,60.478828L212.591278,60.693153L212.48233,60.912552L212.35257,61.136246L212.202789,61.362236L212.032928,61.58744L211.84198,61.807968L211.738068,61.915131L211.628326,62.019478L211.512512,62.120461L211.390564,62.21756L211.262421,62.310287L211.128113,62.398178L210.987793,62.480858L210.841705,62.558022L210.690308,62.629425L210.534119,62.694939L210.373962,62.754532L210.210602,62.808258L209.878387,62.898888L209.545868,62.969322L209.221771,63.02359L208.63031,63.107368L208.498566,63.128708L208.374115,63.152489L208.257111,63.179977L208.147461,63.212395L208.045074,63.250977L207.949707,63.296844L207.861115,63.35096L207.779144,63.414085L207.703644,63.486679L207.634583,63.568863L207.572113,63.660416L207.516541,63.760712L207.468323,63.868729L207.42804,63.983101L207.396393,64.102226L207.374084,64.22435L207.361847,64.347603L207.360077,64.470154L207.36969,64.590172L207.390778,64.705994L207.423584,64.816147L207.467987,64.919456L207.523682,65.015053L207.590057,65.102348L207.666412,65.181015L207.751953,65.250931L207.845673,65.312157L207.946716,65.364922L208.054108,65.409554L208.166992,65.446472L208.284637,65.476143L208.406525,65.499001L208.532166,65.515549L208.661316,65.526207L208.793854,65.531456L208.929688,65.531708L209.211517,65.518661L209.507721,65.489655L209.819336,65.446495L210.147095,65.389961L210.49057,65.319672L210.848175,65.234169L211.217224,65.131104L211.594269,65.007576L211.784515,64.937126L211.975189,64.860321L212.16568,64.776756L212.355438,64.68602L212.543823,64.587753L212.730286,64.481544L212.914185,64.367088L213.094971,64.244133L213.272064,64.112434L213.444916,63.971809L213.613037,63.822151L213.775879,63.663391L213.933044,63.495506L214.084015,63.318535L214.228455,63.132561L214.365906,62.937721L214.496094,62.734184L214.618591,62.522156L214.733215,62.30191L214.83963,62.073738L214.937653,61.837982L215.0271,61.595032L215.107788,61.345291L215.179596,61.089211L215.242523,60.827278L215.296448,60.560005L215.341461,60.287941L215.377563,60.01165L215.404816,59.73175L215.423431,59.44886L215.433563,59.163643L215.435333,58.876762L215.429169,58.58889L215.415253,58.30072L215.393921,58.012939L215.365509,57.726219L215.330383,57.441231L215.288879,57.158653L215.241394,56.879089L215.188324,56.60318L215.130096,56.331505L215.067078,56.064606L214.999725,55.802986L214.928406,55.547112L214.853516,55.297394L214.775452,55.054184L214.69458,54.817772L214.611237,54.588379L214.525757,54.366173L214.438477,54.151222L214.34964,53.943527L214.259491,53.742989L214.168243,53.549431L214.07608,53.362587L213.983124,53.182114L213.889496,53.007614L213.700409,52.674652L213.509064,52.359589L213.315033,52.057907L213.117432,51.765022L212.914917,51.476585L212.705627,51.188828L212.487213,50.898834L212.257019,50.604698L212.012115,50.305481L211.749695,50.001083L211.467194,49.692146L211.162567,49.379906L210.834381,49.066124L210.482269,48.752914L210.106964,48.442711L209.71051,48.138077L209.296356,47.84166L208.86908,47.556091L208.433899,47.283928L207.99646,47.02758L207.562469,46.789238L207.137299,46.570808L206.929535,46.469551L206.725677,46.373833L206.526123,46.283768L206.331268,46.199448L206.141327,46.120941L205.956451,46.048271L205.776703,45.981438L205.601929,45.92038L205.431946,45.865021L205.266479,45.815239L205.105103,45.770874L204.947327,45.731743L204.640594,45.668251L204.341553,45.622711L204.04538,45.592659L203.747284,45.575272L203.443176,45.567505L203.129883,45.566093L202.467712,45.569626L202.116821,45.568916L201.752441,45.563622L201.375061,45.552681L200.985443,45.535995L199.754303,45.468582L199.327728,45.450836L198.895599,45.442017L198.459656,45.44622L198.021698,45.467171L197.583527,45.507973L197.147049,45.570755L196.714157,45.65641L196.286728,45.764526L195.866547,45.893585L195.455292,46.04129L195.054352,46.204872L194.664917,46.381302L194.28775,46.567627L193.923248,46.761276L193.571304,46.960304L193.231247,47.163696L192.901886,47.371468L192.581573,47.584557L192.268417,47.804512L191.960388,48.033325L191.655518,48.273109L191.35202,48.525932L191.048462,48.793503L190.743912,49.076981L190.43808,49.376747L190.131348,49.692398L189.824524,50.022865L189.518982,50.366577L189.216278,50.721535L188.918259,51.085472L188.626862,51.456017L188.344025,51.830765L188.071564,52.207466L187.811096,52.584114L187.563934,52.959068L187.331146,53.331062L187.113464,53.699127L186.911469,54.062576L186.725494,54.420937L186.555817,54.773941L186.402527,55.121445L186.265671,55.463379L186.265671,142.972305L186.277603,143.122025L186.297607,143.261978L186.32576,143.392136L186.362091,143.512421L186.406616,143.622772L186.459351,143.72316L186.520203,143.813538L186.589081,143.894012L186.66571,143.964676L186.749786,144.025787L186.84079,144.077667L186.938171,144.120667L187.041229,144.155197L187.14917,144.18161L187.261078,144.200241L187.375977,144.211304L187.492783,144.214951L187.610336,144.211166L187.727417,144.199844L187.842789,144.180771L187.955215,144.153702L188.063568,144.118347L188.166748,144.074402L188.263855,144.021606L188.354095,143.959778L188.436951,143.888763L188.512024,143.808548L188.579071,143.719131L188.63797,143.62056L188.688705,143.512894L188.731262,143.396194L188.76561,143.270645"/>
    <path transform="matrix(1,0,0,-1,-57,-5)" style="stroke:#ff0000;stroke-width:0.050000mm;fill:none" d="M177.511627,81.003365L182.511627,81.003365L182.511627,110.553658L177.511627,110.553658L177.511627,81.003365z"/>
    <path transform="matrix(1,0,0,-1,-57,-5)" style="stroke:#ff0000;stroke-width:0.050000mm;fill:none" d="M177.511627,78.503357L182.511627,78.503357L182.511627,55.503357L182.546021,55.377663L182.588593,55.260963L182.639313,55.15329L182.698227,55.054718L182.765274,54.965309L182.840332,54.885094L182.923187,54.814087L183.013428,54.752251L183.110535,54.699455L183.213715,54.65551L183.322052,54.620155L183.434494,54.593094L183.549866,54.574051L183.666931,54.562729L183.784485,54.558945L183.901306,54.562584L184.016205,54.573662L184.128113,54.592293L184.236053,54.618713L184.339111,54.653244L184.436478,54.696259L184.527496,54.748138L184.611572,54.809242L184.688202,54.879913L184.75708,54.960381L184.817932,55.050766L184.870667,55.151138L184.915192,55.26149L184.951523,55.381775L184.979675,55.51194L184.99971,55.651901L185.011627,55.801613L185.011627,143.310547L184.874786,143.652481L184.721497,143.999969L184.551819,144.352982L184.365845,144.711304L184.163849,145.074753L183.946167,145.44281L183.713364,145.814804L183.466232,146.189758L183.205765,146.566406L182.933289,146.943115L182.650452,147.317856L182.35907,147.6884L182.06105,148.052338L181.758347,148.407288L181.452789,148.750992L181.145981,149.081467L180.839233,149.397125L180.533417,149.696884L180.228882,149.980362L179.925308,150.24794L179.621811,150.500748L179.31694,150.74054L179.008911,150.969345L178.695755,151.189316L178.375458,151.40239L178.046082,151.610168L177.706024,151.813568L177.354065,152.012589L176.989563,152.206238L176.612411,152.392578L176.222961,152.569L175.822037,152.732574L175.410767,152.88028L174.990601,153.009338L174.563171,153.117447L174.13028,153.20311L173.693787,153.265884L173.255615,153.306686L172.817657,153.327637L172.381714,153.331818L171.949615,153.322983L171.52301,153.305237L170.291885,153.237823L169.902252,153.22113L169.524872,153.21019L169.160522,153.20491L168.809631,153.204163L168.147461,153.207703L167.834152,153.206284L167.53006,153.198517L167.231949,153.181122L166.93576,153.151062L166.636749,153.105515L166.329987,153.042023L166.172241,153.002884L166.010849,152.958527L165.845367,152.908737L165.675415,152.853394L165.500641,152.792343L165.320862,152.72551L165.136017,152.652832L164.946075,152.574341L164.751221,152.490021L164.551666,152.399948L164.347794,152.30423L164.140015,152.202972L163.714844,151.984543L163.280869,151.746201L162.843445,151.489853L162.408264,151.217682L161.980988,150.932114L161.566849,150.635696L161.170395,150.33107L160.795059,150.020859L160.442947,149.707657L160.114777,149.39386L159.81012,149.081619L159.527634,148.772675L159.265228,148.468292L159.020325,148.169067L158.790115,147.874939L158.571716,147.584946L158.362411,147.29718L158.159912,147.008759L157.962311,146.715866L157.76828,146.414185L157.57692,146.099121L157.387863,145.766159L157.29422,145.59166L157.201263,145.411194L157.1091,145.22435L157.017853,145.030792L156.927704,144.830246L156.838852,144.622559L156.751556,144.407608L156.666092,144.185394L156.582764,143.956009L156.501877,143.719604L156.423813,143.476379L156.348938,143.226669L156.277618,142.970795L156.210236,142.709167L156.147247,142.442261L156.08902,142.170593L156.03595,141.894684L155.98848,141.615128L155.94696,141.332535L155.911835,141.047546L155.883392,140.760834L155.862061,140.473038L155.84816,140.184875L155.84198,139.897003L155.84375,139.610107L155.853882,139.32489L155.872498,139.042023L155.899765,138.762115L155.935867,138.485825L155.980865,138.21376L156.034805,137.946487L156.097717,137.684555L156.169556,137.428467L156.250229,137.178726L156.339661,136.935776L156.437683,136.700027L156.544098,136.471863L156.658691,136.251617L156.781219,136.039581L156.911377,135.836044L157.048859,135.641205L157.193268,135.455231L157.344269,135.278275L157.501404,135.110382L157.664276,134.95163L157.832367,134.801971L158.005219,134.661346L158.182312,134.529648L158.363098,134.406677L158.547012,134.292236L158.733459,134.186035L158.921875,134.087738L159.111633,133.997009L159.302124,133.913437L159.492798,133.836639L159.683044,133.76619L160.060089,133.64267L160.429138,133.539612L160.786743,133.454102L161.130219,133.38382L161.457977,133.327286L161.769623,133.284134L162.065796,133.255127L162.347656,133.242081L162.48349,133.242325L162.615997,133.247574L162.745178,133.25824L162.870819,133.27478L162.992676,133.297638L163.110352,133.327286L163.223236,133.364197L163.330627,133.408829L163.431656,133.461594L163.525391,133.522827L163.610901,133.592743L163.687286,133.671402L163.753662,133.758698L163.809326,133.854294L163.853745,133.957611L163.886551,134.067764L163.907654,134.183594L163.917206,134.303604L163.915436,134.426147L163.903198,134.549408L163.880905,134.671539L163.849274,134.790665L163.80899,134.905029L163.760757,135.013046L163.70517,135.113342L163.642715,135.204895L163.573669,135.287094L163.498138,135.35968L163.416168,135.422806L163.327606,135.476929L163.232239,135.522797L163.129837,135.561371L163.020203,135.593796L162.903198,135.621262L162.778748,135.64505L162.647018,135.666397L162.055542,135.750168L161.731476,135.804428L161.398956,135.874863L161.066711,135.9655L160.903381,136.019226L160.743195,136.078812L160.587036,136.144333L160.435638,136.215744L160.289551,136.292908L160.149216,136.375595L160.014893,136.463486L159.886749,136.556213L159.764801,136.65332L159.649017,136.754303L159.539246,136.858643L159.435349,136.965805L159.244385,137.18634L159.074539,137.411545L158.924759,137.637527L158.794983,137.861221L158.686035,138.080627L158.59903,138.294952L158.53476,138.50473L158.492905,138.71199L158.471497,138.920273L158.466873,139.134399L158.474304,139.35968L158.489105,139.601013L158.571854,140.76239L158.601837,141.091064L158.641098,141.425354L158.692795,141.759567L158.759277,142.088654L158.841492,142.408875L158.938751,142.718109L159.049149,143.015732L159.169983,143.302292L159.298386,143.579224L159.431793,143.848511L159.707977,144.373428L160.000458,144.894531L160.15831,145.158234L160.327911,145.425903L160.512299,145.698517L160.71402,145.976669L160.934753,146.260529L161.1754,146.549881L161.435974,146.844055L161.715881,147.142014L162.013916,147.442291L162.328522,147.743134L162.657806,148.042343L162.999725,148.337448L163.352142,148.62561L163.713013,148.903732L164.080338,149.168549L164.452255,149.416779L164.826996,149.64537L165.202911,149.851593L165.390854,149.945602L165.578522,150.033234L165.765762,150.114334L165.952423,150.188766L166.138336,150.256516L166.323364,150.317566L166.507416,150.371994L166.690338,150.419983L166.87204,150.461731L167.052429,150.497543L167.408936,150.552826L167.759521,150.589157L168.104126,150.610291L168.443115,150.620163L168.777344,150.622528L171.16243,150.602966L171.540771,150.596542L171.933319,150.585342L172.339142,150.567352L172.756012,150.540482L173.180618,150.50267L173.609009,150.45192L174.03688,150.386337L174.459946,150.304214L174.874283,150.204056L175.276672,150.084641L175.472656,150.017426L175.664932,149.945099L175.853455,149.867615L176.038269,149.784943L176.219482,149.697083L176.397247,149.60405L176.743591,149.402771L177.079681,149.181793L177.408295,148.942215L177.732224,148.685455L178.053894,148.413345L178.375,148.127991L178.696121,147.831879L179.016479,147.527771L179.333939,147.218658L179.645325,146.907608L179.946884,146.597595L180.234573,146.291367L180.504517,145.991318L180.631744,145.844208L180.753342,145.69928L180.869019,145.556671L180.978592,145.416428L181.081955,145.278595L181.179108,145.143097L181.270142,145.009857L181.355255,144.878693L181.508987,144.621765L181.643295,144.370209L181.761841,144.121628L181.868561,143.873474L181.967194,143.623352L182.060822,143.369263L182.151779,143.109787L182.241577,142.843918L182.331177,142.571075L182.511414,142.003387L182.511414,113.05368L177.511414,113.05368L177.511414,114.55368L175.011414,114.55368L175.011414,113.05368L172.011414,113.05368L172.011414,110.55368L175.011414,110.55368L175.011414,95.425636M175.011414,94.925636L175.011414,81.00338L172.011414,81.00338L172.011414,78.50338L175.011414,78.50338L175.011414,77.00338L177.511414,77.00338L177.511627,78.503357"/>
    <path transform="matrix(1,0,0,-1,-57,-5)" style="stroke:#ff0000;stroke-width:0.050000mm;fill:none" d="M166.204224,73.159775L169.104218,73.159775L169.104218,78.059776L166.204224,78.059776L166.204224,73.159775z"/>
    <path transform="matrix(1,0,0,-1,-57,-5)" style="stroke:#ff0000;stroke-width:0.050000mm;fill:none" d="M161.104218,61.559784L161.104218,64.459778L156.204224,64.459778L156.204224,61.559784L161.104218,61.559784z"/>
    <path transform="matrix(1,0,0,-1,-57,-5)" style="stroke:#ff0000;stroke-width:0.050000mm;fill:none" d="M148.704224,61.559784L148.704224,64.459778L143.80423,64.459778L143.80423,61.559784L148.704224,61.559784z"/>
    <path transform="matrix(1,0,0,-1,-57,-5)" style="stroke:#ff0000;stroke-width:0.050000mm;fill:none" d="M170.704224,65.559784L170.598099,65.21286L170.474274,64.879723L170.332901,64.560242L170.174561,64.254021L170.000427,63.960197L169.812561,63.677254L169.613678,63.403046L169.406525,63.134933L169.192825,62.870071L168.972595,62.605659L168.743301,62.339172L168.500275,62.068535L168.237961,61.792313L168.097931,61.651871L167.951263,61.50985L167.797607,61.366318L167.63681,61.221405L167.468933,61.075317L167.29422,60.928307L166.925964,60.632835L166.53656,60.338028L166.131592,60.047386L165.716766,59.764618L165.296982,59.493423L164.875488,59.237236L164.453796,58.99913L164.032043,58.781776L163.820892,58.68161L163.609375,58.587448L163.397308,58.499512L163.184494,58.417984L162.970764,58.343018L162.755981,58.27475L162.539978,58.21328L162.322693,58.158676L162.104004,58.110985L161.883896,58.070236L161.662292,58.036438L161.439163,58.009628L161.214508,57.989769L160.988312,57.97686L160.760559,57.970894L160.53125,57.971947L159.210022,57.994675L156.805695,58.041565L155.848099,58.062916M155.348251,58.074875L154.71225,58.090439L153.775742,58.115776L152.906311,58.141769L152.096619,58.16861L151.336945,58.196472L150.614822,58.22554L149.218994,58.288498L146.982758,58.397896L145.246277,58.478539L144.298935,58.518547L143.315125,58.556122L142.315338,58.588966L141.32373,58.61441L140.838867,58.623405L140.365372,58.629372L139.906128,58.631836L139.463699,58.630424L139.040329,58.624573L138.637802,58.613815L138.257385,58.597656L137.899796,58.575577L137.565002,58.547035L137.252213,58.511528L136.959991,58.468498L136.686249,58.417381L136.428513,58.357643L136.184021,58.28875L135.949951,58.210182L135.723495,58.121422L135.502121,58.022011L135.283661,57.911491L135.066528,57.789444L134.849823,57.65551L134.633347,57.509346L134.417648,57.350739L134.203751,57.179482L133.993088,56.995522L133.787354,56.798935L133.588364,56.58992L133.39798,56.368828L133.217941,56.1362L133.049744,55.892761L132.89444,55.639458L132.752686,55.377472L132.624619,55.108139L132.509995,54.832939L132.408173,54.553436L132.318314,54.271172L132.239304,53.987663L132.169937,53.704277L132.108963,53.422218L132.055115,53.142456L132.007217,52.865662L131.925385,52.3218L131.857727,51.788643L131.801224,51.260612L131.754044,50.732567L131.714218,50.203712L131.659653,49.428879L131.639618,49.185287L131.617081,48.954163L131.59108,48.738373L131.560883,48.540192L131.525909,48.361046L131.485992,48.20108L131.441315,48.058784L131.39238,47.931175L131.339859,47.814217L131.224976,47.595718L131.160767,47.488823L131.088943,47.383202L131.005829,47.281342L130.907684,47.187263L130.791656,47.105438L130.726532,47.070442L130.656769,47.039963L130.582718,47.01432L130.504868,46.993752L130.340515,46.968254L130.170227,46.963554L130.001495,46.978867L129.841537,47.012695L129.696182,47.063354L129.568985,47.129234L129.460602,47.209053L129.369125,47.301941L129.29097,47.407486L129.221909,47.525665L129.157959,47.656891L129.096024,47.801971L129.034058,47.962067L128.971008,48.138496L128.906631,48.33268L128.841263,48.545952L128.775589,48.779457L128.71048,49.033974L128.646835,49.309853L128.585373,49.60688L128.526672,49.924301L128.471085,50.260887L128.418839,50.615005L128.370026,50.984703L128.324677,51.367813L128.282715,51.761948L128.244003,52.164658L128.175705,52.985886L128.118591,53.812599L128.072052,54.629089L128.052887,55.030014L128.036804,55.424973L128.024078,55.813644L128.015106,56.195992L128.010376,56.572227L128.010345,56.94278L128.015579,57.308212L128.02655,57.669205L128.043793,58.026466L128.067856,58.380753L128.099152,58.732712L128.138062,59.082939L128.184937,59.431854L128.240021,59.779671L128.303436,60.12635L128.375229,60.471657L128.455353,60.815109L128.54364,61.156082L128.639954,61.49382L128.744003,61.827515L128.85553,62.156319L128.974213,62.479393L129.099716,62.795959L129.23172,63.105316L129.369904,63.406914L129.513962,63.700394L129.663666,63.985626L129.818787,64.262703L129.979141,64.532005L130.144592,64.79409L130.315048,65.049675L130.490356,65.299561L130.67038,65.544586L130.85495,65.785568L131.236908,66.258362L131.633789,66.722244L132.04184,67.17791L132.455826,67.621552L132.870041,68.046143L133.075638,68.248779L133.279617,68.443718L133.481735,68.630173L133.681976,68.807602L133.8806,68.975777L134.078186,69.134811L134.27565,69.285233L134.474197,69.427956L134.675278,69.564209L134.880508,69.69545L135.091583,69.823265L135.310242,69.949333L135.538162,70.075333L135.776901,70.202866L136.027847,70.333397L136.570526,70.608009L137.171661,70.905724L138.550537,71.578796L142.298981,73.389793L143.189026,73.825798L144.077209,74.270706L144.953644,74.725189L145.384521,74.956467L145.809052,75.190758L146.226257,75.428329L146.635162,75.669479L147.034927,75.91452L147.424774,76.163757L147.804016,76.417511L148.172089,76.676071L148.528503,76.939728L148.872894,77.208725L149.205048,77.483284L149.524826,77.763573L149.83223,78.049744L150.12735,78.341911L150.4104,78.640144L150.681641,78.944504L150.941376,79.255043L151.190002,79.57177L151.427963,79.894699L151.655701,80.223854L151.873657,80.559235L152.082306,80.900856L152.282135,81.248741L152.473572,81.602928L152.656982,81.963463L152.832794,82.330437L153.001221,82.703941L153.162598,83.084091L153.317032,83.471024L153.464691,83.864861L153.605682,84.265724L153.740067,84.673706L153.867828,85.08886L153.988983,85.511192L154.103485,85.940674L154.211304,86.377174L154.312347,86.820526L154.406525,87.270439L154.493774,87.726524L154.574005,88.188301L154.647125,88.655159L154.713074,89.12635L154.771759,89.600975L154.823181,90.078011L154.867279,90.556313L154.904022,91.034607L154.933411,91.511589L154.955383,91.98587L154.96991,92.456085L154.976974,92.920837L154.976624,93.378799L154.968506,93.828674L154.952637,94.269272L154.928864,94.699501L154.897003,95.118416L154.856827,95.52523L154.808075,95.919365L154.750397,96.300446L154.683395,96.66835L154.606659,97.023201L154.519501,97.365227L154.421692,97.695465L154.312515,98.014542L154.191437,98.323448L154.057938,98.623291L153.91153,98.915207L153.751862,99.200417L153.578583,99.480057L153.391571,99.755264L153.190765,100.027039L152.976288,100.296257L152.748474,100.563599L152.507843,100.829529L152.255096,101.094276L151.991165,101.357895L151.717041,101.620255L151.433884,101.881065L151.142914,102.139923L150.845367,102.396347L150.542557,102.649796L149.926178,103.145386L149.303238,103.62207L148.991837,103.852058L148.681519,104.075989L148.372864,104.293625L148.066208,104.504898L147.761688,104.709885L147.45932,104.908783L146.860382,105.289696L146.267349,105.651405L145.677643,105.999031L144.501129,106.676979L143.915466,107.020859L143.336487,107.377075L143.051422,107.561798L142.770538,107.751907L142.494781,107.948074L142.225128,108.150879L141.962509,108.36084L141.70787,108.578384L141.462067,108.803848L141.225861,109.037437L140.999893,109.279251L140.784653,109.529274L140.580505,109.787361L140.387695,110.053268L140.206329,110.32666L140.036438,110.607132L139.87796,110.894226L139.730774,111.187424L139.594696,111.486168L139.469452,111.789917L139.354767,112.098099L139.250366,112.410141L139.15593,112.72554L139.071182,113.043777L138.995819,113.36441L138.929581,113.687004L138.872192,114.011154L138.82341,114.336426L138.78302,114.662415L138.750763,114.988663L138.726501,115.314697L138.709991,115.639977L138.701096,115.963913L138.699677,116.285873L138.705566,116.605072L138.718658,116.920685L138.738861,117.231766L138.766113,117.537285L138.800323,117.836121L138.841507,118.127106L138.889633,118.409004L138.944717,118.680557L139.00679,118.940491L139.075928,119.187485L139.152222,119.420273L139.235779,119.637573L139.326752,119.838165L139.425293,120.020859L139.531616,120.184525L139.645935,120.328125L139.768478,120.450729L139.899445,120.551514L139.96817,120.593506L140.039093,120.629791L140.112244,120.660301L140.187637,120.684998L140.26532,120.703835L140.345322,120.716812L140.427643,120.723907L140.512299,120.72496L140.599304,120.720306L140.68866,120.709831L140.780396,120.693604L140.874481,120.671738L141.06958,120.61145L141.273712,120.530212L141.486389,120.429718L141.707001,120.312073L141.934738,120.179764L142.168686,120.035599L142.407898,119.882545L143.147156,119.401184L143.397766,119.243484L143.649216,119.091812L143.901001,118.948578L144.152863,118.81575L144.404678,118.694931L144.656586,118.587311L144.908783,118.493774L145.161682,118.414848L145.41568,118.350777L145.67128,118.301537L145.929001,118.266861L146.189331,118.246262L146.452759,118.239029L146.719604,118.244316L146.990234,118.261177L147.264862,118.288513L147.543655,118.325203L147.826752,118.370056L148.114197,118.421906L148.406128,118.47963L149.003418,118.608536L149.618927,118.749794L150.253189,118.899155L150.906876,119.055374L151.580368,119.21936L152.273071,119.393074L152.982819,119.5784L153.705215,119.776016L154.433014,119.984344L155.155762,120.198563L155.887161,120.418983M156.366165,120.562347L156.85704,120.707306L157.167572,120.795677L157.465881,120.877396L157.751663,120.951843L158.025055,121.018669L158.286743,121.077789L158.53801,121.129509L158.78067,121.174408L159.016998,121.213394L159.249542,121.247513L159.713577,121.305748L160.191833,121.357819L160.696838,121.409637L161.230042,121.461952L161.781677,121.510216L162.335449,121.546684L162.607529,121.557831L162.873688,121.562988L163.132355,121.561569L163.382584,121.552826L163.624054,121.536736L163.857117,121.513519L164.082718,121.483612L164.30217,121.447578L164.729156,121.359894L165.151611,121.255539L165.580902,121.137245L166.023041,121.003937L166.249237,120.930389L166.478424,120.85128L166.709915,120.765823L166.94281,120.67318L167.176025,120.572578L167.408264,120.463303L167.638123,120.344765L167.86412,120.216515L168.084686,120.078247L168.29834,119.929817L168.503632,119.771225L168.69928,119.602646L168.884186,119.424438L169.057465,119.237122L169.218613,119.041428L169.367432,118.838272L169.50412,118.628754L169.629181,118.414131L169.743469,118.19577L169.847961,117.975075L169.943787,117.753494L170.032181,117.532425L170.191345,117.096985L170.333771,116.677521L170.704285,115.559799L170.704224,65.559784"/>
    <path transform="matrix(1,0,0,-1,-57,-5)" style="stroke:#ff0000;stroke-width:0.050000mm;fill:none" d="M124.915527,74.299339L127.815536,74.299339L127.815536,79.199333L124.915527,79.199333L124.915527,74.299339z"/>
    <path transform="matrix(1,0,0,-1,-57,-5)" style="stroke:#ff0000;stroke-width:0.050000mm;fill:none" d="M119.815536,62.699341L119.815536,65.599335L114.915527,65.599335L114.915527,62.699341L119.815536,62.699341z"/>
    <path transform="matrix(1,0,0,-1,-57,-5)" style="stroke:#ff0000;stroke-width:0.050000mm;fill:none" d="M107.415527,62.699341L107.415527,65.599335L102.515533,65.599335L102.515533,62.699341L107.415527,62.699341z"/>
    <path transform="matrix(1,0,0,-1,-57,-5)" style="stroke:#ff0000;stroke-width:0.050000mm;fill:none" d="M129.415527,66.699333L129.309402,66.352417L129.185577,66.019272L129.04422,65.699799L128.88588,65.39357L128.711746,65.099747L128.523865,64.816803L128.324997,64.542595L128.117828,64.274483L127.904144,64.009621L127.683914,63.745209L127.45462,63.478722L127.211594,63.208084L126.949295,62.931862L126.80925,62.79142L126.662582,62.649399L126.508926,62.505867L126.348145,62.360962L126.180283,62.214867L126.005562,62.067856L125.637299,61.7724L125.247894,61.477592L124.842926,61.186943L124.428101,60.904182L124.008331,60.632988L123.586845,60.376801L123.165154,60.138687L122.743385,59.921333L122.532242,59.821167L122.320709,59.727013L122.108635,59.639076L121.895821,59.557549L121.682098,59.482582L121.4673,59.414314L121.251312,59.352844L121.034012,59.298233L120.815338,59.250542L120.595215,59.209793L120.373611,59.176003L120.150482,59.149193L119.925827,59.129333L119.699631,59.116425L119.47187,59.110458L119.242569,59.111511L117.921356,59.13427L115.517036,59.18116L114.432388,59.205315L113.423569,59.230003L112.487076,59.255302L111.617638,59.281303L110.860168,59.306412M110.360497,59.324554L110.048294,59.336006L109.326157,59.365074L107.930321,59.428032L105.694107,59.537422L103.957603,59.618103L103.010269,59.658112L102.026443,59.695679L101.026665,59.728531L100.035049,59.753967L99.550186,59.76297L99.076706,59.768936L98.617462,59.7714L98.175034,59.769989L97.751663,59.76413L97.349129,59.75338L96.968719,59.737221L96.611122,59.715134L96.276321,59.68663L95.963539,59.651123L95.671318,59.608093L95.397583,59.556976L95.139839,59.497231L94.895348,59.428345L94.66127,59.34977L94.434814,59.261017L94.21344,59.161606L93.99498,59.051086L93.777847,58.929039L93.561142,58.795105L93.344681,58.648956L93.128975,58.490326L92.915077,58.319077L92.704414,58.135132L92.498672,57.938545L92.29969,57.729523L92.109306,57.508438L91.929276,57.275803L91.761063,57.032364L91.605774,56.779068L91.464012,56.517075L91.335953,56.247742L91.221321,55.972557L91.119514,55.693054L91.02964,55.410789L90.95063,55.127281L90.881271,54.843887L90.820297,54.561836L90.766449,54.282066L90.718552,54.00528L90.636711,53.461418L90.569061,52.928253L90.512558,52.40023L90.46537,51.872185L90.425545,51.34333L90.370995,50.568497L90.350967,50.324905L90.328407,50.093781L90.302414,49.877991L90.272217,49.67981L90.237259,49.500679L90.197342,49.340691L90.152649,49.198402L90.103722,49.070801L90.051201,48.953842L89.93631,48.735352L89.872116,48.628464L89.800278,48.522827L89.717178,48.420982L89.619026,48.326897L89.502991,48.245079L89.437866,48.210075L89.368118,48.179604L89.294067,48.153954L89.216217,48.133392L89.051849,48.107887L88.881569,48.103195L88.712837,48.118507L88.552879,48.152328L88.407524,48.202995L88.280327,48.268867L88.171951,48.348679L88.080467,48.441566L88.002304,48.547081L87.933243,48.66526L87.869293,48.796478L87.807358,48.941559L87.745392,49.101646L87.68235,49.278076L87.617973,49.472038L87.552597,49.68531L87.486923,49.918816L87.421822,50.173332L87.35817,50.449211L87.296707,50.746231L87.238007,51.063652L87.182419,51.400238L87.130165,51.754349L87.08136,52.124054L87.036011,52.507156L86.994049,52.901299L86.955338,53.304008L86.887039,54.125229L86.829918,54.95195L86.783379,55.768433L86.764236,56.16935L86.748138,56.564316L86.735397,56.952988L86.726425,57.335342L86.72168,57.711578L86.721649,58.08213L86.726868,58.447556L86.737839,58.808548L86.755104,59.165817L86.779152,59.520103L86.810432,59.872063L86.84935,60.22229L86.896225,60.571198L86.951309,60.919014L87.014725,61.265709L87.086517,61.611015L87.166626,61.95446L87.254936,62.295425L87.351234,62.633163L87.455292,62.966866L87.566818,63.29567L87.685493,63.618744L87.810997,63.935303L87.943001,64.244659L88.081184,64.546257L88.225258,64.839745L88.374954,65.124969L88.530067,65.402054L88.690422,65.671349L88.855888,65.933434L89.026329,66.189018L89.20163,66.438911L89.381653,66.683929L89.566238,66.924911L89.948189,67.397697L90.345078,67.86158L90.753113,68.317238L91.167107,68.76088L91.581314,69.185471L91.786919,69.3881L91.990898,69.583038L92.193016,69.769493L92.39325,69.94693L92.591873,70.115097L92.789467,70.274132L92.986923,70.424553L93.185463,70.567276L93.386543,70.703529L93.591774,70.834763L93.802856,70.962578L94.021515,71.088646L94.249428,71.214653L94.488167,71.342186L94.739105,71.472717L95.281784,71.747322L95.882935,72.045044L97.261818,72.718117L101.010254,74.529114L101.900299,74.965111L102.788498,75.410019L103.664925,75.86451L104.09581,76.095787L104.520348,76.33007L104.937546,76.567642L105.346451,76.8088L105.746216,77.053841L106.136063,77.303078L106.515305,77.556831L106.883377,77.815399L107.239784,78.079048L107.584183,78.348045L107.916328,78.622604L108.236115,78.902893L108.54351,79.189064L108.838646,79.481232L109.121689,79.779465L109.392914,80.083824L109.652657,80.394363L109.901291,80.711082L110.139244,81.034019L110.366974,81.363167L110.58493,81.698547L110.793594,82.040176L110.993423,82.388062L111.184845,82.742249L111.368271,83.102783L111.544067,83.469757L111.712517,83.843254L111.873863,84.223404L112.028305,84.610336L112.17598,85.004181L112.316971,85.405045L112.45134,85.813019L112.579109,86.228172L112.700264,86.650505L112.814774,87.079987L112.922592,87.516495L113.023621,87.959846L113.117813,88.409752L113.205063,88.865837L113.285294,89.327614L113.358414,89.794472L113.424347,90.265648L113.483047,90.74028L113.534462,91.217323L113.578552,91.695618L113.615295,92.17392L113.644676,92.650894L113.666656,93.125183L113.68119,93.595398L113.688248,94.060158L113.687889,94.518112L113.679779,94.967995L113.663902,95.408585L113.640121,95.838814L113.608269,96.257729L113.5681,96.664543L113.519333,97.058685L113.461655,97.439758L113.394669,97.807663L113.317932,98.162514L113.230927,98.504738L113.133118,98.834976L113.023949,99.154045L112.90287,99.462952L112.769363,99.762787L112.622971,100.054718L112.463287,100.33992L112.290024,100.619568L112.102997,100.894768L111.902191,101.16655L111.687721,101.43576L111.459915,101.70311L111.219284,101.969025L110.966553,102.23378L110.702606,102.497406L110.428482,102.759758L110.145325,103.020561L109.85434,103.279419L109.556808,103.535851L109.253998,103.789299L108.637619,104.284882L108.014679,104.761566L107.703278,104.991562L107.39296,105.215485L107.084305,105.433121L106.777641,105.644409L106.473129,105.849396L106.170761,106.048294L105.571823,106.429199L104.97879,106.790909L104.389069,107.138535L103.21257,107.816483L102.626778,108.160416L102.047798,108.516632L101.762749,108.701355L101.481865,108.891464L101.2061,109.087631L100.936432,109.290436L100.67382,109.500397L100.419189,109.717941L100.173386,109.943405L99.93718,110.176994L99.711205,110.418808L99.495956,110.668831L99.291809,110.926918L99.098991,111.192825L98.917633,111.466217L98.747742,111.746689L98.589279,112.033783L98.442093,112.326973L98.306,112.625725L98.180748,112.929474L98.066071,113.23764L97.96167,113.549698L97.867241,113.865089L97.782486,114.183334L97.70713,114.50396L97.640884,114.826553L97.583496,115.150696L97.534714,115.475975L97.494308,115.801956L97.462067,116.128212L97.437782,116.454239L97.42128,116.779526L97.412376,117.10347L97.410934,117.425415L97.416809,117.744614L97.429901,118.060226L97.450104,118.371315L97.477341,118.676834L97.511574,118.975662L97.55275,119.266647L97.600876,119.548553L97.65596,119.820099L97.718033,120.080032L97.787178,120.327026L97.863464,120.559814L97.947021,120.777122L98.037994,120.977722L98.136551,121.160408L98.242874,121.324066L98.357193,121.467674L98.479721,121.590271L98.610695,121.691055L98.67942,121.733047L98.750336,121.769325L98.823486,121.799843L98.898895,121.824539L98.976578,121.843376L99.056564,121.856323L99.138885,121.863419L99.223541,121.864471L99.310555,121.859818L99.399925,121.849335L99.491653,121.833115L99.585732,121.811203L99.78083,121.750916L99.984955,121.669678L100.197647,121.569183L100.418259,121.451538L100.645988,121.319244L100.879944,121.175064L101.119148,121.022018L101.858414,120.540657L102.109024,120.38295L102.360474,120.231293L102.612267,120.088051L102.864113,119.955223L103.115936,119.834396L103.367828,119.726791L103.620049,119.633247L103.872932,119.554321L104.126938,119.49025L104.382538,119.44101L104.640259,119.406326L104.900604,119.385696L105.164001,119.378464L105.43087,119.383751L105.701492,119.40062L105.97612,119.427956L106.254913,119.464645L106.538002,119.509491L106.82547,119.56134L107.117386,119.619064L107.714684,119.747971L108.3302,119.889229L108.964447,120.038589L109.618141,120.194801L110.291634,120.358795L110.984337,120.532501L111.694084,120.717834L112.416473,120.915451L113.144287,121.123772L113.867035,121.337997L114.387169,121.494751M114.865906,121.639023L114.913727,121.653435L115.568306,121.846733L115.878845,121.935104L116.177155,122.01683L116.462921,122.091278L116.736313,122.158096L116.998001,122.217224L117.249268,122.268936L117.491928,122.313843L117.728271,122.352829L117.9608,122.38694L118.424835,122.445175L118.903091,122.497238L119.408096,122.549065L119.941299,122.601379L120.492935,122.649643L121.046707,122.686111L121.318787,122.697266L121.584946,122.702408L121.843628,122.701004L122.093849,122.692253L122.335327,122.676201L122.568405,122.652985L122.793991,122.62307L123.013443,122.587044L123.44043,122.499359L123.8629,122.394997L124.292175,122.276711L124.734299,122.14341L124.96051,122.069855L125.189682,121.990753L125.421181,121.905289L125.654083,121.812645L125.887299,121.712036L126.119545,121.602768L126.349411,121.484222L126.575401,121.355972L126.795975,121.217712L127.009613,121.069275L127.214912,120.910683L127.410553,120.742111L127.595459,120.563904L127.768753,120.376587L127.929893,120.180893L128.078705,119.977737L128.215393,119.768219L128.340469,119.553596L128.454742,119.335228L128.559235,119.11454L128.65506,118.89296L128.743439,118.67189L128.902618,118.23645L129.045044,117.816994L129.415558,116.699265L129.415527,66.699333"/>
    <path transform="matrix(1,0,0,-1,-57,-5)" style="stroke:#ff0000;stroke-width:0.050000mm;fill:none" d="M217.179062,156.042435L82.820938,156.042435L82.820938,43.957561L217.179062,43.957561L217.179062,156.042435z"/>
</svg>
