<?xml version="1.0" encoding="utf-8"?>
<!-- Generator: Fusion 360, Shaper Origin Export Add-In, Version 1.7.0  -->
<svg xmlns="http://www.w3.org/2000/svg" xmlns:xlink="http://www.w3.org/1999/xlink" xmlns:shaper="http://www.shapertools.com/namespaces/shaper" shaper:fusionaddin="version:1.7.0" width="3.1cm" height="2.25cm" version="1.1" x="0cm" y="0cm" viewBox="0 0 3.1 2.25" enable-background="new 0 0 3.1 2.25" xml:space="preserve"><path d="M1.55,0.375 L1.25,0.375 1.25,-0.375 1.55,-0.375 1.55,-0.875 1.25,-0.875 1.25,-1.125 -1.25,-1.125 -1.25,-0.875 -1.55,-0.875 -1.55,-0.375 -1.25,-0.375 -1.25,0.375 -1.55,0.375 -1.55,0.875 -1.25,0.875 -1.25,1.125 1.25,1.125 1.25,0.875 1.55,0.875 1.55,0.375z" transform="matrix(1,0,0,-1,1.55,1.125)" fill="rgb(0,0,0)" shaper:cutDepth="0.3cm" stroke-linecap="round" stroke-linejoin="round" /><path d="M-0.175,-0.825 a0.175,0.175 0 1,1 0.35,0 a0.175,0.175 0 1,1 -0.35,0z" transform="matrix(1,0,0,-1,1.55,1.125)" fill="rgb(255,255,255)" stroke="rgb(0,0,0)" stroke-width="0.0010cm" stroke-linecap="round" stroke-linejoin="round" shaper:cutDepth="0.3cm" /></svg>