<?xml version="1.0" encoding="utf-8"?>
<!-- Generator: Fusion 360, Shaper Origin Export Add-In, Version 1.7.0  -->
<svg xmlns="http://www.w3.org/2000/svg" xmlns:xlink="http://www.w3.org/1999/xlink" xmlns:shaper="http://www.shapertools.com/namespaces/shaper" shaper:fusionaddin="version:1.7.0" width="9cm" height="5.6cm" version="1.1" x="0cm" y="0cm" viewBox="0 0 9 5.6" enable-background="new 0 0 9 5.6" xml:space="preserve"><path d="M3.5,-2.8 L3.5,-2.5 -1.5,-2.5 -1.5,-2.8 -2,-2.8 -2,-2.5 -4.5,-2.5 -4.5,2.5 -2,2.5 -2,2.8 -1.5,2.8 -1.5,2.5 3.5,2.5 3.5,2.8 4,2.8 4,2.5 4.5,2.5 4.5,-2.5 4,-2.5 4,-2.8 3.5,-2.8z" transform="matrix(1,0,0,-1,4.5,2.8)" fill="rgb(0,0,0)" shaper:cutDepth="0.35cm" stroke-linecap="round" stroke-linejoin="round" /><path d="M3.9101,1.5 L3.4101,1.5 3.4101,1.8 3.9101,1.8 3.9101,1.5z" transform="matrix(1,0,0,-1,4.5,2.8)" fill="rgb(255,255,255)" stroke="rgb(0,0,0)" stroke-width="0.0010cm" stroke-linecap="round" stroke-linejoin="round" shaper:cutDepth="0.35cm" /><path d="M3.9101,-1.8 L3.4101,-1.8 3.4101,-1.5 3.9101,-1.5 3.9101,-1.8z" transform="matrix(1,0,0,-1,4.5,2.8)" fill="rgb(255,255,255)" stroke="rgb(0,0,0)" stroke-width="0.0010cm" stroke-linecap="round" stroke-linejoin="round" shaper:cutDepth="0.35cm" /><path d="M-2.5,1.5 L-3,1.5 -3,1.8 -2.5,1.8 -2.5,1.5z" transform="matrix(1,0,0,-1,4.5,2.8)" fill="rgb(255,255,255)" stroke="rgb(0,0,0)" stroke-width="0.0010cm" stroke-linecap="round" stroke-linejoin="round" shaper:cutDepth="0.35cm" /><path d="M-2.5,-1.8 L-3,-1.8 -3,-1.5 -2.5,-1.5 -2.5,-1.8z" transform="matrix(1,0,0,-1,4.5,2.8)" fill="rgb(255,255,255)" stroke="rgb(0,0,0)" stroke-width="0.0010cm" stroke-linecap="round" stroke-linejoin="round" shaper:cutDepth="0.35cm" /></svg>