<?xml version="1.0" encoding="utf-8"?>
<!-- Generator: Fusion 360, Shaper Origin Export Add-In, Version 1.7.0  -->
<svg xmlns="http://www.w3.org/2000/svg" xmlns:xlink="http://www.w3.org/1999/xlink" xmlns:shaper="http://www.shapertools.com/namespaces/shaper" shaper:fusionaddin="version:1.7.0" width="3.1cm" height="4cm" version="1.1" x="0cm" y="0cm" viewBox="0 0 3.1 4" enable-background="new 0 0 3.1 4" xml:space="preserve"><path d="M1.55,1.5 L1.55,1 1.25,1 1.25,-1.5 1.55,-1.5 1.55,-2 -1.55,-2 -1.55,-1.5 -1.25,-1.5 -1.25,1 -1.55,1 -1.55,1.5 -1.25,1.5 -1.25,2 1.25,2 1.25,1.5 1.55,1.5z" transform="matrix(1,0,0,-1,1.55,2)" fill="rgb(0,0,0)" shaper:cutDepth="0.3cm" stroke-linecap="round" stroke-linejoin="round" /><path d="M-1.05,-1.8550298 L-1.05,-1.6050298 -0.755,-1.6050298 -0.755,-1.8550298 -1.05,-1.8550298z" transform="matrix(1,0,0,-1,1.55,2)" fill="rgb(255,255,255)" stroke="rgb(0,0,0)" stroke-width="0.0010cm" stroke-linecap="round" stroke-linejoin="round" shaper:cutDepth="0.3cm" /><path d="M1.045,1.6 L1.045,1.35 0.75,1.35 0.75,1.6 1.045,1.6z" transform="matrix(1,0,0,-1,1.55,2)" fill="rgb(255,255,255)" stroke="rgb(0,0,0)" stroke-width="0.0010cm" stroke-linecap="round" stroke-linejoin="round" shaper:cutDepth="0.3cm" /><path d="M-1.045,1.35 L-1.045,1.6 -0.75,1.6 -0.75,1.35 -1.045,1.35z" transform="matrix(1,0,0,-1,1.55,2)" fill="rgb(255,255,255)" stroke="rgb(0,0,0)" stroke-width="0.0010cm" stroke-linecap="round" stroke-linejoin="round" shaper:cutDepth="0.3cm" /><path d="M1.05,-1.8550298 L0.755,-1.8550298 0.755,-1.6050298 1.05,-1.6050298 1.05,-1.8550298z" transform="matrix(1,0,0,-1,1.55,2)" fill="rgb(255,255,255)" stroke="rgb(0,0,0)" stroke-width="0.0010cm" stroke-linecap="round" stroke-linejoin="round" shaper:cutDepth="0.3cm" /></svg>