<?xml version="1.0" encoding="utf-8"?>
<!-- Generator: Fusion 360, Shaper Origin Export Add-In, Version 1.7.0  -->
<svg xmlns="http://www.w3.org/2000/svg" xmlns:xlink="http://www.w3.org/1999/xlink" xmlns:shaper="http://www.shapertools.com/namespaces/shaper" shaper:fusionaddin="version:1.7.0" width="19.7546113cm" height="5.8338847cm" version="1.1" x="0cm" y="0cm" viewBox="0 0 19.7546113 5.8338847" enable-background="new 0 0 19.7546113 5.8338847" xml:space="preserve"><path d="M6.4100596,2.1 L6.4100596,0 5.9100596,0 5.9100596,2.1 0,2.1 0,0 -0.5,0 -0.5,2.1 -6.2899406,2.1 -6.2899406,2.1 -6.3475632,2.0819443 -6.4037173,2.0639552 -6.4584261,2.0459954 -6.5117512,2.0279675 -6.5638105,2.0096843 -6.614798,1.9908389 -6.6650019,1.9709745 -6.7148151,1.9494704 -6.7397205,1.9378747 -6.7647081,1.9255869 -6.789841,1.9125096 -6.8151807,1.8985484 -6.8407859,1.883615 -6.8667108,1.8676293 -6.8930036,1.8505221 -6.919705,1.8322379 -6.9468462,1.8127379 -6.9744476,1.7920026 -7.0025175,1.7700338 -7.0310525,1.746853 -7.0600383,1.7224996 -7.0894503,1.6970293 -7.1192544,1.6705111 -7.1494084,1.6430252 -7.1798627,1.6146603 -7.2105613,1.5855115 -7.2724403,1.5252592 -7.3345024,1.463065 -7.3961597,1.3996766 -7.456809,1.3357157 -7.515861,1.2716024 -7.5446146,1.239548 -7.5727681,1.2074903 -7.6002623,1.1754053 -7.6270419,1.1432556 -7.6530561,1.110993 -7.6782577,1.0785603 -7.7026042,1.0458934 -7.726057,1.0129241 -7.7485822,0.9795815 -7.7701504,0.9457953 -7.7907368,0.9114974 -7.8103211,0.8766244 -7.8288879,0.8411192 -7.8464266,0.8049337 -7.8629314,0.7680312 -7.8784019,0.7303891 -7.8928426,0.6920011 -7.9062632,0.6528781 -7.9186785,0.6130487 -7.930108,0.5725594 -7.9405761,0.5314724 -7.9501112,0.4898629 -7.9587455,0.4478168 -7.9665147,0.4054285 -7.9734577,0.3627987 -7.9796161,0.3200329 -7.9850341,0.2772389 -7.989758,0.2345247 -7.9938358,0.1919962 -7.9973171,0.1497551 -8.0002525,0.1078969 -8.0026934,0.0665091 -8.0046915,0.0256688 -8.0062987,-0.0145598 -8.0075667,-0.054128 -8.0085466,-0.093004 -8.0092884,-0.1311729 -8.0098401,-0.1686367 -8.0102475,-0.2054133 -8.0105529,-0.2415343 -8.0110063,-0.3119931 -8.0114436,-0.3804661 -8.0120043,-0.4475064 -8.0127002,-0.5137118 -8.0137545,-0.6458829 -8.0132852,-0.7127579 -8.0113262,-0.7805687 -8.0095557,-0.8148811 -8.0071278,-0.8494823 -8.0039447,-0.8843788 -7.9999102,-0.9195714 -7.9949319,-0.9550567 -7.9889229,-0.9908265 -7.9818034,-1.0268691 -7.973503,-1.0631692 -7.9639627,-1.0997083 -7.9531368,-1.1364657 -7.9409943,-1.1734182 -7.9275186,-1.2105404 -7.9127069,-1.2478051 -7.8965693,-1.2851832 -7.8791283,-1.3226437 -7.8604167,-1.3601538 -7.8404772,-1.3976789 -7.8193607,-1.4351828 -7.797126,-1.4726274 -7.7738381,-1.5099733 -7.7495678,-1.5471794 -7.7243901,-1.584203 -7.6983832,-1.6210003 -7.6716276,-1.6575256 -7.6442051,-1.6937323 -7.6161977,-1.7295724 -7.5876863,-1.7649966 -7.5587499,-1.7999546 -7.5294643,-1.8343945 -7.4999018,-1.868264 -7.4701304,-1.9015105 -7.4402143,-1.9340821 -7.4102133,-1.9659279 -7.380183,-1.9969994 -7.3501746,-2.0272507 -7.3202349,-2.0566396 -7.2904064,-2.0851284 -7.2607268,-2.1126845 -7.2312293,-2.1392813 -7.2019423,-2.1648987 -7.1728895,-2.1895242 -7.1440897,-2.2131534 -7.1155568,-2.2357907 -7.0872996,-2.2574509 -7.0593218,-2.278159 -7.031622,-2.2979512 -7.0041935,-2.3168753 -6.9770247,-2.33499 -6.9500987,-2.3523627 -6.9233942,-2.369067 -6.8705415,-2.4007803 -6.8182097,-2.4307455 -6.7660802,-2.4595175 -6.7137813,-2.4875161 -6.6608939,-2.5149421 -6.6069627,-2.541713 -6.5515315,-2.5674867 -6.523124,-2.5798425 -6.4941982,-2.5917488 -6.4647224,-2.6031325 -6.4346756,-2.613923 -6.4040489,-2.624055 -6.3728477,-2.6334719 -6.3410941,-2.64213 -6.3088293,-2.6500021 -6.2761146,-2.6570802 -6.2430319,-2.6633768 -6.2096826,-2.668925 -6.1761857,-2.6737771 -6.1092874,-2.6816745 -6.0434665,-2.6877077 -6.0113136,-2.6902365 -5.9798411,-2.6925459 -5.9491648,-2.6947038 -5.9193832,-2.6967647 -5.8905729,-2.6987653 -5.8627837,-2.7007201 -5.8360343,-2.702617 -5.8103086,-2.704414 -5.7855576,-2.7060415 -5.7617047,-2.7074078 -5.7386506,-2.7084044 -5.7162791,-2.7089117 -5.6944623,-2.7088044 -5.6730669,-2.7079578 -5.6519596,-2.7062538 -5.6310143,-2.7035882 -5.6101173,-2.6998774 -5.589172,-2.6950616 -5.5681002,-2.6891035 -5.5468432,-2.681988 -5.5253624,-2.6737187 -5.5036376,-2.6643134 -5.4816659,-2.6537992 -5.4594607,-2.6422073 -5.4370509,-2.6295691 -5.4144807,-2.6159109 -5.3918088,-2.6012509 -5.3691073,-2.5855954 -5.3464605,-2.5689371 -5.3239631,-2.5512543 -5.3017178,-2.5325144 -5.2798327,-2.5126787 -5.2584186,-2.4917074 -5.2375867,-2.469563 -5.2174461,-2.4462141 -5.1981011,-2.4216391 -5.1796489,-2.3958296 -5.1621772,-2.3687956 -5.1457613,-2.3405684 -5.130462,-2.3112055 -5.1163228,-2.2807934 -5.1033679,-2.2494506 -5.0916014,-2.217326 -5.0810072,-2.184593 -5.0715497,-2.151445 -5.0631734,-2.1180893 -5.055803,-2.0847417 -5.0493435,-2.051621 -5.0436797,-2.0189435 -5.0386777,-1.9869187 -5.0341853,-1.9557443 -5.0300316,-1.9256005 -5.0260259,-1.896643 -5.0219567,-1.8689964 -5.0175926,-1.8427499 -5.0126879,-1.8179582 -5.0069881,-1.794643 -5.0002382,-1.7727967 -4.992193,-1.7523913 -4.9826293,-1.7333874 -4.9713581,-1.7157439 -4.9582371,-1.6994272 -4.9431848,-1.684421 -4.9261913,-1.6707345 -4.9073235,-1.6584063 -4.8867276,-1.6475075 -4.8646286,-1.6381419 -4.8413169,-1.6304384 -4.8171305,-1.6245393 -4.7924359,-1.6205892 -4.7676127,-1.6187248 -4.7430386,-1.6190662 -4.730959,-1.6200949 -4.7190753,-1.6217082 -4.7074277,-1.6239123 -4.6960534,-1.6267109 -4.6849862,-1.6301046 -4.6742562,-1.6340907 -4.6638892,-1.6386628 -4.653907,-1.6438116 -4.6443274,-1.6495247 -4.6351648,-1.6557871 -4.6264303,-1.6625816 -4.6181319,-1.669889 -4.6102747,-1.6776886 -4.6028612,-1.6859583 -4.5958916,-1.6946751 -4.5893638,-1.7038151 -4.5776153,-1.7232676 -4.5675635,-1.7441221 -4.5591341,-1.7661923 -4.5522393,-1.7893099 -4.5467843,-1.8133348 -4.542673,-1.8381605 -4.5398103,-1.8637123 -4.5381037,-1.8899436 -4.5374648,-1.916832 -4.5378105,-1.9443743 -4.5390645,-1.9725825 -4.5411582,-2.0014789 -4.5440324,-2.0310913 -4.5476385,-2.0614496 -4.5519397,-2.0925805 -4.5569126,-2.1245038 -4.5625484,-2.1572271 -4.5688541,-2.1907428 -4.5758513,-2.225027 -4.5835752,-2.260041 -4.5920726,-2.2957321 -4.6014008,-2.3320354 -4.6116253,-2.3688745 -4.6228188,-2.4061633 -4.635059,-2.4438069 -4.6484274,-2.4817035 -4.6630074,-2.5197448 -4.6788826,-2.5578181 -4.6961357,-2.5958072 -4.7148465,-2.6335936 -4.7350901,-2.6710577 -4.7569357,-2.7080807 -4.7804442,-2.7445454 -4.805667,-2.7803378 -4.8326455,-2.8153476 -4.86141,-2.8494689 -4.8919801,-2.882601 -4.9243648,-2.9146482 -4.9585629,-2.9455199 -4.9945635,-2.9751313 -5.0323464,-3.0034028 -5.0718823,-3.0302608 -5.1131328,-3.0556378 -5.156051,-3.0794726 -5.2005817,-3.1017106 -5.2466617,-3.1223038 -5.2942202,-3.141211 -5.343179,-3.1583983 -5.3934528,-3.1738391 -5.4449494,-3.1875144 -5.4975703,-3.1994128 -5.5512108,-3.209531 -5.6057603,-3.2178739 -5.6611026,-3.2244546 -5.7171161,-3.2292951 -5.7736746,-3.2324257 -5.8306481,-3.2338847 -5.8879038,-3.2337174 -5.9453071,-3.2319761 -6.0027224,-3.2287186 -6.0600147,-3.2240081 -6.11705,-3.2179122 -6.1736965,-3.2105023 -6.2298257,-3.201853 -6.2853136,-3.1920413 -6.3400411,-3.1811459 -6.3938957,-3.1692467 -6.4467719,-3.1564239 -6.4985728,-3.1427575 -6.5492106,-3.1283263 -6.598608,-3.1132075 -6.6466992,-3.0974761 -6.6934304,-3.0812038 -6.7387611,-3.0644588 -6.782665,-3.047305 -6.8251319,-3.0298007 -6.8661682,-3.0119988 -6.9057973,-2.9939453 -6.9440592,-2.97568 -6.9810101,-2.9572354 -7.0167206,-2.9386372 -7.0512734,-2.9199041 -7.084761,-2.9010484 -7.1172843,-2.8820757 -7.1489497,-2.8629851 -7.1798684,-2.8437694 -7.2399192,-2.804901 -7.2983373,-2.7652862 -7.3559668,-2.7246425 -7.4135328,-2.6825916 -7.4715859,-2.6386652 -7.5009118,-2.615832 -7.5304755,-2.5923244 -7.5602916,-2.5680707 -7.590365,-2.5430003 -7.620691,-2.5170445 -7.651256,-2.4901385 -7.6820383,-2.4622221 -7.7130088,-2.4332418 -7.7441316,-2.4031518 -7.775365,-2.3719152 -7.8066618,-2.3395057 -7.8379703,-2.3059083 -7.8692347,-2.2711215 -7.9003962,-2.2351583 -7.9313932,-2.1980483 -7.9621624,-2.1598383 -7.9926394,-2.1205919 -8.0227587,-2.08039 -8.052455,-2.039329 -8.081663,-1.9975185 -8.110318,-1.9550783 -8.1383562,-1.9121369 -8.1657154,-1.868829 -8.1923354,-1.8252935 -8.2181579,-1.7816718 -8.2431278,-1.7381051 -8.267193,-1.6947329 -8.2903047,-1.6516902 -8.3124186,-1.6091057 -8.3334945,-1.5670996 -8.3534973,-1.5257812 -8.3723971,-1.4852473 -8.3901698,-1.4455801 -8.4067972,-1.406845 -8.4222679,-1.3690881 -8.4365776,-1.3323335 -8.4497295,-1.2965819 -8.4617342,-1.2618108 -8.4726097,-1.2279763 -8.4823809,-1.1950148 -8.4910797,-1.1628459 -8.4987441,-1.1313752 -8.5054179,-1.1004977 -8.5111509,-1.0701001 -8.5159975,-1.0400637 -8.5200173,-1.0102667 -8.5232742,-0.9805872 -8.5258364,-0.9509059 -8.5291677,-0.891092 -8.5306243,-0.8300276 -8.5308533,-0.7671025 -8.5307105,-0.7348041 -8.5305008,-0.701896 -8.5302976,-0.6683509 -8.530169,-0.6341503 -8.5301761,-0.5992836 -8.5303723,-0.5637478 -8.5308015,-0.5275461 -8.5314972,-0.490688 -8.5324805,-0.4531875 -8.533759,-0.4150632 -8.535325,-0.376337 -8.5371555,-0.3370338 -8.5414401,-0.2568079 -8.5461334,-0.1746276 -8.5505788,-0.0907645 -8.5540088,-0.0055164 -8.555087,0.0375278 -8.5556029,0.0807967 -8.5554563,0.1242474 -8.5545513,0.1678361 -8.5527983,0.2115181 -8.5501158,0.2552482 -8.5464325,0.2989805 -8.5416896,0.3426686 -8.5358429,0.3862657 -8.5288643,0.4297249 -8.5207421,0.472999 -8.5114808,0.5160414 -8.5011007,0.558806 -8.4896354,0.6012478 -8.4771298,0.643323 -8.4636384,0.6849901 -8.4492229,0.7262098 -8.4339516,0.7669454 -8.4178967,0.8071634 -8.4011335,0.8468338 -8.3837374,0.8859307 -8.3657831,0.9244325 -8.3473421,0.9623224 -8.3284816,0.9995887 -8.3092628,1.0362254 -8.2897385,1.0722322 -8.2699513,1.1076156 -8.2499316,1.1423893 -8.229697,1.1765736 -8.2092522,1.2101959 -8.1676889,1.2758933 -8.1250529,1.339807 -8.08103,1.4023147 -8.035229,1.4638147 -8.0115299,1.4943098 -7.9872284,1.5246966 -7.9622751,1.5550175 -7.9366246,1.5853102 -7.9102374,1.6156069 -7.883081,1.6459338 -7.8551315,1.6763095 -7.826375,1.7067448 -7.796808,1.7372418 -7.7664368,1.767795 -7.7352767,1.7983916 -7.703351,1.8290125 -7.6706902,1.8596326 -7.6373312,1.8902219 -7.6033169,1.9207456 -7.5686947,1.9511651 -7.4978365,2.0115217 -7.4252032,2.0709304 -7.351267,2.1290097 -7.2764998,2.1853785 -7.2013477,2.239677 -7.1637528,2.2659487 -7.1262038,2.2915884 -7.0887386,2.3165653 -7.0513908,2.3408524 -7.0141898,2.3644263 -6.9771608,2.3872664 -6.9403255,2.4093555 -6.9037024,2.4306785 -6.867307,2.4512233 -6.8311517,2.4709796 -6.7952466,2.4899395 -6.7595996,2.5080966 -6.7242165,2.5254464 -6.6891017,2.5419853 -6.6542578,2.5577112 -6.6196867,2.5726226 -6.5853893,2.586719 -6.5513658,2.6 10.9504194,2.6 10.9504194,2.6 10.965498,2.599141 10.9801011,2.5978675 10.9942279,2.5961789 11.0078774,2.5940742 11.0210481,2.5915526 11.0337384,2.5886127 11.0459464,2.5852538 11.0576705,2.5814748 11.0689089,2.5772753 11.0796602,2.5726552 11.0899231,2.5676151 11.099697,2.5621562 11.1089817,2.5562805 11.1177777,2.5499912 11.1260861,2.5432924 11.1339093,2.5361898 11.1412505,2.5286903 11.1481144,2.5208025 11.1604334,2.5039049 11.1709226,2.4855982 11.1796479,2.4660074 11.1866784,2.4452794 11.1920802,2.4235811 11.1959107,2.4010985 11.1982126,2.378035 11.1990084,2.3546106 11.1982971,2.3310594 11.1960568,2.3076245 11.1922494,2.2845508 11.1868264,2.262078 11.1797334,2.2404335 11.1709167,2.2198257 11.1603279,2.2004361 11.1479307,2.1824118 11.1337043,2.1658615 11.1259026,2.1581632 11.1176419,2.1508584 11.1089229,2.1439521 11.0997467,2.1374477 11.0901147,2.1313474 11.0800284,2.1256525 11.0694897,2.1203637 11.0585,2.115481 11.0470609,2.1110038 11.0351739,2.1069317 11.0228399,2.1032639 11.0100597,2.1 6.4100596,2.1z" transform="matrix(1,0,0,-1,8.5556029,2.6)" fill="rgb(0,0,0)" shaper:cutDepth="0.35cm" stroke-linecap="round" stroke-linejoin="round" /></svg>