<?xml version="1.0" encoding="utf-8"?>
<!-- Generator: Fusion 360, Shaper Origin Export Add-In, Version 1.7.0  -->
<svg xmlns="http://www.w3.org/2000/svg" xmlns:xlink="http://www.w3.org/1999/xlink" xmlns:shaper="http://www.shapertools.com/namespaces/shaper" shaper:fusionaddin="version:1.7.0" width="9.8772902cm" height="2.9169666cm" version="1.1" x="0cm" y="0cm" viewBox="0 0 9.8772902 2.9169666" enable-background="new 0 0 9.8772902 2.9169666" xml:space="preserve"><path d="M2.6942379,0.125 L2.6942379,-0.125 2.5442379,-0.125 2.5442379,-0.425 2.2942379,-0.425 2.2942379,-0.125 -0.6607919,-0.125 -0.6607919,-0.425 -0.9107919,-0.425 -0.9107919,-0.125 -1.0607919,-0.125 -1.0607919,0.125 -0.9107919,0.125 -0.9107919,0.625 -3.8057622,0.625 -3.8057622,0.625 -3.8345174,0.6159651 -3.8625314,0.6069773 -3.8898162,0.5980178 -3.9164028,0.5890376 -3.9423509,0.5799428 -3.9677583,0.5705791 -3.9927708,0.5607173 -4.0175871,0.550045 -4.0424456,0.5381896 -4.0676002,0.5247593 -4.0932939,0.5093867 -4.1064098,0.5008741 -4.1197341,0.4917707 -4.133283,0.4820561 -4.1470669,0.47172 -4.1610904,0.4607628 -4.175352,0.4491947 -4.1898446,0.4370352 -4.2045558,0.4243119 -4.2345613,0.3973177 -4.2651837,0.3685489 -4.2961853,0.3383937 -4.3272908,0.3072543 -4.3582017,0.2755087 -4.388612,0.2434724 -4.4182232,0.2113595 -4.4467581,0.1792498 -4.4739701,0.1470828 -4.4996455,0.1146892 -4.5236042,0.0818272 -4.5457016,0.0482186 -4.5658297,0.0135856 -4.5751317,-0.0041928 -4.5839179,-0.0223131 -4.5921856,-0.040794 -4.5999347,-0.0596468 -4.6071674,-0.0788749 -4.6138889,-0.0984728 -4.62583,-0.1387113 -4.6358461,-0.1801455 -4.6440585,-0.2224522 -4.6506164,-0.2652392 -4.6556914,-0.308078 -4.6594723,-0.3505388 -4.6621593,-0.3922255 -4.6639589,-0.4328088 -4.6650786,-0.4720637 -4.6657205,-0.5098972 -4.6660725,-0.5463491 -4.6662959,-0.5815699 -4.666513,-0.6157892 -4.6671434,-0.6823646 -4.6676748,-0.7484062 -4.6674387,-0.7818294 -4.6664525,-0.8157284 -4.664339,-0.8501881 -4.6607063,-0.8852463 -4.6551778,-0.9208989 -4.6515962,-0.9389371 -4.6474212,-0.957107 -4.6426231,-0.9753993 -4.6371794,-0.9938035 -4.6310746,-1.0123078 -4.6243005,-1.0308994 -4.616856,-1.0495646 -4.6087463,-1.0682883 -4.5999828,-1.087055 -4.5905823,-1.1058477 -4.5699605,-1.1434403 -4.5471012,-1.1809147 -4.5222773,-1.2181064 -4.4957964,-1.254839 -4.4679843,-1.2909251 -4.4391678,-1.326167 -4.4096575,-1.3603582 -4.3797359,-1.3932872 -4.3496529,-1.4247481 -4.319624,-1.4545524 -4.2898292,-1.4825414 -4.2604119,-1.508599 -4.231477,-1.532663 -4.2030899,-1.554738 -4.1752747,-1.5749084 -4.1480135,-1.593347 -4.1212467,-1.610308 -4.0948766,-1.6260933 -4.0427655,-1.6553424 -3.9902749,-1.6829598 -3.9633453,-1.6963003 -3.9356529,-1.7091409 -3.9069963,-1.721224 -3.8772338,-1.7322623 -3.8463104,-1.741989 -3.8142885,-1.7502097 -3.7813806,-1.7568588 -3.7479594,-1.7620285 -3.7145298,-1.7659538 -3.6816621,-1.7689519 -3.6499186,-1.7713541 -3.6197871,-1.7734458 -3.5916124,-1.7754031 -3.5655243,-1.7772279 -3.5413916,-1.7787054 -3.5188628,-1.7794493 -3.4974505,-1.7789856 -3.4766221,-1.776844 -3.4558965,-1.772658 -3.4349184,-1.7662314 -3.413486,-1.7575315 -3.3915459,-1.7466362 -3.3691768,-1.7336588 -3.3465784,-1.7186806 -3.3240578,-1.7016964 -3.3020046,-1.6825997 -3.2912886,-1.6722103 -3.2808537,-1.661234 -3.2707549,-1.6496544 -3.2610448,-1.6374598 -3.2517725,-1.624645 -3.2429827,-1.6112139 -3.2347139,-1.5971807 -3.2269977,-1.5825728 -3.219857,-1.5674318 -3.2133054,-1.5518156 -3.2073463,-1.5357976 -3.2019732,-1.5194637 -3.1929099,-1.4862406 -3.1858672,-1.4529888 -3.1804402,-1.4205807 -3.1760738,-1.3898358 -3.1740742,-1.3753077 -3.1720633,-1.3614333 -3.1699286,-1.3482596 -3.1675501,-1.3358159 -3.1648031,-1.324114 -3.1615615,-1.3131507 -3.1577033,-1.3029111 -3.1531163,-1.2933742 -3.147704,-1.2845168 -3.1413916,-1.2763191 -3.1341326,-1.2687683 -3.1259136,-1.2618632 -3.1167581,-1.2556171 -3.1067287,-1.2500592 -3.0959275,-1.2452363 -3.0844902,-1.2412088 -3.0725773,-1.2380451 -3.0603653,-1.2358162 -3.048039,-1.2345907 -3.0357843,-1.2344308 -3.0237822,-1.2353883 -3.0122002,-1.2374996 -3.0011846,-1.2407804 -2.9908535,-1.2452217 -2.9812936,-1.2507892 -2.9725637,-1.2574273 -2.9646974,-1.2650641 -2.9577062,-1.2736155 -2.9515834,-1.2829897 -2.946307,-1.2930924 -2.9418436,-1.3038308 -2.9381521,-1.3151197 -2.9351869,-1.3268862 -2.932901,-1.339073 -2.9312474,-1.3516381 -2.9301801,-1.3645539 -2.9296551,-1.3778058 -2.929631,-1.3913895 -2.9309359,-1.4195737 -2.933836,-1.4491926 -2.9381516,-1.480357 -2.9438045,-1.513133 -2.9508331,-1.5474803 -2.9593839,-1.5832391 -2.9696897,-1.6201446 -2.9820424,-1.6578485 -2.9890874,-1.6768734 -2.9967673,-1.6959402 -3.0051236,-1.714991 -3.0141971,-1.7339666 -3.0240263,-1.7528071 -3.034647,-1.7714524 -3.0460916,-1.7898432 -3.0583876,-1.8079215 -3.0715579,-1.8256306 -3.08562,-1.8429165 -3.1005859,-1.859727 -3.1164621,-1.876013 -3.1332501,-1.8917275 -3.1509466,-1.9068265 -3.1695433,-1.9212685 -3.1890274,-1.9350151 -3.2093816,-1.9480309 -3.2305841,-1.9602834 -3.2526087,-1.9717437 -3.2754256,-1.9823859 -3.2990006,-1.9921878 -3.3232959,-2.0011306 -3.3482701,-2.0091993 -3.3738781,-2.0163828 -3.4000716,-2.0226736 -3.4267991,-2.0280684 -3.454006,-2.032568 -3.4816346,-2.0361775 -3.5096246,-2.0389062 -3.5379129,-2.0407681 -3.5664346,-2.041781 -3.595123,-2.0419666 -3.62391,-2.0413502 -3.6527272,-2.0399602 -3.681506,-2.0378277 -3.7101783,-2.0349862 -3.7386767,-2.0314714 -3.7669355,-2.0273205 -3.794891,-2.0225722 -3.8224819,-2.0172662 -3.8496498,-2.0114428 -3.8763401,-2.0051428 -3.902502,-1.9984066 -3.9280895,-1.9912746 -3.9530616,-1.9837861 -3.9773831,-1.9759795 -4.0010245,-1.9678917 -4.0239632,-1.9595579 -4.0461838,-1.9510111 -4.0676785,-1.9422817 -4.0884481,-1.9333972 -4.108502,-1.9243821 -4.1278581,-1.9152573 -4.1465426,-1.9060403 -4.1645896,-1.8967449 -4.1820395,-1.8873816 -4.2153352,-1.8684759 -4.2468416,-1.8493392 -4.2770099,-1.8299353 -4.3062985,-1.8101765 -4.3351417,-1.7899254 -4.3639172,-1.7689958 -4.3929168,-1.7471554 -4.4223305,-1.7241341 -4.452252,-1.6996443 -4.4826913,-1.6734029 -4.5135854,-1.6451534 -4.5448094,-1.6146885 -4.5761885,-1.5818721 -4.6075089,-1.5466605 -4.6385295,-1.5091276 -4.6689927,-1.4694819 -4.6986344,-1.4280678 -4.7271913,-1.3853391 -4.7544077,-1.3418216 -4.7800428,-1.2980793 -4.8038774,-1.2546809 -4.8257208,-1.2121637 -4.8358458,-1.1913862 -4.845418,-1.1709988 -4.8544249,-1.1510443 -4.8628566,-1.1315576 -4.870707,-1.112564 -4.8779734,-1.0940776 -4.8846567,-1.0761006 -4.8907619,-1.0586239 -4.8962975,-1.0416269 -4.9012758,-1.025079 -4.9057122,-1.0089409 -4.9096258,-0.9931656 -4.9159742,-0.9624897 -4.9205285,-0.9325876 -4.9235351,-0.9029684 -4.9252738,-0.8731591 -4.9260513,-0.8427485 -4.9261921,-0.8114187 -4.926021,-0.7789489 -4.9258422,-0.745202 -4.9259172,-0.710113 -4.9264448,-0.6736773 -4.9275396,-0.6359383 -4.9292087,-0.5969749 -4.9313376,-0.556891 -4.9336927,-0.5158078 -4.9359495,-0.4738616 -4.937725,-0.4312021 -4.9386077,-0.3879904 -4.9381893,-0.3443969 -4.9360952,-0.3006 -4.9320153,-0.2567835 -4.9257368,-0.2131356 -4.9171715,-0.1698462 -4.9063605,-0.1271031 -4.8934548,-0.085086 -4.8786835,-0.0439596 -4.8623259,-0.0038669 -4.8446834,0.0350772 -4.8260502,0.0727935 -4.8066851,0.1092438 -4.7867825,0.1444389 -4.7664432,0.1784448 -4.7456656,0.2113815 -4.7243572,0.2434122 -4.7023611,0.2747278 -4.6794804,0.3055299 -4.6555017,0.3360168 -4.6302199,0.3663669 -4.6034628,0.3967232 -4.5751152,0.4271779 -4.5451386,0.4577599 -4.5135734,0.4884347 -4.4805258,0.519115 -4.4461549,0.5496711 -4.4106596,0.5799413 -4.3742657,0.6097428 -4.3372118,0.6388823 -4.299737,0.6671665 -4.2620674,0.6944125 -4.2244027,0.7204591 -4.1869067,0.7451742 -4.1497074,0.7684543 -4.1129009,0.7902223 -4.076556,0.8104226 -4.0407191,0.829018 -4.0054183,0.8459859 -3.9706684,0.8613147 -3.9364748,0.875 4.8144178,0.875 4.8144178,0.875 4.8293893,0.8738079 4.8433856,0.8718062 4.8564015,0.8689912 4.8684303,0.8653586 4.8794657,0.8609057 4.8895032,0.855633 4.8985422,0.8495464 4.9065882,0.8426592 4.9136551,0.8349948 4.9197664,0.8265882 4.924954,0.8174865 4.929255,0.8077483 4.9327079,0.797443 4.9353494,0.7866502 4.9372116,0.7754592 4.9383183,0.763969 4.9386824,0.7522879 4.938304,0.7405323 4.9371716,0.7288242 4.9352651,0.7172875 4.9325583,0.7060439 4.9290223,0.6952095 4.9246279,0.6848908 4.9193487,0.675181 4.9131649,0.6661558 4.9060645,0.657871 4.898043,0.6503645 4.8891015,0.6436597 4.8792442,0.6377686 4.8684773,0.6326957 4.856807,0.6284402 4.8442379,0.625 2.5442379,0.625 2.5442379,0.125 2.6942379,0.125z" transform="matrix(1,0,0,-1,4.9386077,0.875)" fill="rgb(0,0,0)" shaper:cutDepth="0.3cm" stroke-linecap="round" stroke-linejoin="round" /><path d="M-0.6607919,0.125 L-0.6607919,0.625 2.2942379,0.625 2.2942379,0.125 -0.6607919,0.125z" transform="matrix(1,0,0,-1,4.9386077,0.875)" fill="rgb(255,255,255)" stroke="rgb(0,0,0)" stroke-width="0.0010cm" stroke-linecap="round" stroke-linejoin="round" shaper:cutDepth="0.3cm" /></svg>