<?xml version="1.0" encoding="utf-8"?>
<!-- Generator: Fusion 360, Shaper Origin Export Add-In, Version 1.7.0  -->
<svg xmlns="http://www.w3.org/2000/svg" xmlns:xlink="http://www.w3.org/1999/xlink" xmlns:shaper="http://www.shapertools.com/namespaces/shaper" shaper:fusionaddin="version:1.7.0" width="7.4599719cm" height="4.2693881cm" version="1.1" x="0cm" y="0cm" viewBox="0 0 7.4599719 4.2693881" enable-background="new 0 0 7.4599719 4.2693881" xml:space="preserve"><path d="M3.5255459,-1.236013 L3.5255459,-1.236013 3.5425722,-1.2302954 3.5602513,-1.2244064 3.5785796,-1.2183422 3.5975476,-1.2120938 3.6171371,-1.2056433 3.6373187,-1.198962 3.6792649,-1.184719 3.722809,-1.1688029 3.7449159,-1.1599645 3.7670738,-1.1503811 3.7891426,-1.1399323 3.8109793,-1.1285046 3.8324416,-1.1159972 3.8533932,-1.1023291 3.8737087,-1.0874472 3.8932781,-1.0713328 3.9120095,-1.0540038 3.9298305,-1.0355141 3.9466881,-1.0159494 3.9625474,-0.9954202 3.9773908,-0.9740556 3.9912174,-0.9519985 4.0040422,-0.9294 4.0158959,-0.9064134 4.0268235,-0.8831889 4.0368839,-0.8598676 4.0461477,-0.8365771 4.0546939,-0.8134278 4.0626044,-0.7905096 4.0699596,-0.7678893 4.0832901,-0.7236768 4.095119,-0.6807481 4.1055555,-0.638502 4.1143236,-0.5958034 4.1179262,-0.573858 4.1209175,-0.5512984 4.1232379,-0.5279909 4.1248447,-0.5038436 4.1257203,-0.4788214 4.1258775,-0.4529537 4.1253612,-0.4263375 4.1242449,-0.3991295 4.1205979,-0.343753 4.1157718,-0.2885895 4.1131668,-0.2616162 4.1105381,-0.2352691 4.1079314,-0.2096459 4.1053562,-0.1847685 4.1001498,-0.1369429 4.094326,-0.0905395 4.0909139,-0.0672863 4.0870156,-0.0436528 4.082525,-0.0193864 4.0773538,0.0057402 4.0714411,0.0319094 4.0647594,0.0592479 4.0573144,0.0878251 4.0491421,0.1176564 4.0403042,0.14871 4.0308827,0.1809149 4.0209743,0.214168 4.0106869,0.2483404 4.0001341,0.2832838 3.9894307,0.3188374 3.9680081,0.3911121 3.9471761,0.4638926 3.9274138,0.5361319 3.9088815,0.6071067 3.8915101,0.6763774 3.8751113,0.7437266 3.8594898,0.8090954 3.8445538,0.8725208 3.8304283,0.9340725 3.8175372,0.9938023 3.8117653,1.0229934 3.8065801,1.0517405 3.8020948,1.0800494 3.7984262,1.1079289 3.7956917,1.1353912 3.7940056,1.1624537 3.7934756,1.18914 3.7941994,1.2154808 3.7962616,1.2415145 3.7997303,1.2672866 3.8046546,1.292847 3.8110615,1.318247 3.818954,1.3435358 3.828308,1.3687572 3.8390694,1.3939469 3.8511519,1.4191292 3.8644346,1.444314 3.8787587,1.4694933 3.8939249,1.4946383 3.9096954,1.5196988 3.9419489,1.5692799 3.9578317,1.5936256 3.9731367,1.617546 3.9875536,1.6409415 4.0007838,1.6637149 4.0125483,1.6857756 4.0225981,1.7070444 4.0307215,1.7274572 4.0367502,1.7469674 4.0389392,1.7563748 4.0405621,1.7655476 4.0416102,1.7744846 4.0420769,1.7831859 4.0419577,1.7916518 4.0412502,1.7998836 4.0399536,1.8078827 4.0380689,1.8156513 4.0355987,1.8231917 4.0325468,1.8305065 4.0289183,1.8375987 4.0247196,1.844471 4.0146415,1.857568 4.0023812,1.869821 3.9880208,1.8812528 3.9716543,1.8918859 3.9533853,1.9017412 3.9333262,1.9108381 3.9115956,1.9191938 3.8883168,1.9268227 3.8636168,1.9337366 3.8376244,1.9399444 3.810469,1.9454526 3.782279,1.9502651 3.7531807,1.9543831 3.7232968,1.9578058 3.692745,1.96053 3.6616368,1.9625502 3.6300754,1.963859 3.5981552,1.9644468 3.5659605,1.9643023 3.533566,1.9634122 3.5010378,1.9617614 3.4684347,1.9593331 3.4358098,1.9561089 3.4032111,1.9520686 3.3706834,1.9471905 3.338269,1.9414515 3.3060094,1.934827 3.273946,1.9272908 3.2421219,1.9188158 3.2105826,1.9093731 3.1793776,1.898933 3.1485601,1.8874652 3.1181854,1.8749403 3.0883102,1.8613306 3.0589909,1.8466122 3.0302818,1.8307654 3.0022342,1.8137769 2.9748948,1.7956406 2.9483042,1.776359 2.9224956,1.7559442 2.8974935,1.7344198 2.8733118,1.7118223 2.8499529,1.6882016 2.8274069,1.6636216 2.8056522,1.6381582 2.7846558,1.6118971 2.7643752,1.5849303 2.744759,1.557354 2.7257478,1.5292655 2.7072755,1.5007608 2.671654,1.4428626 2.6372654,1.384295 2.5694708,1.2666457 2.534708,1.2076737 2.4985371,1.1483699 2.4604461,1.088476 2.4405563,1.0582391 2.4200575,1.027788 2.3989297,0.9971219 2.3771658,0.9662561 2.3547732,0.9352253 2.331774,0.9040846 2.2841058,0.8417902 2.2345471,0.7801525 2.2092025,0.7498719 2.1835596,0.7201183 2.1576734,0.6910202 2.1315928,0.6627042 2.1053574,0.6352921 2.0789951,0.6088977 2.0525195,0.5836245 2.0259271,0.5595615 1.9991933,0.5367804 1.9722714,0.5153332 1.9450936,0.4952521 1.9175731,0.4765501 1.8896084,0.4592238 1.8610882,0.4432554 1.8318956,0.4286156 1.801912,0.4152653 1.7710212,0.4031577 1.7391135,0.392241 1.7060903,0.3824602 1.6718681,0.3737597 1.6363826,0.3660853 1.5995928,0.3593865 1.5614847,0.3536184 1.5220711,0.3487424 1.4813891,0.3447255 1.4394977,0.3415401 1.3964749,0.3391632 1.3524155,0.3375762 1.3074279,0.3367642 1.261632,0.3367157 1.2151561,0.3374218 1.1681348,0.338876 1.1207059,0.3410735 1.0730082,0.3440108 1.0251783,0.3476851 0.9773487,0.3520942 0.9296448,0.3572353 0.882182,0.3631051 0.8350633,0.3696991 0.7883777,0.3770112 0.7422,0.3850339 0.6965914,0.3937591 0.6516007,0.4031779 0.6072659,0.4132818 0.5636151,0.4240627 0.5206672,0.4355138 0.4784333,0.4476294 0.436918,0.4604062 0.3961201,0.4738432 0.3560337,0.4879425 0.3166498,0.5027096 0.2779568,0.5181539 0.2399418,0.5342892 0.2025919,0.5511342 0.165895,0.5687133 0.1298411,0.5870564 0.0944225,0.6061991 0.0596339,0.6261816 0.0254717,0.6470479 -0.0080663,0.6688438 -0.0409814,0.6916162 -0.0732748,0.7154116 -0.1049473,0.7402752 -0.1360005,0.7662493 -0.1664369,0.7933721 -0.1962604,0.8216768 -0.2254768,0.8511898 -0.2540942,0.8819302 -0.2821236,0.9139079 -0.309579,0.9471226 -0.3364784,0.9815625 -0.3628438,1.0172037 -0.3887001,1.0540105 -0.4140754,1.0919352 -0.4389996,1.1309197 -0.4635037,1.1708961 -0.4876189,1.2117868 -0.5113761,1.2535062 -0.5348049,1.2959603 -0.5579329,1.3390484 -0.6033816,1.426691 -0.6478725,1.515511 -0.6914724,1.6045158 -0.7341408,1.6926668 -0.7550769,1.7360902 -0.7757036,1.7789014 -0.7959781,1.8209689 -0.8158523,1.8621654 -0.8352758,1.9023695 -0.8541983,1.9414681 -0.8725724,1.9793581 -0.890356,2.0159489 -0.9075152,2.0511641 -0.9240265,2.0849438 -0.9398795,2.1172467 -0.9550798,2.1480521 -0.9696515,2.177362 -0.9836393,2.2052032 -0.9971121,2.2316295 -1.0101645,2.2567235 -1.0229185,2.2805974 -1.0355188,2.303389 -1.0481256,2.3252547 -1.0609068,2.3463627 -1.07403,2.3668856 -1.0876553,2.3869936 -1.1019275,2.4068479 -1.1169695,2.4265938 -1.1328728,2.4463526 -1.1496898,2.4662151 -1.1674332,2.4862389 -1.1860789,2.5064506 -1.2055723,2.5268486 -1.2258358,2.5474086 -1.2682947,2.5888295 -1.3126588,2.6302285 -1.3582253,2.6710329 -1.4046136,2.7107215 -1.4518928,2.7489169 -1.4759914,2.7673749 -1.5004934,2.7853772 -1.5254816,2.8029073 -1.55104,2.8199517 -1.5772486,2.8364979 -1.6041786,2.8525335 -1.6318868,2.8680449 -1.6604095,2.8830148 -1.6897578,2.8974218 -1.719918,2.9112401 -1.7508537,2.9244405 -1.7825099,2.9369909 -1.8148175,2.9488586 -1.8476982,2.9600108 -1.8810681,2.9704164 -1.9148425,2.9800468 -1.9489394,2.9888774 -1.9832843,2.9968888 -2.0178147,3.0040679 -2.0524836,3.0104096 -2.0872648,3.0159175 -2.1221556,3.0206053 -2.1571781,3.0244969 -2.1923747,3.027625 -2.2278028,3.0300296 -2.26353,3.031756 -2.2996288,3.0328539 -2.336172,3.0333751 -2.3732268,3.0333724 -2.4108508,3.0328978 -2.4490858,3.0320008 -2.4879534,3.0307271 -2.52745,3.0291166 -2.5675415,3.0272023 -2.64919,3.0225483 -2.7318619,3.0168363 -2.8139846,3.0100067 -2.8542557,3.0061355 -2.8936698,3.0019389 -2.9319803,2.997404 -2.9689507,2.9925236 -3.004362,2.9872985 -3.0380202,2.9817396 -3.0697625,2.9758692 -3.0994651,2.9697237 -3.1270528,2.9633581 -3.1525052,2.9568478 -3.1758553,2.9502806 -3.1971823,2.9437433 -3.2166004,2.9373056 -3.2342439,2.9310008 -3.2502532,2.9248045 -3.2647619,2.918611 -3.2778839,2.9122157 -3.2897016,2.9053098 -3.3002562,2.8974944 -3.3095457,2.888346 -3.3175269,2.8775082 -3.3241149,2.8647885 -3.3291813,2.8502533 -3.3325643,2.8342575 -3.3340944,2.8173844 -3.3336257,2.8003561 -3.3310738,2.7839199 -3.3290163,2.7761346 -3.3264529,2.7687293 -3.3234056,2.7617544 -3.3199062,2.755242 -3.3117243,2.7436384 -3.3023162,2.7338238 -3.2921309,2.725513 -3.281568,2.7183296 -3.2708789,2.7119105 -3.2490297,2.7004208 -3.2373339,2.6951691 -3.2245738,2.6902758 -3.210344,2.6858069 -3.1943466,2.681815 -3.1764326,2.6783197 -3.1566148,2.6752998 -3.1350353,2.6727003 -3.1119235,2.6704447 -3.0875641,2.6684421 -3.0622711,2.6665945 -3.0100806,2.6629863 -2.9571945,2.659004 -2.90439,2.6542857 -2.8515878,2.6486344 -2.7982715,2.6418701 -2.7438854,2.6336861 -2.7162065,2.6288959 -2.6882305,2.6235112 -2.6600246,2.6174139 -2.6316857,2.6104782 -2.6033343,2.602577 -2.5751085,2.5935897 -2.547158,2.5834087 -2.5196386,2.5719458 -2.4927054,2.5591398 -2.4665064,2.544964 -2.4411764,2.5294344 -2.4168322,2.5126134 -2.393569,2.4946098 -2.3714596,2.475572 -2.3505576,2.4556736 -2.3308989,2.4350995 -2.3125037,2.414033 -2.2953783,2.3926432 -2.2795162,2.371073 -2.2649007,2.3494268 -2.2515066,2.3277556 -2.2393019,2.3060425 -2.2282495,2.2841965 -2.2183078,2.262059 -2.2094322,2.2394142 -2.2015748,2.2160059 -2.1946854,2.1915567 -2.1887118,2.1657826 -2.1836003,2.138409 -2.1792966,2.1091864 -2.1757458,2.0779088 -2.1728935,2.0444286 -2.1706857,2.0086686 -2.1690695,1.9706277 -2.1679932,1.9303745 -2.1674066,1.888037 -2.1672606,1.8437946 -2.1675078,1.7978699 -2.1681027,1.7505215 -2.1690014,1.702035 -2.1715451,1.6028738 -2.1748305,1.5028958 -2.1766654,1.4533655 -2.1785877,1.4045135 -2.1805703,1.3565834 -2.182589,1.30978 -2.1846229,1.2642595 -2.186654,1.220123 -2.1886676,1.1774157 -2.1906519,1.1361296 -2.1925978,1.0962082 -2.1944987,1.0575535 -2.1963501,1.0200321 -2.1981494,0.9834798 -2.2015895,0.9125081 -2.2078856,0.7729245 -2.2093564,0.7371969 -2.2107932,0.7007111 -2.2121993,0.6632822 -2.2135778,0.624745 -2.2149312,0.5849529 -2.216262,0.5437767 -2.2175721,0.5011029 -2.2188634,0.4568332 -2.2201373,0.4108836 -2.2213952,0.3631829 -2.2226382,0.3136717 -2.223867,0.2623014 -2.2250825,0.2090331 -2.2262851,0.1538366 -2.2274754,0.0966892 -2.2286535,0.0375746 -2.2298197,-0.0235182 -2.2309741,-0.0865958 -2.2321168,-0.1516615 -2.2332478,-0.2187168 -2.2332478,-0.2187168 -2.233344,-0.2416472 -2.232747,-0.2644226 -2.2314559,-0.287043 -2.2294696,-0.3095088 -2.2267872,-0.3318211 -2.2234084,-0.3539817 -2.2193336,-0.3759935 -2.2145643,-0.3978611 -2.2091036,-0.4195905 -2.2029564,-0.4411899 -2.1961299,-0.4626695 -2.1886339,-0.4840421 -2.1804811,-0.5053235 -2.1716874,-0.5265311 -2.1622713,-0.5476832 -2.1522546,-0.5687977 -2.1305193,-0.6109749 -2.1067085,-0.6531437 -2.08109,-0.695292 -2.0539706,-0.7372698 -2.025694,-0.7787517 -1.9966294,-0.8192487 -1.9671491,-0.8581895 -1.9376027,-0.8950151 -1.9229018,-0.912487 -1.9082927,-0.9292741 -1.8938016,-0.9453526 -1.8794483,-0.9607177 -1.8652462,-0.9753847 -1.8512017,-0.9893884 -1.8235799,-1.0156192 -1.7965163,-1.0399218 -1.7698671,-1.0628512 -1.7434261,-1.0848743 -1.7169403,-1.1062429 -1.6901289,-1.1269601 -1.6627079,-1.1468473 -1.6344141,-1.1656344 -1.6050313,-1.1830475 -1.5744091,-1.1988817 -1.542461,-1.2130182 -1.5091467,-1.2254009 -1.4744542,-1.236013 3.5255459,-1.236013z" transform="matrix(1,0,0,-1,3.3340944,3.0333751)" fill="rgb(0,0,0)" shaper:cutDepth="0.3cm" stroke-linecap="round" stroke-linejoin="round" /><path d="M2.7555458,-1.076013 L2.2755458,-1.076013 2.2755458,-0.786013 2.7555458,-0.786013 2.7555458,-1.076013z" transform="matrix(1,0,0,-1,3.3340944,3.0333751)" fill="rgb(255,255,255)" stroke="rgb(0,0,0)" stroke-width="0.0010cm" stroke-linecap="round" stroke-linejoin="round" shaper:cutDepth="0.3cm" /><path d="M3.4255459,1.4439871 L3.4255459,0.9639871 3.1355459,0.9639871 3.1355459,1.4439871 3.4255459,1.4439871z" transform="matrix(1,0,0,-1,3.3340944,3.0333751)" fill="rgb(255,255,255)" stroke="rgb(0,0,0)" stroke-width="0.0010cm" stroke-linecap="round" stroke-linejoin="round" shaper:cutDepth="0.3cm" /><path d="M-0.2244542,-0.786013 L-0.2244542,-1.076013 -0.7044542,-1.076013 -0.7044542,-0.786013 -0.2244542,-0.786013z" transform="matrix(1,0,0,-1,3.3340944,3.0333751)" fill="rgb(255,255,255)" stroke="rgb(0,0,0)" stroke-width="0.0010cm" stroke-linecap="round" stroke-linejoin="round" shaper:cutDepth="0.3cm" /><path d="M-1.8744542,0.2139871 L-1.5844542,0.2139871 -1.5844542,-0.2660129 -1.8744542,-0.2660129 -1.8744542,0.2139871z" transform="matrix(1,0,0,-1,3.3340944,3.0333751)" fill="rgb(255,255,255)" stroke="rgb(0,0,0)" stroke-width="0.0010cm" stroke-linecap="round" stroke-linejoin="round" shaper:cutDepth="0.3cm" /><path d="M-1.8744541,1.4439871 L-1.5844541,1.4439871 -1.5844541,0.9639871 -1.8744541,0.9639871 -1.8744541,1.4439871z" transform="matrix(1,0,0,-1,3.3340944,3.0333751)" fill="rgb(255,255,255)" stroke="rgb(0,0,0)" stroke-width="0.0010cm" stroke-linecap="round" stroke-linejoin="round" shaper:cutDepth="0.3cm" /><path d="M3.1355459,-1.0160129 L3.1355459,-0.5360129 3.4255459,-0.5360129 3.4255459,-1.0160129 3.1355459,-1.0160129z" transform="matrix(1,0,0,-1,3.3340944,3.0333751)" fill="rgb(255,255,255)" stroke="rgb(0,0,0)" stroke-width="0.0010cm" stroke-linecap="round" stroke-linejoin="round" shaper:cutDepth="0.3cm" /></svg>