<?xml version="1.0" encoding="utf-8"?>
<!-- Generator: Fusion 360, Shaper Origin Export Add-In, Version 1.7.0  -->
<svg xmlns="http://www.w3.org/2000/svg" xmlns:xlink="http://www.w3.org/1999/xlink" xmlns:shaper="http://www.shapertools.com/namespaces/shaper" shaper:fusionaddin="version:1.7.0" width="14.920133cm" height="8.5388373cm" version="1.1" x="0cm" y="0cm" viewBox="0 0 14.920133 8.5388373" enable-background="new 0 0 14.920133 8.5388373" xml:space="preserve"><path d="M-4.6865604,-0.9374486 L-4.6865604,-0.9374486 -4.6867528,-0.9831153 -4.685573,-1.0284674 -4.6830193,-1.0735049 -4.6790897,-1.1182287 -4.6737826,-1.1626405 -4.6670974,-1.2067438 -4.6590349,-1.2505443 -4.6495988,-1.2940505 -4.6387955,-1.3372738 -4.6266353,-1.3802297 -4.613133,-1.4229376 -4.5983089,-1.4654222 -4.5821892,-1.5077133 -4.5648063,-1.5498443 -4.5461984,-1.5918509 -4.5264095,-1.6337678 -4.5054889,-1.6756267 -4.4834907,-1.7174532 -4.4604741,-1.7592648 -4.4365026,-1.8010682 -4.4116441,-1.8428568 -4.3859705,-1.884608 -4.3595576,-1.9262808 -4.3324849,-1.9678133 -4.2766935,-2.0500951 -4.2481471,-2.090615 -4.2192826,-2.1305465 -4.1901854,-2.1697507 -4.1609386,-2.2080893 -4.1316213,-2.2454302 -4.1023073,-2.2816529 -4.073064,-2.316654 -4.0439512,-2.3503525 -4.0150192,-2.3826967 -3.9863079,-2.4136698 -3.9578456,-2.4432931 -3.9296484,-2.4716258 -3.9017211,-2.4987593 -3.8740574,-2.524808 -3.8466412,-2.5499005 -3.8194472,-2.5741716 -3.7655807,-2.6207751 -3.7120931,-2.6655261 -3.6585137,-2.7089283 -3.6042999,-2.750993 -3.576778,-2.7714213 -3.5488873,-2.7913625 -3.5205627,-2.8107433 -3.4917446,-2.82949 -3.4623812,-2.8475341 -3.4324289,-2.8648166 -3.4018535,-2.8812905 -3.3706294,-2.8969206 -3.3387379,-2.9116817 -3.3061665,-2.9255564 -3.2729072,-2.9385338 -3.2389561,-2.9506082 -3.2043115,-2.9617774 -3.1689733,-2.972041 6.8310269,-2.972041 6.8310269,-2.972041 6.8652639,-2.9605533 6.9007979,-2.9487226 6.9376218,-2.9365422 6.9757166,-2.923993 7.0150454,-2.9110394 7.0555492,-2.8976233 7.0971395,-2.8836588 7.1396918,-2.8690238 7.1830407,-2.8535567 7.2269817,-2.8370597 7.271275,-2.8193062 7.315655,-2.8000541 7.3598407,-2.779062 7.4035456,-2.7561024 7.4251286,-2.7438206 7.4464855,-2.7309742 7.4675826,-2.7175446 7.4883879,-2.7035164 7.5088708,-2.6888787 7.529003,-2.6736248 7.548758,-2.6577526 7.5681121,-2.6412645 7.5870435,-2.6241679 7.6055331,-2.6064744 7.6235644,-2.5882002 7.6411233,-2.5693654 7.6581978,-2.5499937 7.6747785,-2.5301118 7.690858,-2.5097489 7.706431,-2.4889368 7.7214946,-2.4677089 7.7360477,-2.4461008 7.7636286,-2.401891 7.7892059,-2.3566105 7.8128425,-2.3105664 7.8346308,-2.2640582 7.8546901,-2.2173669 7.8731628,-2.1707458 7.8902076,-2.1244127 7.9059885,-2.0785445 7.9206658,-2.033271 7.9343869,-1.9886703 7.9472769,-1.9447621 7.9594284,-1.9015009 7.9708916,-1.8587696 7.981667,-1.8163772 7.991702,-1.7740602 8.000899,-1.7314998 8.0091325,-1.6883519 8.0162652,-1.6442756 8.0221626,-1.5989572 8.0267073,-1.5521366 8.0298167,-1.5036388 8.0314606,-1.4534037 8.0316696,-1.4015015 8.0305384,-1.3481348 8.0282183,-1.2936227 8.0248989,-1.2383636 8.0207907,-1.1827987 8.0161101,-1.1273811 8.011064,-1.0725445 8.0058353,-1.0186719 8.000567,-0.9660632 7.9953451,-0.9149008 7.9901826,-0.8652149 7.9850152,-0.8168748 7.979712,-0.7696081 7.9679367,-0.6766766 7.9610195,-0.6300413 7.9531116,-0.5826059 7.944004,-0.5338721 7.9389445,-0.5088764 7.9335246,-0.4833957 7.9277316,-0.4573893 7.9215576,-0.4308234 7.9149986,-0.4036717 7.9080548,-0.3759148 7.9007305,-0.3475404 7.8930338,-0.3185427 7.884976,-0.2889223 7.8765717,-0.2586853 7.8678384,-0.2278434 7.8587959,-0.1964129 7.8494661,-0.1644143 7.8398728,-0.1318721 7.8199985,-0.0652723 7.7993892,0.003127 7.7782724,0.0730293 7.7568769,0.1441145 7.7141142,0.2885193 7.6725908,0.4338307 7.6526095,0.50616 7.6332323,0.5779976 7.6144762,0.6491879 7.5963306,0.7196096 7.5787634,0.7891725 7.5617284,0.8578136 7.5451721,0.9254932 7.5290408,0.992191 7.5132876,1.0579023 7.4978787,1.1226339 7.4828012,1.1864008 7.46807,1.2492214 7.453735,1.311114 7.4398856,1.3720942 7.426652,1.4321728 7.4141999,1.491358 7.4027227,1.5496569 7.3924342,1.6070784 7.3835619,1.663635 7.3763408,1.7193447 7.3710061,1.7742327 7.367786,1.8283337 7.3670367,1.8551032 7.366895,1.8816946 7.3673845,1.908116 7.368527,1.9343764 7.3703423,1.9604858 7.3728483,1.9864547 7.3760607,2.0122947 7.3799924,2.0380179 7.3846539,2.0636366 7.3900532,2.0891633 7.396195,2.1146103 7.4030811,2.1399899 7.4107102,2.1653135 7.4190773,2.1905922 7.4281742,2.2158362 7.4379885,2.2410544 7.4485045,2.266255 7.4597018,2.2914443 7.4715564,2.3166273 7.4840396,2.3418074 7.5107547,2.392161 7.5395245,2.442488 7.569946,2.4927304 7.6015404,2.5427898 7.6660398,2.6418013 7.6977441,2.6904141 7.7282553,2.7381818 7.7428693,2.7616881 7.7569542,2.7849106 7.7704363,2.807826 7.7832442,2.8304113 7.7953099,2.8526449 7.8065688,2.8745064 7.8169606,2.895977 7.8264299,2.9170397 7.8349259,2.9376794 7.8424036,2.9578828 7.8488234,2.9776393 7.8541515,2.9969401 7.8583596,3.0157787 7.8614248,3.0341504 7.8633288,3.0520522 7.8640579,3.0694827 7.8636025,3.0864417 7.8619571,3.1029303 7.8591199,3.1189506 7.8550926,3.1345055 7.8498803,3.1495989 7.843491,3.1642351 7.8359355,3.1784191 7.8272271,3.1921562 7.8173816,3.2054518 7.8064167,3.2183116 7.7943521,3.2307414 7.7812096,3.2427472 7.7670125,3.2543348 7.7517856,3.2655102 7.7355554,3.2762794 7.7183495,3.2866483 7.7001966,3.2966225 7.6811266,3.3062076 7.6611697,3.3154089 7.6403573,3.3242313 7.6187211,3.3326795 7.596293,3.3407578 7.5731053,3.3484701 7.5491907,3.35582 7.5245817,3.3628104 7.4993108,3.3694442 7.4734108,3.3757237 7.4469141,3.3816509 7.419853,3.3872276 7.3922596,3.3924548 7.3356023,3.401865 7.2771906,3.4098852 7.2172642,3.4165143 7.156052,3.4217459 7.0937693,3.4255695 7.0306153,3.42797 6.9667713,3.4289281 6.9023997,3.4284207 6.8376447,3.426421 6.7726345,3.4228983 6.7074842,3.4178188 6.6422979,3.4111449 6.5771711,3.4028361 6.5121931,3.3928485 6.4474491,3.3811354 6.3830229,3.367647 6.3189989,3.3523312 6.2554648,3.3351327 6.1925138,3.3159942 6.1302465,3.294856 6.0687703,3.2716578 6.0081968,3.2463414 5.9782839,3.2328717 5.9486391,3.2188528 5.9192763,3.2042789 5.8902091,3.1891451 5.8614509,3.1734471 5.8330147,3.1571813 5.8049126,3.140345 5.7771566,3.1229365 5.7497577,3.1049549 5.7227261,3.0864008 5.6960714,3.0672754 5.669802,3.0475817 5.6439253,3.0273237 5.6184478,3.0065067 5.5933746,2.9851379 5.5687095,2.9632257 5.5444548,2.9407807 5.5206114,2.9178148 5.4971786,2.8943419 5.4741545,2.8703775 5.4515353,2.8459387 5.4293159,2.8210442 5.3860491,2.7699687 5.3442856,2.7173237 5.3039381,2.6632941 5.2649019,2.6080717 5.2270569,2.5518506 5.1902695,2.494821 5.1543948,2.4371647 5.1192785,2.3790488 5.0506687,2.2620042 4.9151818,2.0269688 4.8456143,1.9091509 4.8098277,1.8500196 4.7731907,1.7906538 4.7355845,1.7309885 4.6969072,1.6709661 4.6570759,1.6105423 4.6160294,1.5496928 4.5737301,1.4884192 4.5301667,1.4267551 4.485356,1.3647728 4.4393439,1.3025857 4.3922012,1.240346 4.3440186,1.1782378 4.2949009,1.1164718 4.244962,1.0552785 4.1943191,0.9949028 4.1430873,0.9355979 4.0913748,0.8776188 4.0392766,0.8212168 3.9868692,0.7666327 3.9342055,0.7140916 3.8813103,0.6637969 3.8547741,0.639548 3.8281732,0.6159237 3.8014996,0.5929405 3.7747429,0.5706121 3.7478896,0.5489499 3.7209239,0.5279627 3.6938273,0.5076571 3.6665791,0.4880372 3.6391564,0.4691047 3.6115346,0.4508595 3.5836877,0.4332996 3.5555884,0.4164212 3.5272086,0.4002188 3.4985195,0.3846858 3.4694918,0.3698141 3.4400962,0.3555942 3.4103033,0.3420159 3.3800841,0.3290679 3.3494101,0.3167381 3.3182539,0.3050138 3.2865889,0.2938817 3.2543901,0.2833285 3.2216341,0.2733401 3.1882993,0.2639029 3.1543664,0.255003 3.1198184,0.2466269 3.0846409,0.2387611 3.0488225,0.231393 3.0123551,0.2245103 2.9752338,0.2181015 2.9374572,0.2121559 2.8990273,0.2066637 2.8599492,0.2016156 2.8202311,0.1970031 2.779884,0.1928185 2.7389213,0.1890546 2.6973593,0.1857048 2.6552165,0.1827632 2.6125135,0.1802244 2.569273,0.1780834 2.5255197,0.1763359 2.4812797,0.1749779 2.3914524,0.1734171 2.3000292,0.1733775 2.207265,0.1748411 2.1134266,0.1777947 2.0187873,0.1822283 1.9236217,0.1881344 1.8282004,0.1955074 1.7327854,0.2043419 1.6376249,0.2146327 1.5429473,0.2263726 1.448956,0.2395524 1.3558268,0.25416 1.2637078,0.2701809 1.1727198,0.2875986 1.0829596,0.3063961 0.9945025,0.3265567 0.9074039,0.3480646 0.8217016,0.3709064 0.7374178,0.3950717 0.6545615,0.420554 0.5731305,0.4473518 0.4931137,0.4754694 0.4144932,0.5049182 0.3372464,0.535717 0.261348,0.5678932 0.1867725,0.6014843 0.1134964,0.6365382 0.0414998,0.6731142 -0.0292323,0.7112825 -0.0987102,0.7511229 -0.1669407,0.7927219 -0.233928,0.8361702 -0.2996747,0.8815606 -0.3320832,0.9050129 -0.3641822,0.9289851 -0.3959719,0.9534883 -0.4274525,0.9785331 -0.4586243,1.0041298 -0.489488,1.0302882 -0.520044,1.0570176 -0.5502934,1.0843265 -0.580237,1.1122229 -0.6098761,1.1407137 -0.6392123,1.1698052 -0.6682473,1.1995027 -0.6969833,1.2298104 -0.7254227,1.2607314 -0.7535683,1.2922678 -0.7814234,1.3244203 -0.8089916,1.3571882 -0.8362772,1.3905696 -0.8632847,1.4245608 -0.8900193,1.4591568 -0.9164866,1.4943512 -0.9426926,1.5301358 -0.9686437,1.5665013 -0.9943467,1.6034366 -1.045037,1.6789661 -1.0948229,1.7566103 -1.1437658,1.8362352 -1.1919282,1.9176889 -1.2393717,2.0008019 -1.2861555,2.0853896 -1.3323349,2.1712528 -1.37796,2.2581797 -1.4230737,2.3459471 -1.5118942,2.5230614 -1.5989401,2.700634 -1.6417864,2.7889524 -1.6841447,2.87661 -1.7259647,2.9633424 -1.7671783,3.0488855 -1.8077022,3.1329788 -1.8474421,3.215369 -1.8862982,3.2958143 -1.9053636,3.3352362 -1.9241709,3.3740886 -1.9427085,3.4123462 -1.9609654,3.4499854 -1.9789313,3.4869842 -1.9965971,3.5233223 -2.0139545,3.5589813 -2.0309967,3.5939447 -2.0477183,3.6281984 -2.0641153,3.6617302 -2.0801858,3.6945305 -2.0959296,3.7265923 -2.1113486,3.7579111 -2.126447,3.7884851 -2.1412314,3.8183158 -2.155711,3.8474072 -2.1698976,3.8757668 -2.183806,3.9034054 -2.197454,3.9303369 -2.2108625,3.9565791 -2.2240561,3.9821534 -2.2370628,4.0070849 -2.2626431,4.0551379 -2.2878866,4.1010052 -2.3131086,4.1449926 -2.3386421,4.1874306 -2.3648214,4.2286608 -2.3919669,4.2690213 -2.4203716,4.3088341 -2.4502857,4.3483916 -2.4818993,4.3879409 -2.5153263,4.4276693 -2.5506011,4.4676993 -2.5876842,4.5080912 -2.6264731,4.5488486 -2.6668179,4.5899284 -2.7085371,4.6312506 -2.7514313,4.6727061 -2.7952973,4.7141656 -2.8399414,4.7554874 -2.8851938,4.7965264 -2.9309236,4.837143 -2.977054,4.8772118 -3.0235692,4.9166276 -3.070509,4.9553039 -3.1179604,4.9931723 -3.166047,5.0301786 -3.2149177,5.0662801 -3.2647359,5.1014427 -3.3156686,5.1356379 -3.3678767,5.1688405 -3.4215049,5.2010255 -3.4766702,5.2321652 -3.5334507,5.2622262 -3.5918751,5.2911667 -3.6519225,5.3189364 -3.7135261,5.3454776 -3.7765807,5.3707277 -3.8409521,5.3946214 -3.9064867,5.417094 -3.9730187,5.4380832 -4.0403789,5.4575319 -4.108403,5.4753902 -4.1769403,5.4916184 -4.2458623,5.5061892 -4.3150708,5.5190901 -4.3845065,5.5303262 -4.4541571,5.5399221 -4.5240598,5.5479228 -4.5942929,5.5543909 -4.6649668,5.5594041 -4.7362133,5.5630515 -4.8081757,5.5654304 -4.8809988,5.5666437 -4.9548191,5.5667962 -5.0297544,5.5659918 -5.1058937,5.5643299 -5.1832867,5.5619026 -5.2619353,5.5587916 -5.3417831,5.5550651 -5.4227039,5.5507741 -5.5044917,5.5459495 -5.6694558,5.5347241 -5.7518633,5.5282962 -5.8336284,5.5212896 -5.9142699,5.5136719 -5.9932946,5.5054115 -6.0320467,5.5010315 -6.0702114,5.4964814 -6.1077301,5.4917594 -6.1445461,5.4868646 -6.1806056,5.4817975 -6.2158574,5.4765595 -6.2502537,5.4711533 -6.2837505,5.4655831 -6.3163078,5.4598545 -6.3478904,5.4539745 -6.3784682,5.4479523 -6.4080169,5.4417992 -6.4365189,5.4355292 -6.4639632,5.4291589 -6.4903461,5.4227073 -6.5156701,5.4161951 -6.5399445,5.409644 -6.5631845,5.4030762 -6.585411,5.3965133 -6.6066496,5.3899752 -6.6269294,5.383479 -6.6462825,5.3770374 -6.6647423,5.3706574 -6.6823436,5.3643394 -6.6991208,5.3580753 -6.715108,5.3518474 -6.7303376,5.3456266 -6.7448398,5.3393718 -6.7586417,5.3330291 -6.7717664,5.3265312 -6.7842324,5.3197969 -6.7960526,5.3127316 -6.8072343,5.3052305 -6.8177793,5.2971842 -6.8276842,5.2884845 -6.8369401,5.27903 -6.8455335,5.2687322 -6.8534453,5.2575219 -6.8606511,5.2453563 -6.867121,5.2322256 -6.8728194,5.2181591 -6.8777062,5.2032244 -6.8817385,5.187524 -6.8848722,5.1711906 -6.887064,5.1543819 -6.8882729,5.1372757 -6.8884635,5.1200621 -6.8876075,5.1029358 -6.8856869,5.0860877 -6.8826962,5.0696976 -6.8786444,5.0539266 -6.8735572,5.0389113 -6.8674781,5.0247575 -6.8604705,5.0115344 -6.8526178,4.9992708 -6.8440192,4.9879591 -6.8347852,4.9775607 -6.8250314,4.9680122 -6.8148738,4.9592316 -6.8044224,4.9511248 -6.7830099,4.9365359 -6.7613108,4.9235098 -6.7393904,4.9115101 -6.716877,4.9002462 -6.6930621,4.8896525 -6.6803954,4.8846307 -6.667078,4.8798144 -6.6530141,4.8752205 -6.6381224,4.8708631 -6.6223389,4.8667533 -6.6056186,4.8628976 -6.5879373,4.8592976 -6.569292,4.855949 -6.5496986,4.8528426 -6.529189,4.8499652 -6.5078081,4.8473 -6.4856111,4.8448279 -6.4626616,4.8425276 -6.4390294,4.840376 -6.3900205,4.8364217 -6.3392138,4.832764 -6.2872238,4.8292056 -6.2345749,4.8255733 -6.1287009,4.8175719 -6.0230394,4.8080492 -5.9173665,4.7966195 -5.864206,4.7900839 -5.8106228,4.7829235 -5.7564856,4.7750493 -5.701713,4.7663365 -5.6462927,4.7566198 -5.5902925,4.7456922 -5.5338531,4.7333164 -5.4771738,4.71924 -5.4204991,4.7032102 -5.3641071,4.6849885 -5.3361106,4.6749881 -5.3082987,4.6643631 -5.2807104,4.6530936 -5.2533849,4.6411628 -5.2263604,4.628558 -5.1996745,4.6152708 -5.1733634,4.601298 -5.1474612,4.5866416 -5.1220003,4.5713096 -5.0970106,4.5553159 -5.0725194,4.5386799 -5.0485514,4.5214272 -5.0251284,4.5035888 -5.0022694,4.4852006 -4.9799906,4.4663024 -4.9583062,4.4469372 -4.9372279,4.4271497 -4.9167652,4.4069861 -4.8969257,4.3864928 -4.877715,4.3657159 -4.859137,4.3447004 -4.8411937,4.3234893 -4.8238855,4.302123 -4.8072111,4.2806385 -4.7911681,4.2590686 -4.7757527,4.2374411 -4.7609599,4.2157783 -4.7467837,4.1940953 -4.733217,4.1723998 -4.7202521,4.1506906 -4.696093,4.107179 -4.6742314,4.0633657 -4.6545836,4.0189229 -4.6455618,3.9963323 -4.6370591,3.9734135 -4.6290632,3.9501005 -4.6215616,3.9263247 -4.6145414,3.9020159 -4.6079897,3.8771036 -4.6018932,3.8515176 -4.5962384,3.825189 -4.5910119,3.7980509 -4.5861999,3.7700401 -4.5817887,3.7410977 -4.5777647,3.7111706 -4.574114,3.6802121 -4.570823,3.6481834 -4.5678779,3.6150538 -4.5652654,3.5808012 -4.5629719,3.5454133 -4.5609842,3.5088871 -4.5592891,3.471229 -4.5578737,3.4324539 -4.5567251,3.3925847 -4.5558308,3.3516511 -4.5551782,3.30969 -4.554755,3.266744 -4.5545492,3.2228617 -4.5545489,3.1780969 -4.5547424,3.1325083 -4.5551181,3.0861589 -4.555665,3.0391154 -4.556372,2.9914479 -4.5582234,2.894534 -4.5605894,2.7960219 -4.5633912,2.696536 -4.5700106,2.4971389 -4.5736944,2.3984257 -4.5775473,2.301102 -4.5815159,2.2056447 -4.5835284,2.1587441 -4.5855525,2.1124524 -4.5875832,2.0668041 -4.5896159,2.0218266 -4.5916464,1.9775405 -4.593671,1.9339591 -4.5956862,1.8910894 -4.597689,1.8489315 -4.5996766,1.8074791 -4.6016468,1.7667202 -4.6035974,1.7266372 -4.6055267,1.6872074 -4.6093159,1.610194 -4.6130058,1.535411 -4.6165914,1.46253 -4.6200712,1.3911742 -4.6234463,1.3209295 -4.6298984,1.1820015 -4.6329871,1.1124058 -4.6359935,1.0421191 -4.6389251,0.9707112 -4.6417892,0.8977811 -4.6445924,0.8229642 -4.6473406,0.7459348 -4.6486958,0.706499 -4.6500391,0.6664045 -4.6513711,0.6256205 -4.6526924,0.5841182 -4.6540034,0.5418705 -4.6553046,0.4988524 -4.6565964,0.4550405 -4.6578793,0.4104135 -4.6591535,0.3649513 -4.6604195,0.3186357 -4.6616775,0.27145 -4.6629277,0.2233789 -4.6641705,0.1744084 -4.6654061,0.124526 -4.6666346,0.0737203 -4.6678564,0.0219813 -4.6690714,-0.0307002 -4.67028,-0.0843319 -4.6714821,-0.1389209 -4.672678,-0.1944732 -4.6738677,-0.2509939 -4.6750512,-0.3084873 -4.6762287,-0.3669572 -4.6774003,-0.4264064 -4.6785659,-0.4868374 -4.6797255,-0.548252 -4.6808793,-0.6106515 -4.6820272,-0.6740371 -4.6831693,-0.7384092 -4.6843055,-0.8037684 -4.6854359,-0.8701149 -4.6865604,-0.9374486z" transform="matrix(1,0,0,-1,6.8884635,5.5667962)" fill="rgb(0,0,0)" shaper:cutDepth="0.35cm" stroke-linecap="round" stroke-linejoin="round" /><path d="M4.8310268,-2.372041 L4.3310268,-2.372041 4.3310268,-2.072041 4.8310268,-2.072041 4.8310268,-2.372041z" transform="matrix(1,0,0,-1,6.8884635,5.5667962)" fill="rgb(255,255,255)" stroke="rgb(0,0,0)" stroke-width="0.0010cm" stroke-linecap="round" stroke-linejoin="round" shaper:cutDepth="0.35cm" /><path d="M-0.6689732,-2.372041 L-1.1689732,-2.372041 -1.1689732,-2.072041 -0.6689732,-2.072041 -0.6689732,-2.372041z" transform="matrix(1,0,0,-1,6.8884635,5.5667962)" fill="rgb(255,255,255)" stroke="rgb(0,0,0)" stroke-width="0.0010cm" stroke-linecap="round" stroke-linejoin="round" shaper:cutDepth="0.35cm" /><path d="M-3.3689732,1.927959 L-3.6689732,1.927959 -3.6689732,2.427959 -3.3689732,2.427959 -3.3689732,1.927959z" transform="matrix(1,0,0,-1,6.8884635,5.5667962)" fill="rgb(255,255,255)" stroke="rgb(0,0,0)" stroke-width="0.0010cm" stroke-linecap="round" stroke-linejoin="round" shaper:cutDepth="0.35cm" /><path d="M6.3310269,-1.572041 L6.3310269,-2.072041 6.0310269,-2.072041 6.0310269,-1.572041 6.3310269,-1.572041z" transform="matrix(1,0,0,-1,6.8884635,5.5667962)" fill="rgb(255,255,255)" stroke="rgb(0,0,0)" stroke-width="0.0010cm" stroke-linecap="round" stroke-linejoin="round" shaper:cutDepth="0.35cm" /><path d="M6.0310269,1.927959 L6.3310269,1.927959 6.3310269,1.427959 6.0310269,1.427959 6.0310269,1.927959z" transform="matrix(1,0,0,-1,6.8884635,5.5667962)" fill="rgb(255,255,255)" stroke="rgb(0,0,0)" stroke-width="0.0010cm" stroke-linecap="round" stroke-linejoin="round" shaper:cutDepth="0.35cm" /><path d="M-3.3689733,-0.572041 L-3.6689733,-0.572041 -3.6689733,-0.072041 -3.3689733,-0.072041 -3.3689733,-0.572041z" transform="matrix(1,0,0,-1,6.8884635,5.5667962)" fill="rgb(255,255,255)" stroke="rgb(0,0,0)" stroke-width="0.0010cm" stroke-linecap="round" stroke-linejoin="round" shaper:cutDepth="0.35cm" /></svg>