<?xml version="1.0" encoding="utf-8"?>
<!-- Generator: Fusion 360, Shaper Origin Export Add-In, Version 1.7.0  -->
<svg xmlns="http://www.w3.org/2000/svg" xmlns:xlink="http://www.w3.org/1999/xlink" xmlns:shaper="http://www.shapertools.com/namespaces/shaper" shaper:fusionaddin="version:1.7.0" width="7.4599719cm" height="4.2693881cm" version="1.1" x="0cm" y="0cm" viewBox="0 0 7.4599719 4.2693881" enable-background="new 0 0 7.4599719 4.2693881" xml:space="preserve"><path d="M-2.123169,0.0312832 L-2.123169,0.0312832 -2.1232653,0.0083528 -2.1226683,-0.0144226 -2.1213771,-0.037043 -2.1193908,-0.0595088 -2.1167085,-0.0818211 -2.1133297,-0.1039817 -2.1092548,-0.1259935 -2.1044855,-0.1478611 -2.0990248,-0.1695905 -2.0928776,-0.1911899 -2.0860511,-0.2126695 -2.0785551,-0.2340421 -2.0704024,-0.2553235 -2.0616086,-0.2765311 -2.0521925,-0.2976832 -2.0421758,-0.3187977 -2.0204406,-0.3609749 -1.9966298,-0.4031437 -1.9710112,-0.445292 -1.9438918,-0.4872698 -1.9156152,-0.5287517 -1.8865507,-0.5692487 -1.8570703,-0.6081895 -1.827524,-0.6450151 -1.8128231,-0.662487 -1.7982139,-0.6792741 -1.7837228,-0.6953526 -1.7693696,-0.7107177 -1.7551675,-0.7253847 -1.741123,-0.7393884 -1.7135011,-0.7656192 -1.6864375,-0.7899218 -1.6597883,-0.8128512 -1.6333473,-0.8348743 -1.6068615,-0.8562429 -1.5800502,-0.8769601 -1.5526291,-0.8968473 -1.5243353,-0.9156344 -1.4949525,-0.9330475 -1.4643304,-0.9488817 -1.4323823,-0.9630182 -1.3990679,-0.9754009 -1.3643754,-0.986013 3.6356246,-0.986013 3.6356246,-0.986013 3.652651,-0.9802954 3.6703301,-0.9744064 3.6886584,-0.9683422 3.7076263,-0.9620938 3.7272158,-0.9556433 3.7473974,-0.948962 3.7893436,-0.934719 3.8328878,-0.9188029 3.8549946,-0.9099645 3.8771525,-0.9003811 3.8992214,-0.8899323 3.921058,-0.8785046 3.9425203,-0.8659972 3.963472,-0.8523291 3.9837875,-0.8374472 4.0033569,-0.8213328 4.0220883,-0.8040038 4.0399092,-0.7855141 4.0567668,-0.7659494 4.0726261,-0.7454202 4.0874696,-0.7240556 4.1012962,-0.7019985 4.114121,-0.6794 4.1259746,-0.6564134 4.1369022,-0.6331889 4.1469626,-0.6098676 4.1562265,-0.5865771 4.1647727,-0.5634278 4.1726832,-0.5405096 4.1800384,-0.5178893 4.1933688,-0.4736768 4.2051977,-0.4307481 4.2156342,-0.388502 4.2244023,-0.3458034 4.228005,-0.323858 4.2309963,-0.3012984 4.2333167,-0.2779909 4.2349234,-0.2538436 4.235799,-0.2288214 4.2359562,-0.2029537 4.2354399,-0.1763375 4.2343237,-0.1491295 4.2306766,-0.093753 4.2258505,-0.0385895 4.2232455,-0.0116162 4.2206169,0.0147309 4.2180102,0.0403541 4.215435,0.0652315 4.2102286,0.1130571 4.2044047,0.1594605 4.2009926,0.1827137 4.1970943,0.2063472 4.1926038,0.2306136 4.1874326,0.2557402 4.1815198,0.2819094 4.1748381,0.3092479 4.1673931,0.3378251 4.1592208,0.3676564 4.150383,0.39871 4.1409614,0.4309149 4.1310531,0.464168 4.1207657,0.4983404 4.1102129,0.5332838 4.0995095,0.5688374 4.0780869,0.6411121 4.0572549,0.7138926 4.0374925,0.7861319 4.0189603,0.8571067 4.0015889,0.9263774 3.98519,0.9937266 3.9695685,1.0590954 3.9546326,1.1225208 3.940507,1.1840725 3.9276159,1.2438023 3.921844,1.2729934 3.9166589,1.3017405 3.9121735,1.3300494 3.9085049,1.3579289 3.9057704,1.3853912 3.9040843,1.4124537 3.9035543,1.43914 3.9042782,1.4654808 3.9063404,1.4915145 3.9098091,1.5172866 3.9147333,1.542847 3.9211402,1.568247 3.9290328,1.5935358 3.9383867,1.6187572 3.9491481,1.6439469 3.9612307,1.6691292 3.9745134,1.694314 3.9888375,1.7194933 4.0040036,1.7446383 4.0197742,1.7696988 4.0520276,1.8192799 4.0679105,1.8436256 4.0832154,1.867546 4.0976324,1.8909415 4.1108625,1.9137149 4.122627,1.9357756 4.1326768,1.9570444 4.1408002,1.9774572 4.146829,1.9969674 4.149018,2.0063748 4.1506409,2.0155476 4.1516889,2.0244846 4.1521556,2.0331859 4.1520364,2.0416518 4.1513289,2.0498836 4.1500323,2.0578827 4.1481477,2.0656513 4.1456774,2.0731917 4.1426255,2.0805065 4.1389971,2.0875987 4.1347984,2.094471 4.1247202,2.107568 4.11246,2.119821 4.0980996,2.1312528 4.081733,2.1418859 4.0634641,2.1517412 4.043405,2.1608381 4.0216743,2.1691938 3.9983956,2.1768227 3.9736956,2.1837366 3.9477032,2.1899444 3.9205477,2.1954526 3.8923577,2.2002651 3.8632594,2.2043831 3.8333755,2.2078058 3.8028238,2.21053 3.7717155,2.2125502 3.7401542,2.213859 3.7082339,2.2144468 3.6760392,2.2143023 3.6436448,2.2134122 3.6111166,2.2117614 3.5785135,2.2093331 3.5458885,2.2061089 3.5132898,2.2020686 3.4807621,2.1971905 3.4483478,2.1914515 3.4160881,2.184827 3.3840248,2.1772908 3.3522006,2.1688158 3.3206613,2.1593731 3.2894564,2.148933 3.2586388,2.1374652 3.2282641,2.1249403 3.198389,2.1113306 3.1690696,2.0966122 3.1403605,2.0807654 3.112313,2.0637769 3.0849736,2.0456406 3.0583829,2.026359 3.0325743,2.0059442 3.0075722,1.9844198 2.9833906,1.9618223 2.9600316,1.9382016 2.9374857,1.9136216 2.9157309,1.8881582 2.8947346,1.8618971 2.874454,1.8349303 2.8548377,1.807354 2.8358265,1.7792655 2.8173542,1.7507608 2.7817328,1.6928626 2.7473441,1.634295 2.6795495,1.5166457 2.6447867,1.4576737 2.6086158,1.3983699 2.5705249,1.338476 2.5506351,1.3082391 2.5301363,1.277788 2.5090084,1.2471219 2.4872445,1.2162561 2.464852,1.1852253 2.4418528,1.1540846 2.3941845,1.0917902 2.3446258,1.0301525 2.3192813,0.9998719 2.2936383,0.9701183 2.2677522,0.9410202 2.2416716,0.9127042 2.2154362,0.8852921 2.1890738,0.8588977 2.1625983,0.8336245 2.1360058,0.8095615 2.109272,0.7867804 2.0823502,0.7653332 2.0551724,0.7452521 2.0276518,0.7265501 1.9996871,0.7092238 1.9711669,0.6932554 1.9419744,0.6786156 1.9119908,0.6652653 1.8810999,0.6531577 1.8491922,0.642241 1.8161691,0.6324602 1.7819469,0.6237597 1.7464613,0.6160853 1.7096715,0.6093865 1.6715634,0.6036184 1.6321498,0.5987424 1.5914678,0.5947255 1.5495764,0.5915401 1.5065537,0.5891632 1.4624943,0.5875762 1.4175067,0.5867642 1.3717107,0.5867157 1.3252348,0.5874218 1.2782135,0.588876 1.2307847,0.5910735 1.183087,0.5940108 1.1352571,0.5976851 1.0874275,0.6020942 1.0397235,0.6072353 0.9922608,0.6131051 0.9451421,0.6196991 0.8984565,0.6270112 0.8522788,0.6350339 0.8066701,0.6437591 0.7616794,0.6531779 0.7173447,0.6632818 0.6736938,0.6740627 0.6307459,0.6855138 0.5885121,0.6976294 0.5469968,0.7104062 0.5061988,0.7238432 0.4661125,0.7379425 0.4267286,0.7527096 0.3880356,0.7681539 0.3500206,0.7842892 0.3126706,0.8011342 0.2759738,0.8187133 0.2399199,0.8370564 0.2045013,0.8561991 0.1697126,0.8761816 0.1355505,0.8970479 0.1020125,0.9188438 0.0690973,0.9416162 0.036804,0.9654116 0.0051314,0.9902752 -0.0259218,1.0162493 -0.0563581,1.0433721 -0.0861816,1.0716768 -0.1153981,1.1011898 -0.1440155,1.1319302 -0.1720448,1.1639079 -0.1995002,1.1971226 -0.2263997,1.2315625 -0.252765,1.2672037 -0.2786213,1.3040105 -0.3039966,1.3419352 -0.3289209,1.3809197 -0.3534249,1.4208961 -0.3775402,1.4617868 -0.4012974,1.5035062 -0.4247262,1.5459603 -0.4478541,1.5890484 -0.4933029,1.676691 -0.5377938,1.765511 -0.5813936,1.8545158 -0.624062,1.9426668 -0.6449982,1.9860902 -0.6656249,2.0289014 -0.6858993,2.0709689 -0.7057736,2.1121654 -0.725197,2.1523695 -0.7441195,2.1914681 -0.7624936,2.2293581 -0.7802773,2.2659489 -0.7974365,2.3011641 -0.8139477,2.3349438 -0.8298007,2.3672467 -0.8450011,2.3980521 -0.8595727,2.427362 -0.8735606,2.4552032 -0.8870334,2.4816295 -0.9000858,2.5067235 -0.9128397,2.5305974 -0.92544,2.553389 -0.9380469,2.5752547 -0.950828,2.5963627 -0.9639513,2.6168856 -0.9775765,2.6369936 -0.9918488,2.6568479 -1.0068908,2.6765938 -1.022794,2.6963526 -1.0396111,2.7162151 -1.0573545,2.7362389 -1.0760001,2.7564506 -1.0954935,2.7768486 -1.1157571,2.7974086 -1.158216,2.8388295 -1.20258,2.8802285 -1.2481466,2.9210329 -1.2945349,2.9607215 -1.341814,2.9989169 -1.3659126,3.0173749 -1.3904147,3.0353772 -1.4154029,3.0529073 -1.4409612,3.0699517 -1.4671698,3.0864979 -1.4940998,3.1025335 -1.521808,3.1180449 -1.5503307,3.1330148 -1.5796791,3.1474218 -1.6098393,3.1612401 -1.640775,3.1744405 -1.6724311,3.1869909 -1.7047387,3.1988586 -1.7376194,3.2100108 -1.7709894,3.2204164 -1.8047638,3.2300468 -1.8388606,3.2388774 -1.8732056,3.2468888 -1.9077359,3.2540679 -1.9424049,3.2604096 -1.977186,3.2659175 -2.0120769,3.2706053 -2.0470994,3.2744969 -2.0822959,3.277625 -2.117724,3.2800296 -2.1534512,3.281756 -2.1895501,3.2828539 -2.2260932,3.2833751 -2.2631481,3.2833724 -2.3007721,3.2828978 -2.3390071,3.2820008 -2.3778747,3.2807271 -2.4173712,3.2791166 -2.4574628,3.2772023 -2.5391112,3.2725483 -2.6217831,3.2668363 -2.7039059,3.2600067 -2.744177,3.2561355 -2.7835911,3.2519389 -2.8219016,3.247404 -2.858872,3.2425236 -2.8942833,3.2372985 -2.9279415,3.2317396 -2.9596838,3.2258692 -2.9893864,3.2197237 -3.016974,3.2133581 -3.0424265,3.2068478 -3.0657766,3.2002806 -3.0871036,3.1937433 -3.1065217,3.1873056 -3.1241651,3.1810008 -3.1401745,3.1748045 -3.1546831,3.168611 -3.1678051,3.1622157 -3.1796229,3.1553098 -3.1901774,3.1474944 -3.1994669,3.138346 -3.2074482,3.1275082 -3.2140362,3.1147885 -3.2191026,3.1002533 -3.2224856,3.0842575 -3.2240157,3.0673844 -3.223547,3.0503561 -3.2209951,3.0339199 -3.2189376,3.0261346 -3.2163741,3.0187293 -3.2133268,3.0117544 -3.2098274,3.005242 -3.2016456,2.9936384 -3.1922375,2.9838238 -3.1820521,2.975513 -3.1714892,2.9683296 -3.1608001,2.9619105 -3.138951,2.9504208 -3.1272551,2.9451691 -3.1144951,2.9402758 -3.1002652,2.9358069 -3.0842678,2.931815 -3.0663539,2.9283197 -3.0465361,2.9252998 -3.0249566,2.9227003 -3.0018447,2.9204447 -2.9774853,2.9184421 -2.9521923,2.9165945 -2.9000019,2.9129863 -2.8471158,2.909004 -2.7943113,2.9042857 -2.7415091,2.8986344 -2.6881928,2.8918701 -2.6338067,2.8836861 -2.6061278,2.8788959 -2.5781518,2.8735112 -2.5499458,2.8674139 -2.521607,2.8604782 -2.4932556,2.852577 -2.4650297,2.8435897 -2.4370793,2.8334087 -2.4095599,2.8219458 -2.3826266,2.8091398 -2.3564276,2.794964 -2.3310977,2.7794344 -2.3067535,2.7626134 -2.2834902,2.7446098 -2.2613809,2.725572 -2.2404788,2.7056736 -2.2208201,2.6850995 -2.202425,2.664033 -2.1852995,2.6426432 -2.1694374,2.621073 -2.154822,2.5994268 -2.1414279,2.5777556 -2.1292232,2.5560425 -2.1181707,2.5341965 -2.1082291,2.512059 -2.0993534,2.4894142 -2.091496,2.4660059 -2.0846066,2.4415567 -2.078633,2.4157826 -2.0735216,2.388409 -2.0692178,2.3591864 -2.0656671,2.3279088 -2.0628148,2.2944286 -2.0606069,2.2586686 -2.0589907,2.2206277 -2.0579145,2.1803745 -2.0573278,2.138037 -2.0571818,2.0937946 -2.0574291,2.0478699 -2.058024,2.0005215 -2.0589226,1.952035 -2.0614663,1.8528738 -2.0647518,1.7528958 -2.0665867,1.7033655 -2.0685089,1.6545135 -2.0704915,1.6065834 -2.0725103,1.55978 -2.0745441,1.5142595 -2.0765752,1.470123 -2.0785888,1.4274157 -2.0805731,1.3861296 -2.0825191,1.3462082 -2.08442,1.3075535 -2.0862713,1.2700321 -2.0880706,1.2334798 -2.0915107,1.1625081 -2.0978068,1.0229245 -2.0992776,0.9871969 -2.1007144,0.9507111 -2.1021206,0.9132822 -2.103499,0.874745 -2.1048525,0.8349529 -2.1061832,0.7937767 -2.1074934,0.7511029 -2.1087846,0.7068332 -2.1100586,0.6608836 -2.1113165,0.6131829 -2.1125594,0.5636717 -2.1137883,0.5123014 -2.1150037,0.4590331 -2.1162064,0.4038366 -2.1173966,0.3466892 -2.1185747,0.2875746 -2.1197409,0.2264818 -2.1208954,0.1634042 -2.122038,0.0983385 -2.123169,0.0312832z" transform="matrix(1,0,0,-1,3.2240157,3.2833751)" fill="rgb(0,0,0)" shaper:cutDepth="0.35cm" stroke-linecap="round" stroke-linejoin="round" /><path d="M-0.1143754,-0.836013 L-0.6143754,-0.836013 -0.6143754,-0.536013 -0.1143754,-0.536013 -0.1143754,-0.836013z" transform="matrix(1,0,0,-1,3.2240157,3.2833751)" fill="rgb(255,255,255)" stroke="rgb(0,0,0)" stroke-width="0.0010cm" stroke-linecap="round" stroke-linejoin="round" shaper:cutDepth="0.35cm" /><path d="M-1.4643754,1.2139871 L-1.7643754,1.2139871 -1.7643754,1.7139871 -1.4643754,1.7139871 -1.4643754,1.2139871z" transform="matrix(1,0,0,-1,3.2240157,3.2833751)" fill="rgb(255,255,255)" stroke="rgb(0,0,0)" stroke-width="0.0010cm" stroke-linecap="round" stroke-linejoin="round" shaper:cutDepth="0.35cm" /><path d="M-1.4643754,-0.0360129 L-1.7643754,-0.0360129 -1.7643754,0.4639871 -1.4643754,0.4639871 -1.4643754,-0.0360129z" transform="matrix(1,0,0,-1,3.2240157,3.2833751)" fill="rgb(255,255,255)" stroke="rgb(0,0,0)" stroke-width="0.0010cm" stroke-linecap="round" stroke-linejoin="round" shaper:cutDepth="0.35cm" /><path d="M2.8856246,-0.836013 L2.3856246,-0.836013 2.3856246,-0.536013 2.8856246,-0.536013 2.8856246,-0.836013z" transform="matrix(1,0,0,-1,3.2240157,3.2833751)" fill="rgb(255,255,255)" stroke="rgb(0,0,0)" stroke-width="0.0010cm" stroke-linecap="round" stroke-linejoin="round" shaper:cutDepth="0.35cm" /><path d="M3.2356246,1.7139871 L3.5356246,1.7139871 3.5356246,1.2139871 3.2356246,1.2139871 3.2356246,1.7139871z" transform="matrix(1,0,0,-1,3.2240157,3.2833751)" fill="rgb(255,255,255)" stroke="rgb(0,0,0)" stroke-width="0.0010cm" stroke-linecap="round" stroke-linejoin="round" shaper:cutDepth="0.35cm" /><path d="M3.5356246,-0.2860129 L3.5356246,-0.7860129 3.2356246,-0.7860129 3.2356246,-0.2860129 3.5356246,-0.2860129z" transform="matrix(1,0,0,-1,3.2240157,3.2833751)" fill="rgb(255,255,255)" stroke="rgb(0,0,0)" stroke-width="0.0010cm" stroke-linecap="round" stroke-linejoin="round" shaper:cutDepth="0.35cm" /></svg>