<?xml version="1.0" encoding="utf-8"?>
<!-- Generator: Fusion 360, Shaper Origin Export Add-In, Version 1.7.0  -->
<svg xmlns="http://www.w3.org/2000/svg" xmlns:xlink="http://www.w3.org/1999/xlink" xmlns:shaper="http://www.shapertools.com/namespaces/shaper" shaper:fusionaddin="version:1.7.0" width="7.4599719cm" height="4.2693881cm" version="1.1" x="0cm" y="0cm" viewBox="0 0 7.4599719 4.2693881" enable-background="new 0 0 7.4599719 4.2693881" xml:space="preserve"><path d="M3.5197657,-1.2491403 L3.5197657,-1.2491403 3.5367921,-1.2434228 3.5544712,-1.2375337 3.5727994,-1.2314696 3.5917674,-1.2252212 3.6113569,-1.2187706 3.6315385,-1.2120894 3.6734847,-1.1978464 3.7170289,-1.1819303 3.7391357,-1.1730918 3.7612936,-1.1635084 3.7833625,-1.1530597 3.8051991,-1.1416319 3.8266614,-1.1291245 3.847613,-1.1154564 3.8679286,-1.1005746 3.887498,-1.0844602 3.9062293,-1.0671311 3.9240503,-1.0486414 3.9409079,-1.0290768 3.9567672,-1.0085475 3.9716107,-0.987183 3.9854372,-0.9651259 3.9982621,-0.9425273 4.0101157,-0.9195408 4.0210433,-0.8963162 4.0311037,-0.8729949 4.0403676,-0.8497045 4.0489137,-0.8265552 4.0568243,-0.803637 4.0641795,-0.7810167 4.0775099,-0.7368042 4.0893388,-0.6938755 4.0997753,-0.6516294 4.1085434,-0.6089307 4.1121461,-0.5869854 4.1151374,-0.5644257 4.1174578,-0.5411182 4.1190645,-0.516971 4.1199401,-0.4919487 4.1200973,-0.466081 4.119581,-0.4394649 4.1184648,-0.4122569 4.1148177,-0.3568804 4.1099916,-0.3017169 4.1073866,-0.2747435 4.104758,-0.2483965 4.1021513,-0.2227733 4.099576,-0.1978959 4.0943696,-0.1500703 4.0885458,-0.1036669 4.0851337,-0.0804136 4.0812354,-0.0567802 4.0767449,-0.0325137 4.0715737,-0.0073872 4.0656609,0.0187821 4.0589792,0.0461206 4.0515342,0.0746978 4.0433619,0.1045291 4.0345241,0.1355826 4.0251025,0.1677875 4.0151942,0.2010407 4.0049068,0.2352131 3.9943539,0.2701564 3.9836506,0.30571 3.962228,0.3779848 3.9413959,0.4507652 3.9216336,0.5230046 3.9031014,0.5939793 3.8857299,0.6632501 3.8693311,0.7305993 3.8537096,0.795968 3.8387736,0.8593934 3.8246481,0.9209451 3.811757,0.9806749 3.8059851,1.009866 3.8007999,1.0386131 3.7963146,1.0669221 3.792646,1.0948015 3.7899115,1.1222638 3.7882254,1.1493264 3.7876954,1.1760126 3.7884192,1.2023534 3.7904814,1.2283872 3.7939502,1.2541593 3.7988744,1.2797197 3.8052813,1.3051197 3.8131739,1.3304085 3.8225278,1.3556299 3.8332892,1.3808195 3.8453717,1.4060018 3.8586545,1.4311866 3.8729785,1.456366 3.8881447,1.4815109 3.9039153,1.5065715 3.9361687,1.5561525 3.9520515,1.5804983 3.9673565,1.6044187 3.9817735,1.6278142 3.9950036,1.6505875 4.0067681,1.6726482 4.0168179,1.693917 4.0249413,1.7143298 4.03097,1.7338401 4.033159,1.7432475 4.034782,1.7524202 4.03583,1.7613573 4.0362967,1.7700585 4.0361775,1.7785245 4.03547,1.7867562 4.0341734,1.7947554 4.0322887,1.8025239 4.0298185,1.8100643 4.0267666,1.8173792 4.0231381,1.8244713 4.0189394,1.8313436 4.0088613,1.8444407 3.996601,1.8566936 3.9822407,1.8681255 3.9658741,1.8787585 3.9476052,1.8886138 3.9275461,1.8977107 3.9058154,1.9060664 3.8825366,1.9136953 3.8578367,1.9206092 3.8318442,1.9268171 3.8046888,1.9323253 3.7764988,1.9371377 3.7474005,1.9412558 3.7175166,1.9446785 3.6869649,1.9474026 3.6558566,1.9494229 3.6242952,1.9507316 3.592375,1.9513195 3.5601803,1.951175 3.5277859,1.9502849 3.4952577,1.9486341 3.4626546,1.9462058 3.4300296,1.9429815 3.3974309,1.9389412 3.3649032,1.9340632 3.3324888,1.9283242 3.3002292,1.9216996 3.2681659,1.9141635 3.2363417,1.9056884 3.2048024,1.8962457 3.1735975,1.8858057 3.1427799,1.8743379 3.1124052,1.8618129 3.0825301,1.8482033 3.0532107,1.8334848 3.0245016,1.8176381 2.9964541,1.8006496 2.9691146,1.7825133 2.942524,1.7632316 2.9167154,1.7428168 2.8917133,1.7212925 2.8675316,1.6986949 2.8441727,1.6750743 2.8216268,1.6504943 2.799872,1.6250309 2.7788756,1.5987697 2.758595,1.571803 2.7389788,1.5442267 2.7199676,1.5161382 2.7014953,1.4876334 2.6658738,1.4297352 2.6314852,1.3711677 2.5636906,1.2535183 2.5289278,1.1945464 2.4927569,1.1352425 2.4546659,1.0753486 2.4347762,1.0451118 2.4142774,1.0146606 2.3931495,0.9839945 2.3713856,0.9531288 2.348993,0.9220979 2.3259938,0.8909573 2.2783256,0.8286628 2.2287669,0.7670251 2.2034223,0.7367446 2.1777794,0.706991 2.1518933,0.6778928 2.1258127,0.6495768 2.0995772,0.6221647 2.0732149,0.5957704 2.0467394,0.5704971 2.0201469,0.5464341 1.9934131,0.523653 1.9664912,0.5022059 1.9393134,0.4821247 1.9117929,0.4634228 1.8838282,0.4460964 1.855308,0.430128 1.8261154,0.4154883 1.7961319,0.4021379 1.765241,0.3900303 1.7333333,0.3791136 1.7003101,0.3693328 1.666088,0.3606323 1.6306024,0.3529579 1.5938126,0.3462591 1.5557045,0.340491 1.5162909,0.335615 1.4756089,0.3315981 1.4337175,0.3284127 1.3906948,0.3260358 1.3466353,0.3244488 1.3016478,0.3236369 1.2558518,0.3235884 1.2093759,0.3242945 1.1623546,0.3257487 1.1149258,0.3279461 1.067228,0.3308834 1.0193982,0.3345578 0.9715685,0.3389668 0.9238646,0.3441079 0.8764018,0.3499778 0.8292832,0.3565718 0.7825976,0.3638838 0.7364199,0.3719066 0.6908112,0.3806317 0.6458205,0.3900505 0.6014857,0.4001544 0.5578349,0.4109354 0.514887,0.4223864 0.4726532,0.4345021 0.4311379,0.4472789 0.3903399,0.4607159 0.3502535,0.4748152 0.3108697,0.4895822 0.2721766,0.5050265 0.2341616,0.5211618 0.1968117,0.5380069 0.1601148,0.555586 0.124061,0.5739291 0.0886424,0.5930717 0.0538537,0.6130543 0.0196915,0.6339206 -0.0138464,0.6557165 -0.0467616,0.6784888 -0.0790549,0.7022843 -0.1107275,0.7271479 -0.1417807,0.7531219 -0.1722171,0.7802448 -0.2020406,0.8085494 -0.231257,0.8380625 -0.2598744,0.8688028 -0.2879037,0.9007805 -0.3153591,0.9339952 -0.3422586,0.9684351 -0.3686239,1.0040764 -0.3944802,1.0408831 -0.4198556,1.0788078 -0.4447798,1.1177924 -0.4692839,1.1577687 -0.4933991,1.1986595 -0.5171563,1.2403788 -0.5405851,1.282833 -0.5637131,1.325921 -0.6091618,1.4135637 -0.6536527,1.5023836 -0.6972525,1.5913884 -0.7399209,1.6795394 -0.7608571,1.7229629 -0.7814838,1.765774 -0.8017583,1.8078415 -0.8216325,1.849038 -0.841056,1.8892422 -0.8599784,1.9283407 -0.8783525,1.9662308 -0.8961362,2.0028215 -0.9132954,2.0380367 -0.9298066,2.0718164 -0.9456597,2.1041193 -0.96086,2.1349247 -0.9754316,2.1642347 -0.9894195,2.1920759 -1.0028923,2.2185022 -1.0159447,2.2435962 -1.0286987,2.2674701 -1.041299,2.2902617 -1.0539058,2.3121274 -1.066687,2.3332354 -1.0798102,2.3537583 -1.0934354,2.3738663 -1.1077077,2.3937206 -1.1227497,2.4134664 -1.1386529,2.4332252 -1.15547,2.4530877 -1.1732134,2.4731116 -1.1918591,2.4933232 -1.2113525,2.5137213 -1.231616,2.5342813 -1.2740749,2.5757021 -1.318439,2.6171011 -1.3640055,2.6579056 -1.4103938,2.6975942 -1.4576729,2.7357895 -1.4817715,2.7542475 -1.5062736,2.7722498 -1.5312618,2.78978 -1.5568201,2.8068243 -1.5830287,2.8233705 -1.6099587,2.8394062 -1.637667,2.8549175 -1.6661896,2.8698874 -1.695538,2.8842944 -1.7256982,2.8981128 -1.7566339,2.9113131 -1.78829,2.9238636 -1.8205977,2.9357312 -1.8534783,2.9468835 -1.8868483,2.9572891 -1.9206227,2.9669195 -1.9547196,2.9757501 -1.9890645,2.9837614 -2.0235948,2.9909406 -2.0582638,2.9972822 -2.093045,3.0027901 -2.1279358,3.0074779 -2.1629583,3.0113696 -2.1981548,3.0144977 -2.2335829,3.0169022 -2.2693101,3.0186287 -2.305409,3.0197266 -2.3419521,3.0202478 -2.379007,3.0202451 -2.416631,3.0197705 -2.454866,3.0188735 -2.4937336,3.0175997 -2.5332301,3.0159892 -2.5733217,3.0140749 -2.6549701,3.009421 -2.737642,3.0037089 -2.8197648,2.9968794 -2.8600359,2.9930081 -2.89945,2.9888115 -2.9377605,2.9842766 -2.9747309,2.9793962 -3.0101422,2.9741711 -3.0438004,2.9686122 -3.0755427,2.9627419 -3.1052453,2.9565963 -3.132833,2.9502307 -3.1582854,2.9437204 -3.1816355,2.9371532 -3.2029625,2.9306159 -3.2223806,2.9241782 -3.2400241,2.9178734 -3.2560334,2.9116771 -3.270542,2.9054837 -3.2836641,2.8990884 -3.2954818,2.8921824 -3.3060363,2.884367 -3.3153258,2.8752187 -3.3233071,2.8643809 -3.3298951,2.8516611 -3.3349615,2.8371259 -3.3383445,2.8211301 -3.3398746,2.804257 -3.3394059,2.7872288 -3.336854,2.7707925 -3.3347965,2.7630073 -3.3322331,2.755602 -3.3291857,2.748627 -3.3256863,2.7421147 -3.3175045,2.730511 -3.3080964,2.7206964 -3.2979111,2.7123856 -3.2873481,2.7052022 -3.2766591,2.6987831 -3.2548099,2.6872934 -3.2431141,2.6820417 -3.230354,2.6771485 -3.2161242,2.6726796 -3.2001267,2.6686876 -3.1822128,2.6651924 -3.162395,2.6621724 -3.1408155,2.659573 -3.1177036,2.6573173 -3.0933443,2.6553147 -3.0680512,2.6534671 -3.0158608,2.649859 -2.9629747,2.6458767 -2.9101702,2.6411583 -2.857368,2.6355071 -2.8040517,2.6287428 -2.7496656,2.6205587 -2.7219867,2.6157685 -2.6940107,2.6103838 -2.6658047,2.6042866 -2.6374659,2.5973508 -2.6091145,2.5894496 -2.5808887,2.5804623 -2.5529382,2.5702813 -2.5254188,2.5588185 -2.4984856,2.5460124 -2.4722865,2.5318366 -2.4469566,2.5163071 -2.4226124,2.4994861 -2.3993491,2.4814825 -2.3772398,2.4624446 -2.3563378,2.4425462 -2.3366791,2.4219722 -2.3182839,2.4009056 -2.3011584,2.3795158 -2.2852963,2.3579456 -2.2706809,2.3362994 -2.2572868,2.3146283 -2.2450821,2.2929151 -2.2340296,2.2710692 -2.224088,2.2489317 -2.2152124,2.2262868 -2.207355,2.2028786 -2.2004656,2.1784293 -2.1944919,2.1526553 -2.1893805,2.1252816 -2.1850768,2.0960591 -2.181526,2.0647814 -2.1786737,2.0313012 -2.1764658,1.9955413 -2.1748496,1.9575004 -2.1737734,1.9172471 -2.1731868,1.8749097 -2.1730407,1.8306672 -2.173288,1.7847425 -2.1738829,1.7373942 -2.1747816,1.6889076 -2.1773252,1.5897464 -2.1806107,1.4897685 -2.1824456,1.4402381 -2.1843679,1.3913861 -2.1863505,1.3434561 -2.1883692,1.2966527 -2.1904031,1.2511322 -2.1924342,1.2069956 -2.1944478,1.1642884 -2.1964321,1.1230023 -2.198378,1.0830809 -2.2002789,1.0444262 -2.2021303,1.0069047 -2.2039295,0.9703524 -2.2073697,0.8993808 -2.2136658,0.7597971 -2.2151366,0.7240695 -2.2165733,0.6875838 -2.2179795,0.6501549 -2.219358,0.6116176 -2.2207114,0.5718256 -2.2220422,0.5306494 -2.2233523,0.4879755 -2.2246436,0.4437059 -2.2259175,0.3977563 -2.2271754,0.3500555 -2.2284183,0.3005443 -2.2296472,0.249174 -2.2308627,0.1959057 -2.2320653,0.1407093 -2.2332555,0.0835619 -2.2344337,0.0244472 -2.2355999,-0.0366456 -2.2367543,-0.0997231 -2.237897,-0.1647889 -2.239028,-0.2318441 -2.239028,-0.2318441 -2.2391242,-0.2547745 -2.2385272,-0.2775499 -2.237236,-0.3001704 -2.2352497,-0.3226362 -2.2325674,-0.3449485 -2.2291886,-0.367109 -2.2251138,-0.3891209 -2.2203444,-0.4109884 -2.2148837,-0.4327179 -2.2087365,-0.4543173 -2.2019101,-0.4757968 -2.1944141,-0.4971695 -2.1862613,-0.5184509 -2.1774675,-0.5396584 -2.1680515,-0.5608106 -2.1580347,-0.5819251 -2.1362995,-0.6241022 -2.1124887,-0.6662711 -2.0868701,-0.7084193 -2.0597508,-0.7503972 -2.0314741,-0.7918791 -2.0024096,-0.832376 -1.9729292,-0.8713168 -1.9433829,-0.9081425 -1.928682,-0.9256144 -1.9140729,-0.9424015 -1.8995817,-0.95848 -1.8852285,-0.9738451 -1.8710264,-0.9885121 -1.8569819,-1.0025158 -1.8293601,-1.0287466 -1.8022965,-1.0530491 -1.7756472,-1.0759786 -1.7492062,-1.0980016 -1.7227204,-1.1193703 -1.6959091,-1.1400874 -1.6684881,-1.1599747 -1.6401943,-1.1787618 -1.6108114,-1.1961749 -1.5801893,-1.2120091 -1.5482412,-1.2261455 -1.5149269,-1.2385282 -1.4802344,-1.2491403 3.5197657,-1.2491403z" transform="matrix(1,0,0,-1,3.3398746,3.0202478)" fill="rgb(0,0,0)" shaper:cutDepth="0.3cm" stroke-linecap="round" stroke-linejoin="round" /><path d="M2.7597656,-1.0891403 L2.2697656,-1.0891403 2.2697656,-0.7991403 2.7597656,-0.7991403 2.7597656,-1.0891403z" transform="matrix(1,0,0,-1,3.3398746,3.0202478)" fill="rgb(255,255,255)" stroke="rgb(0,0,0)" stroke-width="0.0010cm" stroke-linecap="round" stroke-linejoin="round" shaper:cutDepth="0.3cm" /><path d="M3.4197657,1.4408597 L3.4197657,0.9508597 3.1297657,0.9508597 3.1297657,1.4408597 3.4197657,1.4408597z" transform="matrix(1,0,0,-1,3.3398746,3.0202478)" fill="rgb(255,255,255)" stroke="rgb(0,0,0)" stroke-width="0.0010cm" stroke-linecap="round" stroke-linejoin="round" shaper:cutDepth="0.3cm" /><path d="M-1.8802344,0.2008597 L-1.5902344,0.2008597 -1.5902344,-0.2891403 -1.8802344,-0.2891403 -1.8802344,0.2008597z" transform="matrix(1,0,0,-1,3.3398746,3.0202478)" fill="rgb(255,255,255)" stroke="rgb(0,0,0)" stroke-width="0.0010cm" stroke-linecap="round" stroke-linejoin="round" shaper:cutDepth="0.3cm" /><path d="M-1.8802343,1.4408597 L-1.5902343,1.4408597 -1.5902343,0.9508597 -1.8802343,0.9508597 -1.8802343,1.4408597z" transform="matrix(1,0,0,-1,3.3398746,3.0202478)" fill="rgb(255,255,255)" stroke="rgb(0,0,0)" stroke-width="0.0010cm" stroke-linecap="round" stroke-linejoin="round" shaper:cutDepth="0.3cm" /><path d="M3.1297657,-1.0391403 L3.1297657,-0.5491403 3.4197657,-0.5491403 3.4197657,-1.0391403 3.1297657,-1.0391403z" transform="matrix(1,0,0,-1,3.3398746,3.0202478)" fill="rgb(255,255,255)" stroke="rgb(0,0,0)" stroke-width="0.0010cm" stroke-linecap="round" stroke-linejoin="round" shaper:cutDepth="0.3cm" /><path d="M-0.2302344,-0.7991403 L-0.2302344,-1.0891403 -0.7202344,-1.0891403 -0.7202344,-0.7991403 -0.2302344,-0.7991403z" transform="matrix(1,0,0,-1,3.3398746,3.0202478)" fill="rgb(255,255,255)" stroke="rgb(0,0,0)" stroke-width="0.0010cm" stroke-linecap="round" stroke-linejoin="round" shaper:cutDepth="0.3cm" /></svg>