<?xml version="1.0" encoding="UTF-8" standalone="no"?>
<!-- Generator: Fusion 360, Shaper Origin Export Add-In, Version 1.8.0  -->

<svg
   shaper:fusionaddin="version:1.8.0"
   width="14cm"
   height="14cm"
   version="1.1"
   x="0cm"
   y="0cm"
   viewBox="0 0 14 14"
   enable-background="new 0 0 14 14"
   xml:space="preserve"
   id="svg6"
   sodipodi:docname="halterung.svg"
   inkscape:version="1.3.2 (091e20e, 2023-11-25)"
   xmlns:inkscape="http://www.inkscape.org/namespaces/inkscape"
   xmlns:sodipodi="http://sodipodi.sourceforge.net/DTD/sodipodi-0.dtd"
   xmlns="http://www.w3.org/2000/svg"
   xmlns:svg="http://www.w3.org/2000/svg"
   xmlns:shaper="http://www.shapertools.com/namespaces/shaper"><defs
     id="defs6" /><sodipodi:namedview
     id="namedview6"
     pagecolor="#ffffff"
     bordercolor="#000000"
     borderopacity="0.25"
     inkscape:showpageshadow="2"
     inkscape:pageopacity="0.0"
     inkscape:pagecheckerboard="0"
     inkscape:deskcolor="#d1d1d1"
     inkscape:document-units="cm"
     inkscape:zoom="0.4460119"
     inkscape:cx="264.56693"
     inkscape:cy="264.56693"
     inkscape:window-width="1344"
     inkscape:window-height="449"
     inkscape:window-x="0"
     inkscape:window-y="37"
     inkscape:window-maximized="0"
     inkscape:current-layer="svg6" /><path
     d="M-5.4747238,-2.6418559 a7,7 0 1,1 14,0 a7,7 0 1,1 -14,0z"
     transform="matrix(1,0,0,-1,5.4747238,4.3581441)"
     fill="rgb(0,0,0)"
     stroke-linecap="round"
     stroke-linejoin="round"
     id="path1"
     style="fill:none;stroke:#df0000;stroke-opacity:1;stroke-width:0.001;stroke-dasharray:none" /><path
     d="M-2.9664534,-5.0619521 L-2.8164534,-5.3217597 -2.9463572,-5.3967598 -3.0963572,-5.1369521 -2.9664534,-5.0619521z"
     transform="matrix(1,0,0,-1,5.4747238,4.3581441)"
     fill="rgb(255,255,255)"
     stroke="rgb(0,0,0)"
     stroke-width="0.0010cm"
     stroke-linecap="round"
     stroke-linejoin="round"
     id="path2"
     style="fill:none;stroke:#df0000;stroke-opacity:1;stroke-width:0.001;stroke-dasharray:none" /><path
     d="M1.6752762,2.6081442 L1.6752762,2.4581442 1.3752762,2.4581442 1.3752762,2.6081442 1.6752762,2.6081442z"
     transform="matrix(1,0,0,-1,5.4747238,4.3581441)"
     fill="rgb(255,255,255)"
     stroke="rgb(0,0,0)"
     stroke-width="0.0010cm"
     stroke-linecap="round"
     stroke-linejoin="round"
     id="path3"
     style="fill:none;stroke:#df0000;stroke-opacity:1;stroke-width:0.001;stroke-dasharray:none" /><path
     d="M0.502508,-1.0703693 L0.5776242,-1.2004744 A1.725,1.725 123.3233577 0,1 2.2997232,-4.1832374 L2.3748394,-4.3133425 A1.875,1.875 296.9427745 0,0 0.502508,-1.0703693z"
     transform="matrix(1,0,0,-1,5.4747238,4.3581441)"
     fill="rgb(255,255,255)"
     stroke="rgb(0,0,0)"
     stroke-width="0.0010cm"
     stroke-linecap="round"
     stroke-linejoin="round"
     id="path4"
     style="fill:none;stroke:#df0000;stroke-opacity:1;stroke-width:0.001;stroke-dasharray:none" /><path
     d="M1.3131442,-2.6418559 a0.212132,0.212132 0 1,1 0.4242641,0 a0.212132,0.212132 0 1,1 -0.4242641,0z"
     transform="matrix(1,0,0,-1,5.4747238,4.3581441)"
     fill="rgb(255,255,255)"
     stroke="rgb(0,0,0)"
     stroke-width="0.0010cm"
     stroke-linecap="round"
     stroke-linejoin="round"
     id="path5"
     style="fill:none;stroke:#df0000;stroke-opacity:1;stroke-width:0.001;stroke-dasharray:none" /><path
     d="M5.9969097,-5.3967598 L5.8670058,-5.3217598 6.0170058,-5.0619521 6.1469097,-5.1369521 5.9969097,-5.3967598z"
     transform="matrix(1,0,0,-1,5.4747238,4.3581441)"
     fill="rgb(255,255,255)"
     stroke="rgb(0,0,0)"
     stroke-width="0.0010cm"
     stroke-linecap="round"
     stroke-linejoin="round"
     id="path6"
     style="fill:none;stroke:#df0000;stroke-opacity:1;stroke-width:0.001;stroke-dasharray:none" /></svg>
