<?xml version="1.0" encoding="UTF-8" standalone="no"?>
<!-- Generator: Fusion 360, Shaper Origin Export Add-In, Version 1.8.0  -->

<svg
   shaper:fusionaddin="version:1.8.0"
   width="10cm"
   height="10cm"
   version="1.1"
   x="0cm"
   y="0cm"
   viewBox="0 0 10 10"
   enable-background="new 0 0 10 10"
   xml:space="preserve"
   id="svg23"
   sodipodi:docname="kreis_klein.svg"
   inkscape:version="1.3.2 (091e20e, 2023-11-25)"
   xmlns:inkscape="http://www.inkscape.org/namespaces/inkscape"
   xmlns:sodipodi="http://sodipodi.sourceforge.net/DTD/sodipodi-0.dtd"
   xmlns="http://www.w3.org/2000/svg"
   xmlns:svg="http://www.w3.org/2000/svg"
   xmlns:shaper="http://www.shapertools.com/namespaces/shaper"><defs
     id="defs23" /><sodipodi:namedview
     id="namedview23"
     pagecolor="#ffffff"
     bordercolor="#000000"
     borderopacity="0.25"
     inkscape:showpageshadow="2"
     inkscape:pageopacity="0.0"
     inkscape:pagecheckerboard="0"
     inkscape:deskcolor="#d1d1d1"
     inkscape:document-units="cm"
     inkscape:zoom="0.62441667"
     inkscape:cx="188.97638"
     inkscape:cy="188.97638"
     inkscape:window-width="1344"
     inkscape:window-height="449"
     inkscape:window-x="0"
     inkscape:window-y="37"
     inkscape:window-maximized="0"
     inkscape:current-layer="svg23" /><path
     d="M-4.8461403,0 a5,5 0 1,1 10,0 a5,5 0 1,1 -10,0z"
     transform="matrix(1,0,0,-1,4.8461403,5)"
     fill="rgb(0,0,0)"
     stroke-linecap="round"
     stroke-linejoin="round"
     id="path1"
     style="fill:none;stroke:#ff0000;stroke-opacity:1;stroke-width:0.001;stroke-dasharray:none" /><path
     d="M1.4172285,4.3736596 L1.5099336,4.6589766 1.7952505,4.5662715 1.7025454,4.2809545 1.4172285,4.3736596z"
     transform="matrix(1,0,0,-1,4.8461403,5)"
     fill="rgb(255,255,255)"
     stroke="rgb(0,0,0)"
     stroke-width="0.0010cm"
     stroke-linecap="round"
     stroke-linejoin="round"
     id="path2"
     style="fill:none;stroke:#ff0000;stroke-opacity:1;stroke-width:0.001;stroke-dasharray:none" /><path
     d="M-4.2197999,1.2633688 L-4.5051169,1.3560739 -4.4124118,1.6413909 -4.1270948,1.5486858 -4.2197999,1.2633688z"
     transform="matrix(1,0,0,-1,4.8461403,5)"
     fill="rgb(255,255,255)"
     stroke="rgb(0,0,0)"
     stroke-width="0.0010cm"
     stroke-linecap="round"
     stroke-linejoin="round"
     id="path3"
     style="fill:none;stroke:#ff0000;stroke-opacity:1;stroke-width:0.001;stroke-dasharray:none" /><path
     d="M-4.1270948,-1.5486858 L-4.4124118,-1.6413909 -4.5051169,-1.3560739 -4.2197999,-1.2633688 -4.1270948,-1.5486858z"
     transform="matrix(1,0,0,-1,4.8461403,5)"
     fill="rgb(255,255,255)"
     stroke="rgb(0,0,0)"
     stroke-width="0.0010cm"
     stroke-linecap="round"
     stroke-linejoin="round"
     id="path4"
     style="fill:none;stroke:#ff0000;stroke-opacity:1;stroke-width:0.001;stroke-dasharray:none" /><path
     d="M0.0038597,-0.15 L0.0038597,0.15 0.3038597,0.15 0.3038597,-0.15 0.0038597,-0.15z"
     transform="matrix(1,0,0,-1,4.8461403,5)"
     fill="rgb(255,255,255)"
     stroke="rgb(0,0,0)"
     stroke-width="0.0010cm"
     stroke-linecap="round"
     stroke-linejoin="round"
     id="path5"
     style="fill:none;stroke:#ff0000;stroke-opacity:1;stroke-width:0.001;stroke-dasharray:none" /><path
     d="M4.7038596,0.15 L5.0038596,0.15 5.0038596,-0.15 4.7038596,-0.15 4.7038596,0.15z"
     transform="matrix(1,0,0,-1,4.8461403,5)"
     fill="rgb(255,255,255)"
     stroke="rgb(0,0,0)"
     stroke-width="0.0010cm"
     stroke-linecap="round"
     stroke-linejoin="round"
     id="path6"
     style="fill:none;stroke:#ff0000;stroke-opacity:1;stroke-width:0.001;stroke-dasharray:none" /><path
     d="M-2.3992106,-3.769195 L-2.5755462,-4.0119001 -2.8182513,-3.8355646 -2.6419157,-3.5928595 -2.3992106,-3.769195z"
     transform="matrix(1,0,0,-1,4.8461403,5)"
     fill="rgb(255,255,255)"
     stroke="rgb(0,0,0)"
     stroke-width="0.0010cm"
     stroke-linecap="round"
     stroke-linejoin="round"
     id="path7"
     style="fill:none;stroke:#ff0000;stroke-opacity:1;stroke-width:0.001;stroke-dasharray:none" /><path
     d="M-0.0961403,-3.4499999 L0.4038597,-3.4499999 0.4038597,-3.7499999 -0.0961403,-3.7499999 -0.0961403,-3.4499999z"
     transform="matrix(1,0,0,-1,4.8461403,5)"
     fill="rgb(255,255,255)"
     stroke="rgb(0,0,0)"
     stroke-width="0.0010cm"
     stroke-linecap="round"
     stroke-linejoin="round"
     id="path8"
     style="fill:none;stroke:#ff0000;stroke-opacity:1;stroke-width:0.001;stroke-dasharray:none" /><path
     d="M2.70693,3.769195 L2.8832655,4.0119001 3.1259706,3.8355646 2.9496351,3.5928595 2.70693,3.769195z"
     transform="matrix(1,0,0,-1,4.8461403,5)"
     fill="rgb(255,255,255)"
     stroke="rgb(0,0,0)"
     stroke-width="0.0010cm"
     stroke-linecap="round"
     stroke-linejoin="round"
     id="path9"
     style="fill:none;stroke:#ff0000;stroke-opacity:1;stroke-width:0.001;stroke-dasharray:none" /><path
     d="M4.4348142,1.5486858 L4.7201311,1.6413909 4.8128362,1.3560739 4.5275193,1.2633688 4.4348142,1.5486858z"
     transform="matrix(1,0,0,-1,4.8461403,5)"
     fill="rgb(255,255,255)"
     stroke="rgb(0,0,0)"
     stroke-width="0.0010cm"
     stroke-linecap="round"
     stroke-linejoin="round"
     id="path10"
     style="fill:none;stroke:#ff0000;stroke-opacity:1;stroke-width:0.001;stroke-dasharray:none" /><path
     d="M-1.3948261,4.2809545 L-1.4875312,4.5662715 -1.2022142,4.6589766 -1.1095092,4.3736596 -1.3948261,4.2809545z"
     transform="matrix(1,0,0,-1,4.8461403,5)"
     fill="rgb(255,255,255)"
     stroke="rgb(0,0,0)"
     stroke-width="0.0010cm"
     stroke-linecap="round"
     stroke-linejoin="round"
     id="path11"
     style="fill:none;stroke:#ff0000;stroke-opacity:1;stroke-width:0.001;stroke-dasharray:none" /><path
     d="M4.5275193,-1.2633688 L4.8128362,-1.3560739 4.7201311,-1.6413909 4.4348142,-1.5486858 4.5275193,-1.2633688z"
     transform="matrix(1,0,0,-1,4.8461403,5)"
     fill="rgb(255,255,255)"
     stroke="rgb(0,0,0)"
     stroke-width="0.0010cm"
     stroke-linecap="round"
     stroke-linejoin="round"
     id="path12"
     style="fill:none;stroke:#ff0000;stroke-opacity:1;stroke-width:0.001;stroke-dasharray:none" /><path
     d="M0.0038597,4.5499999 L0.0038597,4.8499999 0.3038597,4.8499999 0.3038597,4.5499999 0.0038597,4.5499999z"
     transform="matrix(1,0,0,-1,4.8461403,5)"
     fill="rgb(255,255,255)"
     stroke="rgb(0,0,0)"
     stroke-width="0.0010cm"
     stroke-linecap="round"
     stroke-linejoin="round"
     id="path13"
     style="fill:none;stroke:#ff0000;stroke-opacity:1;stroke-width:0.001;stroke-dasharray:none" /><path
     d="M-3.6153354,2.5530703 L-3.8580405,2.7294059 -3.6817049,2.972111 -3.4389998,2.7957754 -3.6153354,2.5530703z"
     transform="matrix(1,0,0,-1,4.8461403,5)"
     fill="rgb(255,255,255)"
     stroke="rgb(0,0,0)"
     stroke-width="0.0010cm"
     stroke-linecap="round"
     stroke-linejoin="round"
     id="path14"
     style="fill:none;stroke:#ff0000;stroke-opacity:1;stroke-width:0.001;stroke-dasharray:none" /><path
     d="M3.7467191,2.7957754 L3.9894242,2.972111 4.1657598,2.7294059 3.9230547,2.5530703 3.7467191,2.7957754z"
     transform="matrix(1,0,0,-1,4.8461403,5)"
     fill="rgb(255,255,255)"
     stroke="rgb(0,0,0)"
     stroke-width="0.0010cm"
     stroke-linecap="round"
     stroke-linejoin="round"
     id="path15"
     style="fill:none;stroke:#ff0000;stroke-opacity:1;stroke-width:0.001;stroke-dasharray:none" /><path
     d="M0.0038597,-4.5499999 L0.3038597,-4.5499999 0.3038597,-4.8499999 0.0038597,-4.8499999 0.0038597,-4.5499999z"
     transform="matrix(1,0,0,-1,4.8461403,5)"
     fill="rgb(255,255,255)"
     stroke="rgb(0,0,0)"
     stroke-width="0.0010cm"
     stroke-linecap="round"
     stroke-linejoin="round"
     id="path16"
     style="fill:none;stroke:#ff0000;stroke-opacity:1;stroke-width:0.001;stroke-dasharray:none" /><path
     d="M3.9230547,-2.5530703 L4.1657598,-2.7294059 3.9894242,-2.972111 3.7467191,-2.7957754 3.9230547,-2.5530703z"
     transform="matrix(1,0,0,-1,4.8461403,5)"
     fill="rgb(255,255,255)"
     stroke="rgb(0,0,0)"
     stroke-width="0.0010cm"
     stroke-linecap="round"
     stroke-linejoin="round"
     id="path17"
     style="fill:none;stroke:#ff0000;stroke-opacity:1;stroke-width:0.001;stroke-dasharray:none" /><path
     d="M-4.3961402,-0.15 L-4.6961402,-0.15 -4.6961402,0.15 -4.3961402,0.15 -4.3961402,-0.15z"
     transform="matrix(1,0,0,-1,4.8461403,5)"
     fill="rgb(255,255,255)"
     stroke="rgb(0,0,0)"
     stroke-width="0.0010cm"
     stroke-linecap="round"
     stroke-linejoin="round"
     id="path18"
     style="fill:none;stroke:#ff0000;stroke-opacity:1;stroke-width:0.001;stroke-dasharray:none" /><path
     d="M1.7025454,-4.2809545 L1.7952505,-4.5662715 1.5099336,-4.6589766 1.4172285,-4.3736596 1.7025454,-4.2809545z"
     transform="matrix(1,0,0,-1,4.8461403,5)"
     fill="rgb(255,255,255)"
     stroke="rgb(0,0,0)"
     stroke-width="0.0010cm"
     stroke-linecap="round"
     stroke-linejoin="round"
     id="path19"
     style="fill:none;stroke:#ff0000;stroke-opacity:1;stroke-width:0.001;stroke-dasharray:none" /><path
     d="M-3.4389998,-2.7957754 L-3.6817049,-2.972111 -3.8580405,-2.7294059 -3.6153354,-2.5530703 -3.4389998,-2.7957754z"
     transform="matrix(1,0,0,-1,4.8461403,5)"
     fill="rgb(255,255,255)"
     stroke="rgb(0,0,0)"
     stroke-width="0.0010cm"
     stroke-linecap="round"
     stroke-linejoin="round"
     id="path20"
     style="fill:none;stroke:#ff0000;stroke-opacity:1;stroke-width:0.001;stroke-dasharray:none" /><path
     d="M2.9496351,-3.5928595 L3.1259706,-3.8355646 2.8832655,-4.0119001 2.70693,-3.769195 2.9496351,-3.5928595z"
     transform="matrix(1,0,0,-1,4.8461403,5)"
     fill="rgb(255,255,255)"
     stroke="rgb(0,0,0)"
     stroke-width="0.0010cm"
     stroke-linecap="round"
     stroke-linejoin="round"
     id="path21"
     style="fill:none;stroke:#ff0000;stroke-opacity:1;stroke-width:0.001;stroke-dasharray:none" /><path
     d="M-2.6419157,3.5928595 L-2.8182513,3.8355646 -2.5755462,4.0119001 -2.3992106,3.769195 -2.6419157,3.5928595z"
     transform="matrix(1,0,0,-1,4.8461403,5)"
     fill="rgb(255,255,255)"
     stroke="rgb(0,0,0)"
     stroke-width="0.0010cm"
     stroke-linecap="round"
     stroke-linejoin="round"
     id="path22"
     style="fill:none;stroke:#ff0000;stroke-opacity:1;stroke-width:0.001;stroke-dasharray:none" /><path
     d="M-1.1095092,-4.3736596 L-1.2022142,-4.6589766 -1.4875312,-4.5662715 -1.3948261,-4.2809545 -1.1095092,-4.3736596z"
     transform="matrix(1,0,0,-1,4.8461403,5)"
     fill="rgb(255,255,255)"
     stroke="rgb(0,0,0)"
     stroke-width="0.0010cm"
     stroke-linecap="round"
     stroke-linejoin="round"
     id="path23"
     style="fill:none;stroke:#ff0000;stroke-opacity:1;stroke-width:0.001;stroke-dasharray:none" /></svg>
