<?xml version="1.0" encoding="UTF-8" standalone="no"?>
<!-- Generator: Fusion 360, Shaper Origin Export Add-In, Version 1.8.0  -->

<svg
   shaper:fusionaddin="version:1.8.0"
   width="12cm"
   height="12cm"
   version="1.1"
   x="0cm"
   y="0cm"
   viewBox="0 0 12 12"
   enable-background="new 0 0 12 12"
   xml:space="preserve"
   id="svg25"
   sodipodi:docname="kreis_groß.svg"
   inkscape:version="1.3.2 (091e20e, 2023-11-25)"
   xmlns:inkscape="http://www.inkscape.org/namespaces/inkscape"
   xmlns:sodipodi="http://sodipodi.sourceforge.net/DTD/sodipodi-0.dtd"
   xmlns="http://www.w3.org/2000/svg"
   xmlns:svg="http://www.w3.org/2000/svg"
   xmlns:shaper="http://www.shapertools.com/namespaces/shaper"><defs
     id="defs25" /><sodipodi:namedview
     id="namedview25"
     pagecolor="#ffffff"
     bordercolor="#000000"
     borderopacity="0.25"
     inkscape:showpageshadow="2"
     inkscape:pageopacity="0.0"
     inkscape:pagecheckerboard="0"
     inkscape:deskcolor="#d1d1d1"
     inkscape:document-units="cm"
     inkscape:zoom="0.52034722"
     inkscape:cx="225.81076"
     inkscape:cy="226.77165"
     inkscape:window-width="1344"
     inkscape:window-height="449"
     inkscape:window-x="0"
     inkscape:window-y="37"
     inkscape:window-maximized="0"
     inkscape:current-layer="svg25" /><path
     d="M-3.0967591,-5.0285607 a6,6 0 1,1 12,0 a6,6 0 1,1 -12,0z"
     transform="matrix(1,0,0,-1,3.0967591,0.9714393)"
     fill="rgb(0,0,0)"
     stroke-linecap="round"
     stroke-linejoin="round"
     id="path1"
     style="fill:none;stroke:#ff0000;stroke-opacity:1;stroke-width:0.001;stroke-dasharray:none" /><path
     d="M8.2082537,-5.7369663 L8.2396122,-5.4386097 8.5379688,-5.4699682 8.5066102,-5.7683248 8.2082537,-5.7369663z"
     transform="matrix(1,0,0,-1,3.0967591,0.9714393)"
     fill="rgb(255,255,255)"
     stroke="rgb(0,0,0)"
     stroke-width="0.0010cm"
     stroke-linecap="round"
     stroke-linejoin="round"
     id="path2"
     style="fill:none;stroke:#ff0000;stroke-opacity:1;stroke-width:0.001;stroke-dasharray:none" /><path
     d="M8.1675172,-4.0629553 L8.1051437,-3.7695111 8.398588,-3.7071376 8.4609615,-4.0005818 8.1675172,-4.0629553z"
     transform="matrix(1,0,0,-1,3.0967591,0.9714393)"
     fill="rgb(255,255,255)"
     stroke="rgb(0,0,0)"
     stroke-width="0.0010cm"
     stroke-linecap="round"
     stroke-linejoin="round"
     id="path3"
     style="fill:none;stroke:#ff0000;stroke-opacity:1;stroke-width:0.001;stroke-dasharray:none" /><path
     d="M3.6116464,0.276452 L3.3132899,0.3078106 3.3446484,0.6061672 3.643005,0.5748086 3.6116464,0.276452z"
     transform="matrix(1,0,0,-1,3.0967591,0.9714393)"
     fill="rgb(255,255,255)"
     stroke="rgb(0,0,0)"
     stroke-width="0.0010cm"
     stroke-linecap="round"
     stroke-linejoin="round"
     id="path4"
     style="fill:none;stroke:#ff0000;stroke-opacity:1;stroke-width:0.001;stroke-dasharray:none" /><path
     d="M0.3581447,-0.3203249 L0.0983371,-0.4703249 -0.0516629,-0.2105173 0.2081447,-0.0605173 0.3581447,-0.3203249z"
     transform="matrix(1,0,0,-1,3.0967591,0.9714393)"
     fill="rgb(255,255,255)"
     stroke="rgb(0,0,0)"
     stroke-width="0.0010cm"
     stroke-linecap="round"
     stroke-linejoin="round"
     id="path5"
     style="fill:none;stroke:#ff0000;stroke-opacity:1;stroke-width:0.001;stroke-dasharray:none" /><path
     d="M1.9376355,0.2357156 L1.6441912,0.1733421 1.5818177,0.4667864 1.875262,0.5291599 1.9376355,0.2357156z"
     transform="matrix(1,0,0,-1,3.0967591,0.9714393)"
     fill="rgb(255,255,255)"
     stroke="rgb(0,0,0)"
     stroke-width="0.0010cm"
     stroke-linecap="round"
     stroke-linejoin="round"
     id="path6"
     style="fill:none;stroke:#ff0000;stroke-opacity:1;stroke-width:0.001;stroke-dasharray:none" /><path
     d="M-2.4017719,-4.3201552 L-2.4331304,-4.6185117 -2.731487,-4.5871532 -2.7001284,-4.2887966 -2.4017719,-4.3201552z"
     transform="matrix(1,0,0,-1,3.0967591,0.9714393)"
     fill="rgb(255,255,255)"
     stroke="rgb(0,0,0)"
     stroke-width="0.0010cm"
     stroke-linecap="round"
     stroke-linejoin="round"
     id="path7"
     style="fill:none;stroke:#ff0000;stroke-opacity:1;stroke-width:0.001;stroke-dasharray:none" /><path
     d="M3.0532409,0.0714394 L2.7532409,0.0714394 2.7532409,0.2214394 3.0532409,0.2214394 3.0532409,0.0714394z"
     transform="matrix(1,0,0,-1,3.0967591,0.9714393)"
     fill="rgb(255,255,255)"
     stroke="rgb(0,0,0)"
     stroke-width="0.0010cm"
     stroke-linecap="round"
     stroke-linejoin="round"
     id="path8"
     style="fill:none;stroke:#ff0000;stroke-opacity:1;stroke-width:0.001;stroke-dasharray:none" /><path
     d="M-2.3610354,-5.9941661 L-2.2986619,-6.2876104 -2.5921062,-6.3499839 -2.6544797,-6.0565396 -2.3610354,-5.9941661z"
     transform="matrix(1,0,0,-1,3.0967591,0.9714393)"
     fill="rgb(255,255,255)"
     stroke="rgb(0,0,0)"
     stroke-width="0.0010cm"
     stroke-linecap="round"
     stroke-linejoin="round"
     id="path9"
     style="fill:none;stroke:#ff0000;stroke-opacity:1;stroke-width:0.001;stroke-dasharray:none" /><path
     d="M-1.9232167,-2.7154879 L-2.0452377,-2.9895515 -2.3193014,-2.8675306 -2.1972804,-2.5934669 -1.9232167,-2.7154879z"
     transform="matrix(1,0,0,-1,3.0967591,0.9714393)"
     fill="rgb(255,255,255)"
     stroke="rgb(0,0,0)"
     stroke-width="0.0010cm"
     stroke-linecap="round"
     stroke-linejoin="round"
     id="path10"
     style="fill:none;stroke:#ff0000;stroke-opacity:1;stroke-width:0.001;stroke-dasharray:none" /><path
     d="M-0.7880795,-8.9040159 L-0.5651361,-9.1047551 -0.7658752,-9.3276985 -0.9888187,-9.1269593 -0.7880795,-8.9040159z"
     transform="matrix(1,0,0,-1,3.0967591,0.9714393)"
     fill="rgb(255,255,255)"
     stroke="rgb(0,0,0)"
     stroke-width="0.0010cm"
     stroke-linecap="round"
     stroke-linejoin="round"
     id="path11"
     style="fill:none;stroke:#ff0000;stroke-opacity:1;stroke-width:0.001;stroke-dasharray:none" /><path
     d="M3.8688463,-10.292837 L4.1622906,-10.2304635 4.2246641,-10.5239078 3.9312198,-10.5862813 3.8688463,-10.292837z"
     transform="matrix(1,0,0,-1,3.0967591,0.9714393)"
     fill="rgb(255,255,255)"
     stroke="rgb(0,0,0)"
     stroke-width="0.0010cm"
     stroke-linecap="round"
     stroke-linejoin="round"
     id="path12"
     style="fill:none;stroke:#ff0000;stroke-opacity:1;stroke-width:0.001;stroke-dasharray:none" /><path
     d="M0.5901681,-9.8550183 L0.8642317,-9.9770393 0.7422107,-10.251103 0.4681471,-10.129082 0.5901681,-9.8550183z"
     transform="matrix(1,0,0,-1,3.0967591,0.9714393)"
     fill="rgb(255,255,255)"
     stroke="rgb(0,0,0)"
     stroke-width="0.0010cm"
     stroke-linecap="round"
     stroke-linejoin="round"
     id="path13"
     style="fill:none;stroke:#ff0000;stroke-opacity:1;stroke-width:0.001;stroke-dasharray:none" /><path
     d="M7.2449705,-7.7084646 L7.3949705,-7.448657 7.5248743,-7.523657 7.3748743,-7.7834646 7.2449705,-7.7084646z"
     transform="matrix(1,0,0,-1,3.0967591,0.9714393)"
     fill="rgb(255,255,255)"
     stroke="rgb(0,0,0)"
     stroke-width="0.0010cm"
     stroke-linecap="round"
     stroke-linejoin="round"
     id="path14"
     style="fill:none;stroke:#ff0000;stroke-opacity:1;stroke-width:0.001;stroke-dasharray:none" /><path
     d="M-1.8049949,-7.5736569 L-1.6549949,-7.8334645 -1.9148026,-7.9834645 -2.0648026,-7.7236569 -1.8049949,-7.5736569z"
     transform="matrix(1,0,0,-1,3.0967591,0.9714393)"
     fill="rgb(255,255,255)"
     stroke="rgb(0,0,0)"
     stroke-width="0.0010cm"
     stroke-linecap="round"
     stroke-linejoin="round"
     id="path15"
     style="fill:none;stroke:#ff0000;stroke-opacity:1;stroke-width:0.001;stroke-dasharray:none" /><path
     d="M6.778696,-8.7198811 L6.9794352,-8.4969377 7.2023787,-8.6976769 7.0016395,-8.9206203 6.778696,-8.7198811z"
     transform="matrix(1,0,0,-1,3.0967591,0.9714393)"
     fill="rgb(255,255,255)"
     stroke="rgb(0,0,0)"
     stroke-width="0.0010cm"
     stroke-linecap="round"
     stroke-linejoin="round"
     id="path16"
     style="fill:none;stroke:#ff0000;stroke-opacity:1;stroke-width:0.001;stroke-dasharray:none" /><path
     d="M-2.0967591,-5.0285607 a5,5 0 1,1 10,0 a5,5 0 1,1 -10,0z"
     transform="matrix(1,0,0,-1,3.0967591,0.9714393)"
     fill="rgb(255,255,255)"
     stroke="rgb(0,0,0)"
     stroke-width="0.0010cm"
     stroke-linecap="round"
     stroke-linejoin="round"
     id="path17"
     style="fill:none;stroke:#ff0000;stroke-opacity:1;stroke-width:0.001;stroke-dasharray:none" /><path
     d="M-1.5884887,-7.448657 L-1.4384887,-7.7084646 -1.5683925,-7.7834646 -1.7183926,-7.523657 -1.5884887,-7.448657z"
     transform="matrix(1,0,0,-1,3.0967591,0.9714393)"
     fill="rgb(255,255,255)"
     stroke="rgb(0,0,0)"
     stroke-width="0.0010cm"
     stroke-linecap="round"
     stroke-linejoin="round"
     id="path18"
     style="fill:none;stroke:#ff0000;stroke-opacity:1;stroke-width:0.001;stroke-dasharray:none" /><path
     d="M5.448337,-9.7367965 L5.7081446,-9.5867965 5.8581446,-9.8466042 5.598337,-9.9966042 5.448337,-9.7367965z"
     transform="matrix(1,0,0,-1,3.0967591,0.9714393)"
     fill="rgb(255,255,255)"
     stroke="rgb(0,0,0)"
     stroke-width="0.0010cm"
     stroke-linecap="round"
     stroke-linejoin="round"
     id="path19"
     style="fill:none;stroke:#ff0000;stroke-opacity:1;stroke-width:0.001;stroke-dasharray:none" /><path
     d="M-0.9722143,-1.3372403 L-1.1729534,-1.5601838 -1.3958969,-1.3594446 -1.1951577,-1.1365011 -0.9722143,-1.3372403z"
     transform="matrix(1,0,0,-1,3.0967591,0.9714393)"
     fill="rgb(255,255,255)"
     stroke="rgb(0,0,0)"
     stroke-width="0.0010cm"
     stroke-linecap="round"
     stroke-linejoin="round"
     id="path20"
     style="fill:none;stroke:#ff0000;stroke-opacity:1;stroke-width:0.001;stroke-dasharray:none" /><path
     d="M6.5945613,-1.1531056 L6.3716178,-0.9523664 6.572357,-0.7294229 6.7953005,-0.9301621 6.5945613,-1.1531056z"
     transform="matrix(1,0,0,-1,3.0967591,0.9714393)"
     fill="rgb(255,255,255)"
     stroke="rgb(0,0,0)"
     stroke-width="0.0010cm"
     stroke-linecap="round"
     stroke-linejoin="round"
     id="path21"
     style="fill:none;stroke:#ff0000;stroke-opacity:1;stroke-width:0.001;stroke-dasharray:none" /><path
     d="M7.6114767,-2.4834646 L7.4614767,-2.223657 7.7212843,-2.073657 7.8712843,-2.3334646 7.6114767,-2.4834646z"
     transform="matrix(1,0,0,-1,3.0967591,0.9714393)"
     fill="rgb(255,255,255)"
     stroke="rgb(0,0,0)"
     stroke-width="0.0010cm"
     stroke-linecap="round"
     stroke-linejoin="round"
     id="path22"
     style="fill:none;stroke:#ff0000;stroke-opacity:1;stroke-width:0.001;stroke-dasharray:none" /><path
     d="M5.2163137,-0.2021031 L4.9422501,-0.0800821 5.0642711,0.1939815 5.3383347,0.0719605 5.2163137,-0.2021031z"
     transform="matrix(1,0,0,-1,3.0967591,0.9714393)"
     fill="rgb(255,255,255)"
     stroke="rgb(0,0,0)"
     stroke-width="0.0010cm"
     stroke-linecap="round"
     stroke-linejoin="round"
     id="path23"
     style="fill:none;stroke:#ff0000;stroke-opacity:1;stroke-width:0.001;stroke-dasharray:none" /><path
     d="M2.1948353,-10.3335735 L2.4931919,-10.364932 2.4618334,-10.6632886 2.1634768,-10.6319301 2.1948353,-10.3335735z"
     transform="matrix(1,0,0,-1,3.0967591,0.9714393)"
     fill="rgb(255,255,255)"
     stroke="rgb(0,0,0)"
     stroke-width="0.0010cm"
     stroke-linecap="round"
     stroke-linejoin="round"
     id="path24"
     style="fill:none;stroke:#ff0000;stroke-opacity:1;stroke-width:0.001;stroke-dasharray:none" /><path
     d="M7.7296985,-7.3416335 L7.8517195,-7.0675699 8.1257831,-7.1895909 8.0037621,-7.4636545 7.7296985,-7.3416335z"
     transform="matrix(1,0,0,-1,3.0967591,0.9714393)"
     fill="rgb(255,255,255)"
     stroke="rgb(0,0,0)"
     stroke-width="0.0010cm"
     stroke-linecap="round"
     stroke-linejoin="round"
     id="path25"
     style="fill:none;stroke:#ff0000;stroke-opacity:1;stroke-width:0.001;stroke-dasharray:none" /></svg>
